%TF.GenerationSoftware,KiCad,Pcbnew,(6.0.9)*%
%TF.CreationDate,2022-12-04T18:18:53+03:00*%
%TF.ProjectId,communicator_27mhz,636f6d6d-756e-4696-9361-746f725f3237,beta 2.3*%
%TF.SameCoordinates,Original*%
%TF.FileFunction,Drillmap*%
%TF.FilePolarity,Positive*%
%FSLAX45Y45*%
G04 Gerber Fmt 4.5, Leading zero omitted, Abs format (unit mm)*
G04 Created by KiCad (PCBNEW (6.0.9)) date 2022-12-04 18:18:53*
%MOMM*%
%LPD*%
G01*
G04 APERTURE LIST*
%ADD10C,0.050000*%
%ADD11C,0.200000*%
%ADD12C,0.020000*%
%ADD13C,0.025000*%
%ADD14C,0.040000*%
%ADD15C,0.080000*%
%ADD16C,0.087500*%
%ADD17C,0.090000*%
%ADD18C,0.100000*%
%ADD19C,0.110000*%
%ADD20C,0.120000*%
%ADD21C,0.150000*%
%ADD22C,0.170000*%
G04 APERTURE END LIST*
D10*
X12980000Y-18540000D02*
X12980000Y-18600000D01*
X2980000Y-8610000D02*
X12980000Y-8610000D01*
X12980000Y-8610000D02*
X12980000Y-17680000D01*
X12985000Y-18540000D02*
X12980000Y-18540000D01*
X12980000Y-17680000D02*
X12985000Y-17680000D01*
X2990000Y-18600000D02*
X2980000Y-8610000D01*
X12980000Y-18600000D02*
X2990000Y-18600000D01*
D11*
D12*
X3721000Y-12021750D02*
X3741000Y-12041750D01*
X3741000Y-12021750D02*
X3721000Y-12041750D01*
X3721000Y-12174250D02*
X3741000Y-12194250D01*
X3741000Y-12174250D02*
X3721000Y-12194250D01*
X3797250Y-11945500D02*
X3817250Y-11965500D01*
X3817250Y-11945500D02*
X3797250Y-11965500D01*
X3797250Y-12098000D02*
X3817250Y-12118000D01*
X3817250Y-12098000D02*
X3797250Y-12118000D01*
X3797250Y-12250500D02*
X3817250Y-12270500D01*
X3817250Y-12250500D02*
X3797250Y-12270500D01*
X3873500Y-12021750D02*
X3893500Y-12041750D01*
X3893500Y-12021750D02*
X3873500Y-12041750D01*
X3873500Y-12174250D02*
X3893500Y-12194250D01*
X3893500Y-12174250D02*
X3873500Y-12194250D01*
X3949750Y-11945500D02*
X3969750Y-11965500D01*
X3969750Y-11945500D02*
X3949750Y-11965500D01*
X3949750Y-12098000D02*
X3969750Y-12118000D01*
X3969750Y-12098000D02*
X3949750Y-12118000D01*
X3949750Y-12250500D02*
X3969750Y-12270500D01*
X3969750Y-12250500D02*
X3949750Y-12270500D01*
X4026000Y-12021750D02*
X4046000Y-12041750D01*
X4046000Y-12021750D02*
X4026000Y-12041750D01*
X4026000Y-12174250D02*
X4046000Y-12194250D01*
X4046000Y-12174250D02*
X4026000Y-12194250D01*
D13*
X3102500Y-10410000D02*
G75*
G03*
X3102500Y-10410000I-12500J0D01*
G01*
X3222500Y-14700000D02*
G75*
G03*
X3222500Y-14700000I-12500J0D01*
G01*
X3262500Y-13680000D02*
G75*
G03*
X3262500Y-13680000I-12500J0D01*
G01*
X3622500Y-10830000D02*
G75*
G03*
X3622500Y-10830000I-12500J0D01*
G01*
X3632500Y-10260000D02*
G75*
G03*
X3632500Y-10260000I-12500J0D01*
G01*
X3672500Y-13520000D02*
G75*
G03*
X3672500Y-13520000I-12500J0D01*
G01*
X3722500Y-11930000D02*
G75*
G03*
X3722500Y-11930000I-12500J0D01*
G01*
X3722500Y-12280000D02*
G75*
G03*
X3722500Y-12280000I-12500J0D01*
G01*
X3762500Y-13560000D02*
G75*
G03*
X3762500Y-13560000I-12500J0D01*
G01*
X3802500Y-13630000D02*
G75*
G03*
X3802500Y-13630000I-12500J0D01*
G01*
X3852500Y-15790000D02*
G75*
G03*
X3852500Y-15790000I-12500J0D01*
G01*
X3922500Y-9440000D02*
G75*
G03*
X3922500Y-9440000I-12500J0D01*
G01*
X4072500Y-11930000D02*
G75*
G03*
X4072500Y-11930000I-12500J0D01*
G01*
X4072500Y-12280000D02*
G75*
G03*
X4072500Y-12280000I-12500J0D01*
G01*
X4072500Y-13060000D02*
G75*
G03*
X4072500Y-13060000I-12500J0D01*
G01*
X4112500Y-13170000D02*
G75*
G03*
X4112500Y-13170000I-12500J0D01*
G01*
X4192500Y-9990000D02*
G75*
G03*
X4192500Y-9990000I-12500J0D01*
G01*
X4212500Y-15900000D02*
G75*
G03*
X4212500Y-15900000I-12500J0D01*
G01*
X4342500Y-10690000D02*
G75*
G03*
X4342500Y-10690000I-12500J0D01*
G01*
X4432500Y-10880000D02*
G75*
G03*
X4432500Y-10880000I-12500J0D01*
G01*
X4432500Y-15980000D02*
G75*
G03*
X4432500Y-15980000I-12500J0D01*
G01*
X4492500Y-12790000D02*
G75*
G03*
X4492500Y-12790000I-12500J0D01*
G01*
X4622500Y-14290000D02*
G75*
G03*
X4622500Y-14290000I-12500J0D01*
G01*
X4772500Y-14170000D02*
G75*
G03*
X4772500Y-14170000I-12500J0D01*
G01*
X4812500Y-13040000D02*
G75*
G03*
X4812500Y-13040000I-12500J0D01*
G01*
X4812500Y-15870000D02*
G75*
G03*
X4812500Y-15870000I-12500J0D01*
G01*
X4982500Y-14500000D02*
G75*
G03*
X4982500Y-14500000I-12500J0D01*
G01*
X5042500Y-14410000D02*
G75*
G03*
X5042500Y-14410000I-12500J0D01*
G01*
X5102500Y-16120000D02*
G75*
G03*
X5102500Y-16120000I-12500J0D01*
G01*
X5202500Y-14970000D02*
G75*
G03*
X5202500Y-14970000I-12500J0D01*
G01*
X5412500Y-16790000D02*
G75*
G03*
X5412500Y-16790000I-12500J0D01*
G01*
X5422500Y-15200000D02*
G75*
G03*
X5422500Y-15200000I-12500J0D01*
G01*
X5442500Y-12620000D02*
G75*
G03*
X5442500Y-12620000I-12500J0D01*
G01*
X5452500Y-11270000D02*
G75*
G03*
X5452500Y-11270000I-12500J0D01*
G01*
X5452500Y-16390000D02*
G75*
G03*
X5452500Y-16390000I-12500J0D01*
G01*
X5632500Y-14590000D02*
G75*
G03*
X5632500Y-14590000I-12500J0D01*
G01*
X5772500Y-16540000D02*
G75*
G03*
X5772500Y-16540000I-12500J0D01*
G01*
X5982500Y-16580000D02*
G75*
G03*
X5982500Y-16580000I-12500J0D01*
G01*
X6012500Y-11270000D02*
G75*
G03*
X6012500Y-11270000I-12500J0D01*
G01*
X6282500Y-15700000D02*
G75*
G03*
X6282500Y-15700000I-12500J0D01*
G01*
X6382500Y-16180000D02*
G75*
G03*
X6382500Y-16180000I-12500J0D01*
G01*
X6432500Y-14160000D02*
G75*
G03*
X6432500Y-14160000I-12500J0D01*
G01*
X6542500Y-11640000D02*
G75*
G03*
X6542500Y-11640000I-12500J0D01*
G01*
X6642500Y-12150000D02*
G75*
G03*
X6642500Y-12150000I-12500J0D01*
G01*
X6732500Y-15600000D02*
G75*
G03*
X6732500Y-15600000I-12500J0D01*
G01*
X7612500Y-12010000D02*
G75*
G03*
X7612500Y-12010000I-12500J0D01*
G01*
X7702500Y-13880000D02*
G75*
G03*
X7702500Y-13880000I-12500J0D01*
G01*
X7792500Y-14700000D02*
G75*
G03*
X7792500Y-14700000I-12500J0D01*
G01*
X7912500Y-14360000D02*
G75*
G03*
X7912500Y-14360000I-12500J0D01*
G01*
X8092500Y-13320000D02*
G75*
G03*
X8092500Y-13320000I-12500J0D01*
G01*
X8192500Y-14650000D02*
G75*
G03*
X8192500Y-14650000I-12500J0D01*
G01*
X8292500Y-13310000D02*
G75*
G03*
X8292500Y-13310000I-12500J0D01*
G01*
X8432500Y-12520000D02*
G75*
G03*
X8432500Y-12520000I-12500J0D01*
G01*
X8462500Y-14240000D02*
G75*
G03*
X8462500Y-14240000I-12500J0D01*
G01*
X8472500Y-14570000D02*
G75*
G03*
X8472500Y-14570000I-12500J0D01*
G01*
X8882500Y-13310000D02*
G75*
G03*
X8882500Y-13310000I-12500J0D01*
G01*
X9042500Y-12590000D02*
G75*
G03*
X9042500Y-12590000I-12500J0D01*
G01*
X9062500Y-13310000D02*
G75*
G03*
X9062500Y-13310000I-12500J0D01*
G01*
X9212500Y-11620000D02*
G75*
G03*
X9212500Y-11620000I-12500J0D01*
G01*
X10307500Y-11645000D02*
G75*
G03*
X10307500Y-11645000I-12500J0D01*
G01*
D14*
X11040000Y-10160000D02*
X11040000Y-10200000D01*
X11020000Y-10180000D02*
X11060000Y-10180000D01*
D11*
X11060000Y-10210000D02*
X11060000Y-10150000D01*
X11020000Y-10210000D02*
X11020000Y-10150000D01*
X11060000Y-10150000D02*
G75*
G03*
X11020000Y-10150000I-20000J0D01*
G01*
X11020000Y-10210000D02*
G75*
G03*
X11060000Y-10210000I20000J0D01*
G01*
D14*
X11040000Y-10410000D02*
X11040000Y-10450000D01*
X11020000Y-10430000D02*
X11060000Y-10430000D01*
D11*
X11060000Y-10460000D02*
X11060000Y-10400000D01*
X11020000Y-10460000D02*
X11020000Y-10400000D01*
X11060000Y-10400000D02*
G75*
G03*
X11020000Y-10400000I-20000J0D01*
G01*
X11020000Y-10460000D02*
G75*
G03*
X11060000Y-10460000I20000J0D01*
G01*
D14*
X11040000Y-10660000D02*
X11040000Y-10700000D01*
X11020000Y-10680000D02*
X11060000Y-10680000D01*
D11*
X11060000Y-10710000D02*
X11060000Y-10650000D01*
X11020000Y-10710000D02*
X11020000Y-10650000D01*
X11060000Y-10650000D02*
G75*
G03*
X11020000Y-10650000I-20000J0D01*
G01*
X11020000Y-10710000D02*
G75*
G03*
X11060000Y-10710000I20000J0D01*
G01*
D14*
X11360000Y-10160000D02*
X11360000Y-10200000D01*
X11340000Y-10180000D02*
X11380000Y-10180000D01*
D11*
X11380000Y-10210000D02*
X11380000Y-10150000D01*
X11340000Y-10210000D02*
X11340000Y-10150000D01*
X11380000Y-10150000D02*
G75*
G03*
X11340000Y-10150000I-20000J0D01*
G01*
X11340000Y-10210000D02*
G75*
G03*
X11380000Y-10210000I20000J0D01*
G01*
D14*
X11360000Y-10410000D02*
X11360000Y-10450000D01*
X11340000Y-10430000D02*
X11380000Y-10430000D01*
D11*
X11380000Y-10460000D02*
X11380000Y-10400000D01*
X11340000Y-10460000D02*
X11340000Y-10400000D01*
X11380000Y-10400000D02*
G75*
G03*
X11340000Y-10400000I-20000J0D01*
G01*
X11340000Y-10460000D02*
G75*
G03*
X11380000Y-10460000I20000J0D01*
G01*
D14*
X11360000Y-10660000D02*
X11360000Y-10700000D01*
X11340000Y-10680000D02*
X11380000Y-10680000D01*
D11*
X11380000Y-10710000D02*
X11380000Y-10650000D01*
X11340000Y-10710000D02*
X11340000Y-10650000D01*
X11380000Y-10650000D02*
G75*
G03*
X11340000Y-10650000I-20000J0D01*
G01*
X11340000Y-10710000D02*
G75*
G03*
X11380000Y-10710000I20000J0D01*
G01*
D10*
X3167178Y-12778178D02*
X3167178Y-12742822D01*
X3131822Y-12742822D01*
X3131822Y-12778178D01*
X3167178Y-12778178D01*
X3227678Y-11347678D02*
X3227678Y-11312322D01*
X3192322Y-11312322D01*
X3192322Y-11347678D01*
X3227678Y-11347678D01*
X3817678Y-10527678D02*
X3817678Y-10492322D01*
X3782322Y-10492322D01*
X3782322Y-10527678D01*
X3817678Y-10527678D01*
X3837678Y-16307678D02*
X3837678Y-16272322D01*
X3802322Y-16272322D01*
X3802322Y-16307678D01*
X3837678Y-16307678D01*
X4517678Y-13507678D02*
X4517678Y-13472322D01*
X4482322Y-13472322D01*
X4482322Y-13507678D01*
X4517678Y-13507678D01*
X4587678Y-14697678D02*
X4587678Y-14662322D01*
X4552322Y-14662322D01*
X4552322Y-14697678D01*
X4587678Y-14697678D01*
X4717678Y-12627678D02*
X4717678Y-12592322D01*
X4682322Y-12592322D01*
X4682322Y-12627678D01*
X4717678Y-12627678D01*
X4727678Y-10517678D02*
X4727678Y-10482322D01*
X4692322Y-10482322D01*
X4692322Y-10517678D01*
X4727678Y-10517678D01*
X5447678Y-10547678D02*
X5447678Y-10512322D01*
X5412322Y-10512322D01*
X5412322Y-10547678D01*
X5447678Y-10547678D01*
X5537678Y-9727678D02*
X5537678Y-9692322D01*
X5502322Y-9692322D01*
X5502322Y-9727678D01*
X5537678Y-9727678D01*
X5607678Y-11977678D02*
X5607678Y-11942322D01*
X5572322Y-11942322D01*
X5572322Y-11977678D01*
X5607678Y-11977678D01*
X5607678Y-12627678D02*
X5607678Y-12592322D01*
X5572322Y-12592322D01*
X5572322Y-12627678D01*
X5607678Y-12627678D01*
X5607678Y-12857678D02*
X5607678Y-12822322D01*
X5572322Y-12822322D01*
X5572322Y-12857678D01*
X5607678Y-12857678D01*
X5777678Y-10107678D02*
X5777678Y-10072322D01*
X5742322Y-10072322D01*
X5742322Y-10107678D01*
X5777678Y-10107678D01*
X5777678Y-10397678D02*
X5777678Y-10362322D01*
X5742322Y-10362322D01*
X5742322Y-10397678D01*
X5777678Y-10397678D01*
X5817678Y-12577678D02*
X5817678Y-12542322D01*
X5782322Y-12542322D01*
X5782322Y-12577678D01*
X5817678Y-12577678D01*
X5967678Y-15307678D02*
X5967678Y-15272322D01*
X5932322Y-15272322D01*
X5932322Y-15307678D01*
X5967678Y-15307678D01*
X6008479Y-12768479D02*
X6008479Y-12733123D01*
X5973123Y-12733123D01*
X5973123Y-12768479D01*
X6008479Y-12768479D01*
X6047678Y-10547678D02*
X6047678Y-10512322D01*
X6012322Y-10512322D01*
X6012322Y-10547678D01*
X6047678Y-10547678D01*
X6127678Y-14847678D02*
X6127678Y-14812322D01*
X6092322Y-14812322D01*
X6092322Y-14847678D01*
X6127678Y-14847678D01*
X6207678Y-13677678D02*
X6207678Y-13642322D01*
X6172322Y-13642322D01*
X6172322Y-13677678D01*
X6207678Y-13677678D01*
X6567678Y-13807678D02*
X6567678Y-13772322D01*
X6532322Y-13772322D01*
X6532322Y-13807678D01*
X6567678Y-13807678D01*
X6957678Y-13857678D02*
X6957678Y-13822322D01*
X6922322Y-13822322D01*
X6922322Y-13857678D01*
X6957678Y-13857678D01*
X7137678Y-9277678D02*
X7137678Y-9242322D01*
X7102322Y-9242322D01*
X7102322Y-9277678D01*
X7137678Y-9277678D01*
X7377678Y-14447678D02*
X7377678Y-14412322D01*
X7342322Y-14412322D01*
X7342322Y-14447678D01*
X7377678Y-14447678D01*
X7497678Y-11567678D02*
X7497678Y-11532322D01*
X7462322Y-11532322D01*
X7462322Y-11567678D01*
X7497678Y-11567678D01*
X7507678Y-15277678D02*
X7507678Y-15242322D01*
X7472322Y-15242322D01*
X7472322Y-15277678D01*
X7507678Y-15277678D01*
X8257678Y-13837678D02*
X8257678Y-13802322D01*
X8222322Y-13802322D01*
X8222322Y-13837678D01*
X8257678Y-13837678D01*
X8567678Y-12831428D02*
X8567678Y-12796072D01*
X8532322Y-12796072D01*
X8532322Y-12831428D01*
X8567678Y-12831428D01*
X8657678Y-14427678D02*
X8657678Y-14392322D01*
X8622322Y-14392322D01*
X8622322Y-14427678D01*
X8657678Y-14427678D01*
X8877678Y-14637678D02*
X8877678Y-14602322D01*
X8842322Y-14602322D01*
X8842322Y-14637678D01*
X8877678Y-14637678D01*
X8897678Y-15327678D02*
X8897678Y-15292322D01*
X8862322Y-15292322D01*
X8862322Y-15327678D01*
X8897678Y-15327678D01*
X8907678Y-15167678D02*
X8907678Y-15132322D01*
X8872322Y-15132322D01*
X8872322Y-15167678D01*
X8907678Y-15167678D01*
X8957678Y-16087678D02*
X8957678Y-16052322D01*
X8922322Y-16052322D01*
X8922322Y-16087678D01*
X8957678Y-16087678D01*
X9177678Y-11977678D02*
X9177678Y-11942322D01*
X9142322Y-11942322D01*
X9142322Y-11977678D01*
X9177678Y-11977678D01*
X9317678Y-8847678D02*
X9317678Y-8812322D01*
X9282322Y-8812322D01*
X9282322Y-8847678D01*
X9317678Y-8847678D01*
X9537678Y-16787678D02*
X9537678Y-16752322D01*
X9502322Y-16752322D01*
X9502322Y-16787678D01*
X9537678Y-16787678D01*
X9757678Y-17407678D02*
X9757678Y-17372322D01*
X9722322Y-17372322D01*
X9722322Y-17407678D01*
X9757678Y-17407678D01*
X10147678Y-17397678D02*
X10147678Y-17362322D01*
X10112322Y-17362322D01*
X10112322Y-17397678D01*
X10147678Y-17397678D01*
X10197678Y-15797678D02*
X10197678Y-15762322D01*
X10162322Y-15762322D01*
X10162322Y-15797678D01*
X10197678Y-15797678D01*
X10537678Y-16027678D02*
X10537678Y-15992322D01*
X10502322Y-15992322D01*
X10502322Y-16027678D01*
X10537678Y-16027678D01*
X10717678Y-9387678D02*
X10717678Y-9352322D01*
X10682322Y-9352322D01*
X10682322Y-9387678D01*
X10717678Y-9387678D01*
X11241428Y-17321428D02*
X11241428Y-17286072D01*
X11206072Y-17286072D01*
X11206072Y-17321428D01*
X11241428Y-17321428D01*
X11427678Y-15867678D02*
X11427678Y-15832322D01*
X11392322Y-15832322D01*
X11392322Y-15867678D01*
X11427678Y-15867678D01*
X11487678Y-9437678D02*
X11487678Y-9402322D01*
X11452322Y-9402322D01*
X11452322Y-9437678D01*
X11487678Y-9437678D01*
X11621428Y-17637678D02*
X11621428Y-17602322D01*
X11586072Y-17602322D01*
X11586072Y-17637678D01*
X11621428Y-17637678D01*
X12371428Y-12351428D02*
X12371428Y-12316072D01*
X12336072Y-12316072D01*
X12336072Y-12351428D01*
X12371428Y-12351428D01*
X12517678Y-9737678D02*
X12517678Y-9702322D01*
X12482322Y-9702322D01*
X12482322Y-9737678D01*
X12517678Y-9737678D01*
D15*
X4040000Y-14760000D02*
X4080000Y-14720000D01*
X4040000Y-14680000D01*
X4000000Y-14720000D01*
X4040000Y-14760000D01*
X4040000Y-15014000D02*
X4080000Y-14974000D01*
X4040000Y-14934000D01*
X4000000Y-14974000D01*
X4040000Y-15014000D01*
X4040000Y-15268000D02*
X4080000Y-15228000D01*
X4040000Y-15188000D01*
X4000000Y-15228000D01*
X4040000Y-15268000D01*
X4690000Y-16670000D02*
X4730000Y-16630000D01*
X4690000Y-16590000D01*
X4650000Y-16630000D01*
X4690000Y-16670000D01*
X4840000Y-17210000D02*
X4880000Y-17170000D01*
X4840000Y-17130000D01*
X4800000Y-17170000D01*
X4840000Y-17210000D01*
X4840000Y-17464000D02*
X4880000Y-17424000D01*
X4840000Y-17384000D01*
X4800000Y-17424000D01*
X4840000Y-17464000D01*
X4840000Y-17718000D02*
X4880000Y-17678000D01*
X4840000Y-17638000D01*
X4800000Y-17678000D01*
X4840000Y-17718000D01*
X4890000Y-16670000D02*
X4930000Y-16630000D01*
X4890000Y-16590000D01*
X4850000Y-16630000D01*
X4890000Y-16670000D01*
X4960000Y-9467000D02*
X5000000Y-9427000D01*
X4960000Y-9387000D01*
X4920000Y-9427000D01*
X4960000Y-9467000D01*
X4960000Y-9955000D02*
X5000000Y-9915000D01*
X4960000Y-9875000D01*
X4920000Y-9915000D01*
X4960000Y-9955000D01*
X5620000Y-15360000D02*
X5660000Y-15320000D01*
X5620000Y-15280000D01*
X5580000Y-15320000D01*
X5620000Y-15360000D01*
X5620000Y-15614000D02*
X5660000Y-15574000D01*
X5620000Y-15534000D01*
X5580000Y-15574000D01*
X5620000Y-15614000D01*
X5620000Y-15868000D02*
X5660000Y-15828000D01*
X5620000Y-15788000D01*
X5580000Y-15828000D01*
X5620000Y-15868000D01*
X5800000Y-8964489D02*
X5840000Y-8924489D01*
X5800000Y-8884489D01*
X5760000Y-8924489D01*
X5800000Y-8964489D01*
X5800000Y-9164489D02*
X5840000Y-9124489D01*
X5800000Y-9084489D01*
X5760000Y-9124489D01*
X5800000Y-9164489D01*
X6100000Y-12014489D02*
X6140000Y-11974489D01*
X6100000Y-11934489D01*
X6060000Y-11974489D01*
X6100000Y-12014489D01*
X6100000Y-12214489D02*
X6140000Y-12174489D01*
X6100000Y-12134489D01*
X6060000Y-12174489D01*
X6100000Y-12214489D01*
X6280000Y-11405511D02*
X6320000Y-11365511D01*
X6280000Y-11325511D01*
X6240000Y-11365511D01*
X6280000Y-11405511D01*
X6280000Y-11605511D02*
X6320000Y-11565511D01*
X6280000Y-11525511D01*
X6240000Y-11565511D01*
X6280000Y-11605511D01*
X6574489Y-15060000D02*
X6614489Y-15020000D01*
X6574489Y-14980000D01*
X6534489Y-15020000D01*
X6574489Y-15060000D01*
X6774489Y-15060000D02*
X6814489Y-15020000D01*
X6774489Y-14980000D01*
X6734489Y-15020000D01*
X6774489Y-15060000D01*
X7020000Y-12809735D02*
X7060000Y-12769735D01*
X7020000Y-12729735D01*
X6980000Y-12769735D01*
X7020000Y-12809735D01*
X7020000Y-13189735D02*
X7060000Y-13149735D01*
X7020000Y-13109735D01*
X6980000Y-13149735D01*
X7020000Y-13189735D01*
X8922000Y-10530000D02*
X8962000Y-10490000D01*
X8922000Y-10450000D01*
X8882000Y-10490000D01*
X8922000Y-10530000D01*
X8922000Y-11292000D02*
X8962000Y-11252000D01*
X8922000Y-11212000D01*
X8882000Y-11252000D01*
X8922000Y-11292000D01*
X9176000Y-10530000D02*
X9216000Y-10490000D01*
X9176000Y-10450000D01*
X9136000Y-10490000D01*
X9176000Y-10530000D01*
X9176000Y-11292000D02*
X9216000Y-11252000D01*
X9176000Y-11212000D01*
X9136000Y-11252000D01*
X9176000Y-11292000D01*
X9430000Y-10530000D02*
X9470000Y-10490000D01*
X9430000Y-10450000D01*
X9390000Y-10490000D01*
X9430000Y-10530000D01*
X9430000Y-11292000D02*
X9470000Y-11252000D01*
X9430000Y-11212000D01*
X9390000Y-11252000D01*
X9430000Y-11292000D01*
X9684000Y-10530000D02*
X9724000Y-10490000D01*
X9684000Y-10450000D01*
X9644000Y-10490000D01*
X9684000Y-10530000D01*
X9684000Y-11292000D02*
X9724000Y-11252000D01*
X9684000Y-11212000D01*
X9644000Y-11252000D01*
X9684000Y-11292000D01*
X9780000Y-14105511D02*
X9820000Y-14065511D01*
X9780000Y-14025511D01*
X9740000Y-14065511D01*
X9780000Y-14105511D01*
X9780000Y-14305511D02*
X9820000Y-14265511D01*
X9780000Y-14225511D01*
X9740000Y-14265511D01*
X9780000Y-14305511D01*
X9938000Y-10530000D02*
X9978000Y-10490000D01*
X9938000Y-10450000D01*
X9898000Y-10490000D01*
X9938000Y-10530000D01*
X9938000Y-11292000D02*
X9978000Y-11252000D01*
X9938000Y-11212000D01*
X9898000Y-11252000D01*
X9938000Y-11292000D01*
X10192000Y-10530000D02*
X10232000Y-10490000D01*
X10192000Y-10450000D01*
X10152000Y-10490000D01*
X10192000Y-10530000D01*
X10192000Y-11292000D02*
X10232000Y-11252000D01*
X10192000Y-11212000D01*
X10152000Y-11252000D01*
X10192000Y-11292000D01*
X10446000Y-10530000D02*
X10486000Y-10490000D01*
X10446000Y-10450000D01*
X10406000Y-10490000D01*
X10446000Y-10530000D01*
X10446000Y-11292000D02*
X10486000Y-11252000D01*
X10446000Y-11212000D01*
X10406000Y-11252000D01*
X10446000Y-11292000D01*
X10657500Y-11878000D02*
X10697500Y-11838000D01*
X10657500Y-11798000D01*
X10617500Y-11838000D01*
X10657500Y-11878000D01*
X10657500Y-12640000D02*
X10697500Y-12600000D01*
X10657500Y-12560000D01*
X10617500Y-12600000D01*
X10657500Y-12640000D01*
X10700000Y-10530000D02*
X10740000Y-10490000D01*
X10700000Y-10450000D01*
X10660000Y-10490000D01*
X10700000Y-10530000D01*
X10700000Y-11292000D02*
X10740000Y-11252000D01*
X10700000Y-11212000D01*
X10660000Y-11252000D01*
X10700000Y-11292000D01*
X10911500Y-11878000D02*
X10951500Y-11838000D01*
X10911500Y-11798000D01*
X10871500Y-11838000D01*
X10911500Y-11878000D01*
X10911500Y-12640000D02*
X10951500Y-12600000D01*
X10911500Y-12560000D01*
X10871500Y-12600000D01*
X10911500Y-12640000D01*
X11165500Y-11878000D02*
X11205500Y-11838000D01*
X11165500Y-11798000D01*
X11125500Y-11838000D01*
X11165500Y-11878000D01*
X11165500Y-12640000D02*
X11205500Y-12600000D01*
X11165500Y-12560000D01*
X11125500Y-12600000D01*
X11165500Y-12640000D01*
X11394489Y-14610000D02*
X11434489Y-14570000D01*
X11394489Y-14530000D01*
X11354489Y-14570000D01*
X11394489Y-14610000D01*
X11400000Y-11090265D02*
X11440000Y-11050265D01*
X11400000Y-11010265D01*
X11360000Y-11050265D01*
X11400000Y-11090265D01*
X11400000Y-11470265D02*
X11440000Y-11430265D01*
X11400000Y-11390265D01*
X11360000Y-11430265D01*
X11400000Y-11470265D01*
X11419500Y-11878000D02*
X11459500Y-11838000D01*
X11419500Y-11798000D01*
X11379500Y-11838000D01*
X11419500Y-11878000D01*
X11419500Y-12640000D02*
X11459500Y-12600000D01*
X11419500Y-12560000D01*
X11379500Y-12600000D01*
X11419500Y-12640000D01*
X11594489Y-14610000D02*
X11634489Y-14570000D01*
X11594489Y-14530000D01*
X11554489Y-14570000D01*
X11594489Y-14610000D01*
X11673500Y-11878000D02*
X11713500Y-11838000D01*
X11673500Y-11798000D01*
X11633500Y-11838000D01*
X11673500Y-11878000D01*
X11673500Y-12640000D02*
X11713500Y-12600000D01*
X11673500Y-12560000D01*
X11633500Y-12600000D01*
X11673500Y-12640000D01*
X11927500Y-11878000D02*
X11967500Y-11838000D01*
X11927500Y-11798000D01*
X11887500Y-11838000D01*
X11927500Y-11878000D01*
X11927500Y-12640000D02*
X11967500Y-12600000D01*
X11927500Y-12560000D01*
X11887500Y-12600000D01*
X11927500Y-12640000D01*
X11940000Y-9830000D02*
X11980000Y-9790000D01*
X11940000Y-9750000D01*
X11900000Y-9790000D01*
X11940000Y-9830000D01*
X11940000Y-10210000D02*
X11980000Y-10170000D01*
X11940000Y-10130000D01*
X11900000Y-10170000D01*
X11940000Y-10210000D01*
X12181500Y-11878000D02*
X12221500Y-11838000D01*
X12181500Y-11798000D01*
X12141500Y-11838000D01*
X12181500Y-11878000D01*
X12181500Y-12640000D02*
X12221500Y-12600000D01*
X12181500Y-12560000D01*
X12141500Y-12600000D01*
X12181500Y-12640000D01*
D16*
X3396250Y-8726250D02*
X3483750Y-8813750D01*
X3483750Y-8726250D02*
X3396250Y-8813750D01*
X3483750Y-8770000D02*
G75*
G03*
X3483750Y-8770000I-43750J0D01*
G01*
X3396250Y-9716250D02*
X3483750Y-9803750D01*
X3483750Y-9716250D02*
X3396250Y-9803750D01*
X3483750Y-9760000D02*
G75*
G03*
X3483750Y-9760000I-43750J0D01*
G01*
X10526250Y-12806250D02*
X10613750Y-12893750D01*
X10613750Y-12806250D02*
X10526250Y-12893750D01*
X10613750Y-12850000D02*
G75*
G03*
X10613750Y-12850000I-43750J0D01*
G01*
X12046250Y-11136250D02*
X12133750Y-11223750D01*
X12133750Y-11136250D02*
X12046250Y-11223750D01*
X12133750Y-11180000D02*
G75*
G03*
X12133750Y-11180000I-43750J0D01*
G01*
X12056250Y-15906250D02*
X12143750Y-15993750D01*
X12143750Y-15906250D02*
X12056250Y-15993750D01*
X12143750Y-15950000D02*
G75*
G03*
X12143750Y-15950000I-43750J0D01*
G01*
X12260478Y-12806250D02*
X12347978Y-12893750D01*
X12347978Y-12806250D02*
X12260478Y-12893750D01*
X12347978Y-12850000D02*
G75*
G03*
X12347978Y-12850000I-43750J0D01*
G01*
D17*
X3205000Y-13838500D02*
X3295000Y-13928500D01*
X3295000Y-13838500D02*
X3205000Y-13928500D01*
X3250000Y-13838500D02*
X3250000Y-13928500D01*
X3205000Y-13883500D02*
X3295000Y-13883500D01*
X3205000Y-14092500D02*
X3295000Y-14182500D01*
X3295000Y-14092500D02*
X3205000Y-14182500D01*
X3250000Y-14092500D02*
X3250000Y-14182500D01*
X3205000Y-14137500D02*
X3295000Y-14137500D01*
X3455000Y-16347500D02*
X3545000Y-16437500D01*
X3545000Y-16347500D02*
X3455000Y-16437500D01*
X3500000Y-16347500D02*
X3500000Y-16437500D01*
X3455000Y-16392500D02*
X3545000Y-16392500D01*
X3455000Y-16601500D02*
X3545000Y-16691500D01*
X3545000Y-16601500D02*
X3455000Y-16691500D01*
X3500000Y-16601500D02*
X3500000Y-16691500D01*
X3455000Y-16646500D02*
X3545000Y-16646500D01*
X3455000Y-16855000D02*
X3545000Y-16945000D01*
X3545000Y-16855000D02*
X3455000Y-16945000D01*
X3500000Y-16855000D02*
X3500000Y-16945000D01*
X3455000Y-16900000D02*
X3545000Y-16900000D01*
X3455000Y-17109000D02*
X3545000Y-17199000D01*
X3545000Y-17109000D02*
X3455000Y-17199000D01*
X3500000Y-17109000D02*
X3500000Y-17199000D01*
X3455000Y-17154000D02*
X3545000Y-17154000D01*
X3455000Y-17357500D02*
X3545000Y-17447500D01*
X3545000Y-17357500D02*
X3455000Y-17447500D01*
X3500000Y-17357500D02*
X3500000Y-17447500D01*
X3455000Y-17402500D02*
X3545000Y-17402500D01*
X3455000Y-17611500D02*
X3545000Y-17701500D01*
X3545000Y-17611500D02*
X3455000Y-17701500D01*
X3500000Y-17611500D02*
X3500000Y-17701500D01*
X3455000Y-17656500D02*
X3545000Y-17656500D01*
X6257500Y-9165000D02*
X6347500Y-9255000D01*
X6347500Y-9165000D02*
X6257500Y-9255000D01*
X6302500Y-9165000D02*
X6302500Y-9255000D01*
X6257500Y-9210000D02*
X6347500Y-9210000D01*
X6511500Y-9165000D02*
X6601500Y-9255000D01*
X6601500Y-9165000D02*
X6511500Y-9255000D01*
X6556500Y-9165000D02*
X6556500Y-9255000D01*
X6511500Y-9210000D02*
X6601500Y-9210000D01*
X9847500Y-8815000D02*
X9937500Y-8905000D01*
X9937500Y-8815000D02*
X9847500Y-8905000D01*
X9892500Y-8815000D02*
X9892500Y-8905000D01*
X9847500Y-8860000D02*
X9937500Y-8860000D01*
X10101500Y-8815000D02*
X10191500Y-8905000D01*
X10191500Y-8815000D02*
X10101500Y-8905000D01*
X10146500Y-8815000D02*
X10146500Y-8905000D01*
X10101500Y-8860000D02*
X10191500Y-8860000D01*
X12665000Y-10107500D02*
X12755000Y-10197500D01*
X12755000Y-10107500D02*
X12665000Y-10197500D01*
X12710000Y-10107500D02*
X12710000Y-10197500D01*
X12665000Y-10152500D02*
X12755000Y-10152500D01*
X12665000Y-10361500D02*
X12755000Y-10451500D01*
X12755000Y-10361500D02*
X12665000Y-10451500D01*
X12710000Y-10361500D02*
X12710000Y-10451500D01*
X12665000Y-10406500D02*
X12755000Y-10406500D01*
D18*
X8390000Y-17070000D02*
X8490000Y-17170000D01*
X8490000Y-17070000D02*
X8390000Y-17170000D01*
X8475356Y-17155356D02*
X8475356Y-17084644D01*
X8404644Y-17084644D01*
X8404644Y-17155356D01*
X8475356Y-17155356D01*
X8390000Y-18280000D02*
X8490000Y-18380000D01*
X8490000Y-18280000D02*
X8390000Y-18380000D01*
X8475356Y-18365356D02*
X8475356Y-18294644D01*
X8404644Y-18294644D01*
X8404644Y-18365356D01*
X8475356Y-18365356D01*
X8490000Y-16370000D02*
X8590000Y-16470000D01*
X8590000Y-16370000D02*
X8490000Y-16470000D01*
X8575356Y-16455356D02*
X8575356Y-16384644D01*
X8504644Y-16384644D01*
X8504644Y-16455356D01*
X8575356Y-16455356D01*
X8490000Y-17580000D02*
X8590000Y-17680000D01*
X8590000Y-17580000D02*
X8490000Y-17680000D01*
X8575356Y-17665356D02*
X8575356Y-17594644D01*
X8504644Y-17594644D01*
X8504644Y-17665356D01*
X8575356Y-17665356D01*
X8990000Y-16370000D02*
X9090000Y-16470000D01*
X9090000Y-16370000D02*
X8990000Y-16470000D01*
X9075356Y-16455356D02*
X9075356Y-16384644D01*
X9004644Y-16384644D01*
X9004644Y-16455356D01*
X9075356Y-16455356D01*
X8990000Y-17580000D02*
X9090000Y-17680000D01*
X9090000Y-17580000D02*
X8990000Y-17680000D01*
X9075356Y-17665356D02*
X9075356Y-17594644D01*
X9004644Y-17594644D01*
X9004644Y-17665356D01*
X9075356Y-17665356D01*
X9090000Y-17070000D02*
X9190000Y-17170000D01*
X9190000Y-17070000D02*
X9090000Y-17170000D01*
X9175356Y-17155356D02*
X9175356Y-17084644D01*
X9104644Y-17084644D01*
X9104644Y-17155356D01*
X9175356Y-17155356D01*
X9090000Y-18280000D02*
X9190000Y-18380000D01*
X9190000Y-18280000D02*
X9090000Y-18380000D01*
X9175356Y-18365356D02*
X9175356Y-18294644D01*
X9104644Y-18294644D01*
X9104644Y-18365356D01*
X9175356Y-18365356D01*
X9420000Y-14770000D02*
X9520000Y-14870000D01*
X9520000Y-14770000D02*
X9420000Y-14870000D01*
X9505356Y-14855356D02*
X9505356Y-14784644D01*
X9434644Y-14784644D01*
X9434644Y-14855356D01*
X9505356Y-14855356D01*
X9520000Y-15470000D02*
X9620000Y-15570000D01*
X9620000Y-15470000D02*
X9520000Y-15570000D01*
X9605356Y-15555356D02*
X9605356Y-15484644D01*
X9534644Y-15484644D01*
X9534644Y-15555356D01*
X9605356Y-15555356D01*
X9580000Y-13430000D02*
X9680000Y-13530000D01*
X9680000Y-13430000D02*
X9580000Y-13530000D01*
X9665356Y-13515356D02*
X9665356Y-13444644D01*
X9594644Y-13444644D01*
X9594644Y-13515356D01*
X9665356Y-13515356D01*
X9640000Y-17820000D02*
X9740000Y-17920000D01*
X9740000Y-17820000D02*
X9640000Y-17920000D01*
X9725356Y-17905356D02*
X9725356Y-17834644D01*
X9654644Y-17834644D01*
X9654644Y-17905356D01*
X9725356Y-17905356D01*
X9820000Y-17050000D02*
X9920000Y-17150000D01*
X9920000Y-17050000D02*
X9820000Y-17150000D01*
X9905356Y-17135356D02*
X9905356Y-17064644D01*
X9834644Y-17064644D01*
X9834644Y-17135356D01*
X9905356Y-17135356D01*
X9920000Y-16350000D02*
X10020000Y-16450000D01*
X10020000Y-16350000D02*
X9920000Y-16450000D01*
X10005356Y-16435356D02*
X10005356Y-16364644D01*
X9934644Y-16364644D01*
X9934644Y-16435356D01*
X10005356Y-16435356D01*
X10020000Y-15470000D02*
X10120000Y-15570000D01*
X10120000Y-15470000D02*
X10020000Y-15570000D01*
X10105356Y-15555356D02*
X10105356Y-15484644D01*
X10034644Y-15484644D01*
X10034644Y-15555356D01*
X10105356Y-15555356D01*
X10120000Y-14770000D02*
X10220000Y-14870000D01*
X10220000Y-14770000D02*
X10120000Y-14870000D01*
X10205356Y-14855356D02*
X10205356Y-14784644D01*
X10134644Y-14784644D01*
X10134644Y-14855356D01*
X10205356Y-14855356D01*
X10140000Y-18320000D02*
X10240000Y-18420000D01*
X10240000Y-18320000D02*
X10140000Y-18420000D01*
X10225356Y-18405356D02*
X10225356Y-18334644D01*
X10154644Y-18334644D01*
X10154644Y-18405356D01*
X10225356Y-18405356D01*
X10250000Y-14260000D02*
X10350000Y-14360000D01*
X10350000Y-14260000D02*
X10250000Y-14360000D01*
X10335356Y-14345356D02*
X10335356Y-14274644D01*
X10264644Y-14274644D01*
X10264644Y-14345356D01*
X10335356Y-14345356D01*
X10280000Y-13130000D02*
X10380000Y-13230000D01*
X10380000Y-13130000D02*
X10280000Y-13230000D01*
X10365356Y-13215356D02*
X10365356Y-13144644D01*
X10294644Y-13144644D01*
X10294644Y-13215356D01*
X10365356Y-13215356D01*
X10420000Y-16350000D02*
X10520000Y-16450000D01*
X10520000Y-16350000D02*
X10420000Y-16450000D01*
X10505356Y-16435356D02*
X10505356Y-16364644D01*
X10434644Y-16364644D01*
X10434644Y-16435356D01*
X10505356Y-16435356D01*
X10520000Y-17050000D02*
X10620000Y-17150000D01*
X10620000Y-17050000D02*
X10520000Y-17150000D01*
X10605356Y-17135356D02*
X10605356Y-17064644D01*
X10534644Y-17064644D01*
X10534644Y-17135356D01*
X10605356Y-17135356D01*
X10600000Y-18280000D02*
X10700000Y-18380000D01*
X10700000Y-18280000D02*
X10600000Y-18380000D01*
X10685356Y-18365356D02*
X10685356Y-18294644D01*
X10614644Y-18294644D01*
X10614644Y-18365356D01*
X10685356Y-18365356D01*
X10950000Y-13960000D02*
X11050000Y-14060000D01*
X11050000Y-13960000D02*
X10950000Y-14060000D01*
X11035356Y-14045356D02*
X11035356Y-13974644D01*
X10964644Y-13974644D01*
X10964644Y-14045356D01*
X11035356Y-14045356D01*
X10980000Y-17060000D02*
X11080000Y-17160000D01*
X11080000Y-17060000D02*
X10980000Y-17160000D01*
X11065356Y-17145356D02*
X11065356Y-17074644D01*
X10994644Y-17074644D01*
X10994644Y-17145356D01*
X11065356Y-17145356D01*
X11180000Y-15560000D02*
X11280000Y-15660000D01*
X11280000Y-15560000D02*
X11180000Y-15660000D01*
X11265356Y-15645356D02*
X11265356Y-15574644D01*
X11194644Y-15574644D01*
X11194644Y-15645356D01*
X11265356Y-15645356D01*
X11610000Y-13520000D02*
X11710000Y-13620000D01*
X11710000Y-13520000D02*
X11610000Y-13620000D01*
X11695356Y-13605356D02*
X11695356Y-13534644D01*
X11624644Y-13534644D01*
X11624644Y-13605356D01*
X11695356Y-13605356D01*
X11680000Y-16560000D02*
X11780000Y-16660000D01*
X11780000Y-16560000D02*
X11680000Y-16660000D01*
X11765356Y-16645356D02*
X11765356Y-16574644D01*
X11694644Y-16574644D01*
X11694644Y-16645356D01*
X11765356Y-16645356D01*
X11800000Y-17780000D02*
X11900000Y-17880000D01*
X11900000Y-17780000D02*
X11800000Y-17880000D01*
X11885356Y-17865356D02*
X11885356Y-17794644D01*
X11814644Y-17794644D01*
X11814644Y-17865356D01*
X11885356Y-17865356D01*
X12040000Y-10710000D02*
X12140000Y-10810000D01*
X12140000Y-10710000D02*
X12040000Y-10810000D01*
X12125356Y-10795356D02*
X12125356Y-10724644D01*
X12054644Y-10724644D01*
X12054644Y-10795356D01*
X12125356Y-10795356D01*
X12150000Y-16420000D02*
X12250000Y-16520000D01*
X12250000Y-16420000D02*
X12150000Y-16520000D01*
X12235356Y-16505356D02*
X12235356Y-16434644D01*
X12164644Y-16434644D01*
X12164644Y-16505356D01*
X12235356Y-16505356D01*
X12310000Y-13020000D02*
X12410000Y-13120000D01*
X12410000Y-13020000D02*
X12310000Y-13120000D01*
X12395356Y-13105356D02*
X12395356Y-13034644D01*
X12324644Y-13034644D01*
X12324644Y-13105356D01*
X12395356Y-13105356D01*
X12340000Y-11410000D02*
X12440000Y-11510000D01*
X12440000Y-11410000D02*
X12340000Y-11510000D01*
X12425356Y-11495356D02*
X12425356Y-11424644D01*
X12354644Y-11424644D01*
X12354644Y-11495356D01*
X12425356Y-11495356D01*
X12380000Y-15060000D02*
X12480000Y-15160000D01*
X12480000Y-15060000D02*
X12380000Y-15160000D01*
X12465356Y-15145356D02*
X12465356Y-15074644D01*
X12394644Y-15074644D01*
X12394644Y-15145356D01*
X12465356Y-15145356D01*
X12650000Y-17120000D02*
X12750000Y-17220000D01*
X12750000Y-17120000D02*
X12650000Y-17220000D01*
X12735356Y-17205356D02*
X12735356Y-17134644D01*
X12664644Y-17134644D01*
X12664644Y-17205356D01*
X12735356Y-17205356D01*
X12702500Y-13256000D02*
X12802500Y-13356000D01*
X12802500Y-13256000D02*
X12702500Y-13356000D01*
X12787856Y-13341356D02*
X12787856Y-13270644D01*
X12717144Y-13270644D01*
X12717144Y-13341356D01*
X12787856Y-13341356D01*
X12702500Y-13510000D02*
X12802500Y-13610000D01*
X12802500Y-13510000D02*
X12702500Y-13610000D01*
X12787856Y-13595356D02*
X12787856Y-13524644D01*
X12717144Y-13524644D01*
X12717144Y-13595356D01*
X12787856Y-13595356D01*
X12702500Y-13764000D02*
X12802500Y-13864000D01*
X12802500Y-13764000D02*
X12702500Y-13864000D01*
X12787856Y-13849356D02*
X12787856Y-13778644D01*
X12717144Y-13778644D01*
X12717144Y-13849356D01*
X12787856Y-13849356D01*
D19*
X7151000Y-8759500D02*
X7261000Y-8869500D01*
X7261000Y-8759500D02*
X7151000Y-8869500D01*
X7206000Y-8869500D02*
X7261000Y-8814500D01*
X7206000Y-8759500D01*
X7151000Y-8814500D01*
X7206000Y-8869500D01*
X7405000Y-8759500D02*
X7515000Y-8869500D01*
X7515000Y-8759500D02*
X7405000Y-8869500D01*
X7460000Y-8869500D02*
X7515000Y-8814500D01*
X7460000Y-8759500D01*
X7405000Y-8814500D01*
X7460000Y-8869500D01*
X7659000Y-8759500D02*
X7769000Y-8869500D01*
X7769000Y-8759500D02*
X7659000Y-8869500D01*
X7714000Y-8869500D02*
X7769000Y-8814500D01*
X7714000Y-8759500D01*
X7659000Y-8814500D01*
X7714000Y-8869500D01*
X9850500Y-11821000D02*
X9960500Y-11931000D01*
X9960500Y-11821000D02*
X9850500Y-11931000D01*
X9905500Y-11931000D02*
X9960500Y-11876000D01*
X9905500Y-11821000D01*
X9850500Y-11876000D01*
X9905500Y-11931000D01*
X9850500Y-12075000D02*
X9960500Y-12185000D01*
X9960500Y-12075000D02*
X9850500Y-12185000D01*
X9905500Y-12185000D02*
X9960500Y-12130000D01*
X9905500Y-12075000D01*
X9850500Y-12130000D01*
X9905500Y-12185000D01*
X9850500Y-12329000D02*
X9960500Y-12439000D01*
X9960500Y-12329000D02*
X9850500Y-12439000D01*
X9905500Y-12439000D02*
X9960500Y-12384000D01*
X9905500Y-12329000D01*
X9850500Y-12384000D01*
X9905500Y-12439000D01*
X10911000Y-8739500D02*
X11021000Y-8849500D01*
X11021000Y-8739500D02*
X10911000Y-8849500D01*
X10966000Y-8849500D02*
X11021000Y-8794500D01*
X10966000Y-8739500D01*
X10911000Y-8794500D01*
X10966000Y-8849500D01*
X11165000Y-8739500D02*
X11275000Y-8849500D01*
X11275000Y-8739500D02*
X11165000Y-8849500D01*
X11220000Y-8849500D02*
X11275000Y-8794500D01*
X11220000Y-8739500D01*
X11165000Y-8794500D01*
X11220000Y-8849500D01*
X11419000Y-8739500D02*
X11529000Y-8849500D01*
X11529000Y-8739500D02*
X11419000Y-8849500D01*
X11474000Y-8849500D02*
X11529000Y-8794500D01*
X11474000Y-8739500D01*
X11419000Y-8794500D01*
X11474000Y-8849500D01*
X12750500Y-11621000D02*
X12860500Y-11731000D01*
X12860500Y-11621000D02*
X12750500Y-11731000D01*
X12805500Y-11731000D02*
X12860500Y-11676000D01*
X12805500Y-11621000D01*
X12750500Y-11676000D01*
X12805500Y-11731000D01*
X12750500Y-11875000D02*
X12860500Y-11985000D01*
X12860500Y-11875000D02*
X12750500Y-11985000D01*
X12805500Y-11985000D02*
X12860500Y-11930000D01*
X12805500Y-11875000D01*
X12750500Y-11930000D01*
X12805500Y-11985000D01*
X12750500Y-12129000D02*
X12860500Y-12239000D01*
X12860500Y-12129000D02*
X12750500Y-12239000D01*
X12805500Y-12239000D02*
X12860500Y-12184000D01*
X12805500Y-12129000D01*
X12750500Y-12184000D01*
X12805500Y-12239000D01*
X12750500Y-15031000D02*
X12860500Y-15141000D01*
X12860500Y-15031000D02*
X12750500Y-15141000D01*
X12805500Y-15141000D02*
X12860500Y-15086000D01*
X12805500Y-15031000D01*
X12750500Y-15086000D01*
X12805500Y-15141000D01*
X12750500Y-15285000D02*
X12860500Y-15395000D01*
X12860500Y-15285000D02*
X12750500Y-15395000D01*
X12805500Y-15395000D02*
X12860500Y-15340000D01*
X12805500Y-15285000D01*
X12750500Y-15340000D01*
X12805500Y-15395000D01*
X12750500Y-15539000D02*
X12860500Y-15649000D01*
X12860500Y-15539000D02*
X12750500Y-15649000D01*
X12805500Y-15649000D02*
X12860500Y-15594000D01*
X12805500Y-15539000D01*
X12750500Y-15594000D01*
X12805500Y-15649000D01*
D20*
X12090500Y-8823250D02*
X12090500Y-8943250D01*
X12030500Y-8883250D02*
X12150500Y-8883250D01*
X12150500Y-8883250D02*
G75*
G03*
X12150500Y-8883250I-60000J0D01*
G01*
X12598500Y-8823250D02*
X12598500Y-8943250D01*
X12538500Y-8883250D02*
X12658500Y-8883250D01*
X12658500Y-8883250D02*
G75*
G03*
X12658500Y-8883250I-60000J0D01*
G01*
D21*
X12588033Y-18163034D02*
X12588033Y-18056967D01*
X12481966Y-18056967D01*
X12481966Y-18163034D01*
X12588033Y-18163034D01*
X12610000Y-18110000D02*
G75*
G03*
X12610000Y-18110000I-75000J0D01*
G01*
D22*
X12281000Y-17941000D02*
X12366000Y-17856000D01*
X12281000Y-17771000D01*
X12196000Y-17856000D01*
X12281000Y-17941000D01*
X12366000Y-17856000D02*
G75*
G03*
X12366000Y-17856000I-85000J0D01*
G01*
X12281000Y-18449000D02*
X12366000Y-18364000D01*
X12281000Y-18279000D01*
X12196000Y-18364000D01*
X12281000Y-18449000D01*
X12366000Y-18364000D02*
G75*
G03*
X12366000Y-18364000I-85000J0D01*
G01*
X12789000Y-17941000D02*
X12874000Y-17856000D01*
X12789000Y-17771000D01*
X12704000Y-17856000D01*
X12789000Y-17941000D01*
X12874000Y-17856000D02*
G75*
G03*
X12874000Y-17856000I-85000J0D01*
G01*
X12789000Y-18449000D02*
X12874000Y-18364000D01*
X12789000Y-18279000D01*
X12704000Y-18364000D01*
X12789000Y-18449000D01*
X12874000Y-18364000D02*
G75*
G03*
X12874000Y-18364000I-85000J0D01*
G01*
D11*
X3235119Y-18912976D02*
X3235119Y-18712976D01*
X3282738Y-18712976D01*
X3311309Y-18722500D01*
X3330357Y-18741548D01*
X3339881Y-18760595D01*
X3349405Y-18798690D01*
X3349405Y-18827262D01*
X3339881Y-18865357D01*
X3330357Y-18884405D01*
X3311309Y-18903452D01*
X3282738Y-18912976D01*
X3235119Y-18912976D01*
X3435119Y-18912976D02*
X3435119Y-18779643D01*
X3435119Y-18817738D02*
X3444643Y-18798690D01*
X3454167Y-18789167D01*
X3473214Y-18779643D01*
X3492262Y-18779643D01*
X3558928Y-18912976D02*
X3558928Y-18779643D01*
X3558928Y-18712976D02*
X3549405Y-18722500D01*
X3558928Y-18732024D01*
X3568452Y-18722500D01*
X3558928Y-18712976D01*
X3558928Y-18732024D01*
X3682738Y-18912976D02*
X3663690Y-18903452D01*
X3654167Y-18884405D01*
X3654167Y-18712976D01*
X3787500Y-18912976D02*
X3768452Y-18903452D01*
X3758928Y-18884405D01*
X3758928Y-18712976D01*
X4016071Y-18912976D02*
X4016071Y-18712976D01*
X4082738Y-18855833D01*
X4149405Y-18712976D01*
X4149405Y-18912976D01*
X4330357Y-18912976D02*
X4330357Y-18808214D01*
X4320833Y-18789167D01*
X4301786Y-18779643D01*
X4263690Y-18779643D01*
X4244643Y-18789167D01*
X4330357Y-18903452D02*
X4311310Y-18912976D01*
X4263690Y-18912976D01*
X4244643Y-18903452D01*
X4235119Y-18884405D01*
X4235119Y-18865357D01*
X4244643Y-18846310D01*
X4263690Y-18836786D01*
X4311310Y-18836786D01*
X4330357Y-18827262D01*
X4425595Y-18779643D02*
X4425595Y-18979643D01*
X4425595Y-18789167D02*
X4444643Y-18779643D01*
X4482738Y-18779643D01*
X4501786Y-18789167D01*
X4511310Y-18798690D01*
X4520833Y-18817738D01*
X4520833Y-18874881D01*
X4511310Y-18893929D01*
X4501786Y-18903452D01*
X4482738Y-18912976D01*
X4444643Y-18912976D01*
X4425595Y-18903452D01*
X4606548Y-18893929D02*
X4616071Y-18903452D01*
X4606548Y-18912976D01*
X4597024Y-18903452D01*
X4606548Y-18893929D01*
X4606548Y-18912976D01*
X4606548Y-18789167D02*
X4616071Y-18798690D01*
X4606548Y-18808214D01*
X4597024Y-18798690D01*
X4606548Y-18789167D01*
X4606548Y-18808214D01*
D12*
X2957500Y-19232500D02*
X2977500Y-19252500D01*
X2977500Y-19232500D02*
X2957500Y-19252500D01*
D11*
X3273214Y-19132976D02*
X3292262Y-19132976D01*
X3311309Y-19142500D01*
X3320833Y-19152024D01*
X3330357Y-19171071D01*
X3339881Y-19209167D01*
X3339881Y-19256786D01*
X3330357Y-19294881D01*
X3320833Y-19313929D01*
X3311309Y-19323452D01*
X3292262Y-19332976D01*
X3273214Y-19332976D01*
X3254167Y-19323452D01*
X3244643Y-19313929D01*
X3235119Y-19294881D01*
X3225595Y-19256786D01*
X3225595Y-19209167D01*
X3235119Y-19171071D01*
X3244643Y-19152024D01*
X3254167Y-19142500D01*
X3273214Y-19132976D01*
X3425595Y-19313929D02*
X3435119Y-19323452D01*
X3425595Y-19332976D01*
X3416071Y-19323452D01*
X3425595Y-19313929D01*
X3425595Y-19332976D01*
X3511309Y-19152024D02*
X3520833Y-19142500D01*
X3539881Y-19132976D01*
X3587500Y-19132976D01*
X3606548Y-19142500D01*
X3616071Y-19152024D01*
X3625595Y-19171071D01*
X3625595Y-19190119D01*
X3616071Y-19218690D01*
X3501786Y-19332976D01*
X3625595Y-19332976D01*
X3749405Y-19132976D02*
X3768452Y-19132976D01*
X3787500Y-19142500D01*
X3797024Y-19152024D01*
X3806548Y-19171071D01*
X3816071Y-19209167D01*
X3816071Y-19256786D01*
X3806548Y-19294881D01*
X3797024Y-19313929D01*
X3787500Y-19323452D01*
X3768452Y-19332976D01*
X3749405Y-19332976D01*
X3730357Y-19323452D01*
X3720833Y-19313929D01*
X3711309Y-19294881D01*
X3701786Y-19256786D01*
X3701786Y-19209167D01*
X3711309Y-19171071D01*
X3720833Y-19152024D01*
X3730357Y-19142500D01*
X3749405Y-19132976D01*
X3939881Y-19132976D02*
X3958928Y-19132976D01*
X3977976Y-19142500D01*
X3987500Y-19152024D01*
X3997024Y-19171071D01*
X4006548Y-19209167D01*
X4006548Y-19256786D01*
X3997024Y-19294881D01*
X3987500Y-19313929D01*
X3977976Y-19323452D01*
X3958928Y-19332976D01*
X3939881Y-19332976D01*
X3920833Y-19323452D01*
X3911309Y-19313929D01*
X3901786Y-19294881D01*
X3892262Y-19256786D01*
X3892262Y-19209167D01*
X3901786Y-19171071D01*
X3911309Y-19152024D01*
X3920833Y-19142500D01*
X3939881Y-19132976D01*
X4092262Y-19332976D02*
X4092262Y-19199643D01*
X4092262Y-19218690D02*
X4101786Y-19209167D01*
X4120833Y-19199643D01*
X4149405Y-19199643D01*
X4168452Y-19209167D01*
X4177976Y-19228214D01*
X4177976Y-19332976D01*
X4177976Y-19228214D02*
X4187500Y-19209167D01*
X4206548Y-19199643D01*
X4235119Y-19199643D01*
X4254167Y-19209167D01*
X4263690Y-19228214D01*
X4263690Y-19332976D01*
X4358929Y-19332976D02*
X4358929Y-19199643D01*
X4358929Y-19218690D02*
X4368452Y-19209167D01*
X4387500Y-19199643D01*
X4416071Y-19199643D01*
X4435119Y-19209167D01*
X4444643Y-19228214D01*
X4444643Y-19332976D01*
X4444643Y-19228214D02*
X4454167Y-19209167D01*
X4473214Y-19199643D01*
X4501786Y-19199643D01*
X4520833Y-19209167D01*
X4530357Y-19228214D01*
X4530357Y-19332976D01*
X4920833Y-19123452D02*
X4749405Y-19380595D01*
X5177976Y-19132976D02*
X5197024Y-19132976D01*
X5216071Y-19142500D01*
X5225595Y-19152024D01*
X5235119Y-19171071D01*
X5244643Y-19209167D01*
X5244643Y-19256786D01*
X5235119Y-19294881D01*
X5225595Y-19313929D01*
X5216071Y-19323452D01*
X5197024Y-19332976D01*
X5177976Y-19332976D01*
X5158929Y-19323452D01*
X5149405Y-19313929D01*
X5139881Y-19294881D01*
X5130357Y-19256786D01*
X5130357Y-19209167D01*
X5139881Y-19171071D01*
X5149405Y-19152024D01*
X5158929Y-19142500D01*
X5177976Y-19132976D01*
X5330357Y-19313929D02*
X5339881Y-19323452D01*
X5330357Y-19332976D01*
X5320833Y-19323452D01*
X5330357Y-19313929D01*
X5330357Y-19332976D01*
X5463690Y-19132976D02*
X5482738Y-19132976D01*
X5501786Y-19142500D01*
X5511310Y-19152024D01*
X5520833Y-19171071D01*
X5530357Y-19209167D01*
X5530357Y-19256786D01*
X5520833Y-19294881D01*
X5511310Y-19313929D01*
X5501786Y-19323452D01*
X5482738Y-19332976D01*
X5463690Y-19332976D01*
X5444643Y-19323452D01*
X5435119Y-19313929D01*
X5425595Y-19294881D01*
X5416071Y-19256786D01*
X5416071Y-19209167D01*
X5425595Y-19171071D01*
X5435119Y-19152024D01*
X5444643Y-19142500D01*
X5463690Y-19132976D01*
X5654167Y-19132976D02*
X5673214Y-19132976D01*
X5692262Y-19142500D01*
X5701786Y-19152024D01*
X5711309Y-19171071D01*
X5720833Y-19209167D01*
X5720833Y-19256786D01*
X5711309Y-19294881D01*
X5701786Y-19313929D01*
X5692262Y-19323452D01*
X5673214Y-19332976D01*
X5654167Y-19332976D01*
X5635119Y-19323452D01*
X5625595Y-19313929D01*
X5616071Y-19294881D01*
X5606548Y-19256786D01*
X5606548Y-19209167D01*
X5616071Y-19171071D01*
X5625595Y-19152024D01*
X5635119Y-19142500D01*
X5654167Y-19132976D01*
X5787500Y-19132976D02*
X5920833Y-19132976D01*
X5835119Y-19332976D01*
X6006548Y-19332976D02*
X6044643Y-19332976D01*
X6063690Y-19323452D01*
X6073214Y-19313929D01*
X6092262Y-19285357D01*
X6101786Y-19247262D01*
X6101786Y-19171071D01*
X6092262Y-19152024D01*
X6082738Y-19142500D01*
X6063690Y-19132976D01*
X6025595Y-19132976D01*
X6006548Y-19142500D01*
X5997024Y-19152024D01*
X5987500Y-19171071D01*
X5987500Y-19218690D01*
X5997024Y-19237738D01*
X6006548Y-19247262D01*
X6025595Y-19256786D01*
X6063690Y-19256786D01*
X6082738Y-19247262D01*
X6092262Y-19237738D01*
X6101786Y-19218690D01*
X6177976Y-19132976D02*
X6177976Y-19171071D01*
X6254167Y-19132976D02*
X6254167Y-19171071D01*
X6549405Y-19409167D02*
X6539881Y-19399643D01*
X6520833Y-19371071D01*
X6511309Y-19352024D01*
X6501786Y-19323452D01*
X6492262Y-19275833D01*
X6492262Y-19237738D01*
X6501786Y-19190119D01*
X6511309Y-19161548D01*
X6520833Y-19142500D01*
X6539881Y-19113929D01*
X6549405Y-19104405D01*
X6730357Y-19332976D02*
X6616071Y-19332976D01*
X6673214Y-19332976D02*
X6673214Y-19132976D01*
X6654167Y-19161548D01*
X6635119Y-19180595D01*
X6616071Y-19190119D01*
X6806548Y-19152024D02*
X6816071Y-19142500D01*
X6835119Y-19132976D01*
X6882738Y-19132976D01*
X6901786Y-19142500D01*
X6911309Y-19152024D01*
X6920833Y-19171071D01*
X6920833Y-19190119D01*
X6911309Y-19218690D01*
X6797024Y-19332976D01*
X6920833Y-19332976D01*
X7158928Y-19332976D02*
X7158928Y-19132976D01*
X7244643Y-19332976D02*
X7244643Y-19228214D01*
X7235119Y-19209167D01*
X7216071Y-19199643D01*
X7187500Y-19199643D01*
X7168452Y-19209167D01*
X7158928Y-19218690D01*
X7368452Y-19332976D02*
X7349405Y-19323452D01*
X7339881Y-19313929D01*
X7330357Y-19294881D01*
X7330357Y-19237738D01*
X7339881Y-19218690D01*
X7349405Y-19209167D01*
X7368452Y-19199643D01*
X7397024Y-19199643D01*
X7416071Y-19209167D01*
X7425595Y-19218690D01*
X7435119Y-19237738D01*
X7435119Y-19294881D01*
X7425595Y-19313929D01*
X7416071Y-19323452D01*
X7397024Y-19332976D01*
X7368452Y-19332976D01*
X7549405Y-19332976D02*
X7530357Y-19323452D01*
X7520833Y-19304405D01*
X7520833Y-19132976D01*
X7701786Y-19323452D02*
X7682738Y-19332976D01*
X7644643Y-19332976D01*
X7625595Y-19323452D01*
X7616071Y-19304405D01*
X7616071Y-19228214D01*
X7625595Y-19209167D01*
X7644643Y-19199643D01*
X7682738Y-19199643D01*
X7701786Y-19209167D01*
X7711309Y-19228214D01*
X7711309Y-19247262D01*
X7616071Y-19266310D01*
X7787500Y-19323452D02*
X7806548Y-19332976D01*
X7844643Y-19332976D01*
X7863690Y-19323452D01*
X7873214Y-19304405D01*
X7873214Y-19294881D01*
X7863690Y-19275833D01*
X7844643Y-19266310D01*
X7816071Y-19266310D01*
X7797024Y-19256786D01*
X7787500Y-19237738D01*
X7787500Y-19228214D01*
X7797024Y-19209167D01*
X7816071Y-19199643D01*
X7844643Y-19199643D01*
X7863690Y-19209167D01*
X7939881Y-19409167D02*
X7949405Y-19399643D01*
X7968452Y-19371071D01*
X7977976Y-19352024D01*
X7987500Y-19323452D01*
X7997024Y-19275833D01*
X7997024Y-19237738D01*
X7987500Y-19190119D01*
X7977976Y-19161548D01*
X7968452Y-19142500D01*
X7949405Y-19113929D01*
X7939881Y-19104405D01*
D13*
X2977500Y-19506500D02*
G75*
G03*
X2977500Y-19506500I-12500J0D01*
G01*
D11*
X3273214Y-19396976D02*
X3292262Y-19396976D01*
X3311309Y-19406500D01*
X3320833Y-19416024D01*
X3330357Y-19435071D01*
X3339881Y-19473167D01*
X3339881Y-19520786D01*
X3330357Y-19558881D01*
X3320833Y-19577929D01*
X3311309Y-19587452D01*
X3292262Y-19596976D01*
X3273214Y-19596976D01*
X3254167Y-19587452D01*
X3244643Y-19577929D01*
X3235119Y-19558881D01*
X3225595Y-19520786D01*
X3225595Y-19473167D01*
X3235119Y-19435071D01*
X3244643Y-19416024D01*
X3254167Y-19406500D01*
X3273214Y-19396976D01*
X3425595Y-19577929D02*
X3435119Y-19587452D01*
X3425595Y-19596976D01*
X3416071Y-19587452D01*
X3425595Y-19577929D01*
X3425595Y-19596976D01*
X3511309Y-19416024D02*
X3520833Y-19406500D01*
X3539881Y-19396976D01*
X3587500Y-19396976D01*
X3606548Y-19406500D01*
X3616071Y-19416024D01*
X3625595Y-19435071D01*
X3625595Y-19454119D01*
X3616071Y-19482690D01*
X3501786Y-19596976D01*
X3625595Y-19596976D01*
X3806548Y-19396976D02*
X3711309Y-19396976D01*
X3701786Y-19492214D01*
X3711309Y-19482690D01*
X3730357Y-19473167D01*
X3777976Y-19473167D01*
X3797024Y-19482690D01*
X3806548Y-19492214D01*
X3816071Y-19511262D01*
X3816071Y-19558881D01*
X3806548Y-19577929D01*
X3797024Y-19587452D01*
X3777976Y-19596976D01*
X3730357Y-19596976D01*
X3711309Y-19587452D01*
X3701786Y-19577929D01*
X3939881Y-19396976D02*
X3958928Y-19396976D01*
X3977976Y-19406500D01*
X3987500Y-19416024D01*
X3997024Y-19435071D01*
X4006548Y-19473167D01*
X4006548Y-19520786D01*
X3997024Y-19558881D01*
X3987500Y-19577929D01*
X3977976Y-19587452D01*
X3958928Y-19596976D01*
X3939881Y-19596976D01*
X3920833Y-19587452D01*
X3911309Y-19577929D01*
X3901786Y-19558881D01*
X3892262Y-19520786D01*
X3892262Y-19473167D01*
X3901786Y-19435071D01*
X3911309Y-19416024D01*
X3920833Y-19406500D01*
X3939881Y-19396976D01*
X4092262Y-19596976D02*
X4092262Y-19463643D01*
X4092262Y-19482690D02*
X4101786Y-19473167D01*
X4120833Y-19463643D01*
X4149405Y-19463643D01*
X4168452Y-19473167D01*
X4177976Y-19492214D01*
X4177976Y-19596976D01*
X4177976Y-19492214D02*
X4187500Y-19473167D01*
X4206548Y-19463643D01*
X4235119Y-19463643D01*
X4254167Y-19473167D01*
X4263690Y-19492214D01*
X4263690Y-19596976D01*
X4358929Y-19596976D02*
X4358929Y-19463643D01*
X4358929Y-19482690D02*
X4368452Y-19473167D01*
X4387500Y-19463643D01*
X4416071Y-19463643D01*
X4435119Y-19473167D01*
X4444643Y-19492214D01*
X4444643Y-19596976D01*
X4444643Y-19492214D02*
X4454167Y-19473167D01*
X4473214Y-19463643D01*
X4501786Y-19463643D01*
X4520833Y-19473167D01*
X4530357Y-19492214D01*
X4530357Y-19596976D01*
X4920833Y-19387452D02*
X4749405Y-19644595D01*
X5177976Y-19396976D02*
X5197024Y-19396976D01*
X5216071Y-19406500D01*
X5225595Y-19416024D01*
X5235119Y-19435071D01*
X5244643Y-19473167D01*
X5244643Y-19520786D01*
X5235119Y-19558881D01*
X5225595Y-19577929D01*
X5216071Y-19587452D01*
X5197024Y-19596976D01*
X5177976Y-19596976D01*
X5158929Y-19587452D01*
X5149405Y-19577929D01*
X5139881Y-19558881D01*
X5130357Y-19520786D01*
X5130357Y-19473167D01*
X5139881Y-19435071D01*
X5149405Y-19416024D01*
X5158929Y-19406500D01*
X5177976Y-19396976D01*
X5330357Y-19577929D02*
X5339881Y-19587452D01*
X5330357Y-19596976D01*
X5320833Y-19587452D01*
X5330357Y-19577929D01*
X5330357Y-19596976D01*
X5463690Y-19396976D02*
X5482738Y-19396976D01*
X5501786Y-19406500D01*
X5511310Y-19416024D01*
X5520833Y-19435071D01*
X5530357Y-19473167D01*
X5530357Y-19520786D01*
X5520833Y-19558881D01*
X5511310Y-19577929D01*
X5501786Y-19587452D01*
X5482738Y-19596976D01*
X5463690Y-19596976D01*
X5444643Y-19587452D01*
X5435119Y-19577929D01*
X5425595Y-19558881D01*
X5416071Y-19520786D01*
X5416071Y-19473167D01*
X5425595Y-19435071D01*
X5435119Y-19416024D01*
X5444643Y-19406500D01*
X5463690Y-19396976D01*
X5654167Y-19396976D02*
X5673214Y-19396976D01*
X5692262Y-19406500D01*
X5701786Y-19416024D01*
X5711309Y-19435071D01*
X5720833Y-19473167D01*
X5720833Y-19520786D01*
X5711309Y-19558881D01*
X5701786Y-19577929D01*
X5692262Y-19587452D01*
X5673214Y-19596976D01*
X5654167Y-19596976D01*
X5635119Y-19587452D01*
X5625595Y-19577929D01*
X5616071Y-19558881D01*
X5606548Y-19520786D01*
X5606548Y-19473167D01*
X5616071Y-19435071D01*
X5625595Y-19416024D01*
X5635119Y-19406500D01*
X5654167Y-19396976D01*
X5816071Y-19596976D02*
X5854167Y-19596976D01*
X5873214Y-19587452D01*
X5882738Y-19577929D01*
X5901786Y-19549357D01*
X5911309Y-19511262D01*
X5911309Y-19435071D01*
X5901786Y-19416024D01*
X5892262Y-19406500D01*
X5873214Y-19396976D01*
X5835119Y-19396976D01*
X5816071Y-19406500D01*
X5806548Y-19416024D01*
X5797024Y-19435071D01*
X5797024Y-19482690D01*
X5806548Y-19501738D01*
X5816071Y-19511262D01*
X5835119Y-19520786D01*
X5873214Y-19520786D01*
X5892262Y-19511262D01*
X5901786Y-19501738D01*
X5911309Y-19482690D01*
X6025595Y-19482690D02*
X6006548Y-19473167D01*
X5997024Y-19463643D01*
X5987500Y-19444595D01*
X5987500Y-19435071D01*
X5997024Y-19416024D01*
X6006548Y-19406500D01*
X6025595Y-19396976D01*
X6063690Y-19396976D01*
X6082738Y-19406500D01*
X6092262Y-19416024D01*
X6101786Y-19435071D01*
X6101786Y-19444595D01*
X6092262Y-19463643D01*
X6082738Y-19473167D01*
X6063690Y-19482690D01*
X6025595Y-19482690D01*
X6006548Y-19492214D01*
X5997024Y-19501738D01*
X5987500Y-19520786D01*
X5987500Y-19558881D01*
X5997024Y-19577929D01*
X6006548Y-19587452D01*
X6025595Y-19596976D01*
X6063690Y-19596976D01*
X6082738Y-19587452D01*
X6092262Y-19577929D01*
X6101786Y-19558881D01*
X6101786Y-19520786D01*
X6092262Y-19501738D01*
X6082738Y-19492214D01*
X6063690Y-19482690D01*
X6177976Y-19396976D02*
X6177976Y-19435071D01*
X6254167Y-19396976D02*
X6254167Y-19435071D01*
X6549405Y-19673167D02*
X6539881Y-19663643D01*
X6520833Y-19635071D01*
X6511309Y-19616024D01*
X6501786Y-19587452D01*
X6492262Y-19539833D01*
X6492262Y-19501738D01*
X6501786Y-19454119D01*
X6511309Y-19425548D01*
X6520833Y-19406500D01*
X6539881Y-19377929D01*
X6549405Y-19368405D01*
X6711309Y-19396976D02*
X6673214Y-19396976D01*
X6654167Y-19406500D01*
X6644643Y-19416024D01*
X6625595Y-19444595D01*
X6616071Y-19482690D01*
X6616071Y-19558881D01*
X6625595Y-19577929D01*
X6635119Y-19587452D01*
X6654167Y-19596976D01*
X6692262Y-19596976D01*
X6711309Y-19587452D01*
X6720833Y-19577929D01*
X6730357Y-19558881D01*
X6730357Y-19511262D01*
X6720833Y-19492214D01*
X6711309Y-19482690D01*
X6692262Y-19473167D01*
X6654167Y-19473167D01*
X6635119Y-19482690D01*
X6625595Y-19492214D01*
X6616071Y-19511262D01*
X6854167Y-19396976D02*
X6873214Y-19396976D01*
X6892262Y-19406500D01*
X6901786Y-19416024D01*
X6911309Y-19435071D01*
X6920833Y-19473167D01*
X6920833Y-19520786D01*
X6911309Y-19558881D01*
X6901786Y-19577929D01*
X6892262Y-19587452D01*
X6873214Y-19596976D01*
X6854167Y-19596976D01*
X6835119Y-19587452D01*
X6825595Y-19577929D01*
X6816071Y-19558881D01*
X6806548Y-19520786D01*
X6806548Y-19473167D01*
X6816071Y-19435071D01*
X6825595Y-19416024D01*
X6835119Y-19406500D01*
X6854167Y-19396976D01*
X7158928Y-19596976D02*
X7158928Y-19396976D01*
X7244643Y-19596976D02*
X7244643Y-19492214D01*
X7235119Y-19473167D01*
X7216071Y-19463643D01*
X7187500Y-19463643D01*
X7168452Y-19473167D01*
X7158928Y-19482690D01*
X7368452Y-19596976D02*
X7349405Y-19587452D01*
X7339881Y-19577929D01*
X7330357Y-19558881D01*
X7330357Y-19501738D01*
X7339881Y-19482690D01*
X7349405Y-19473167D01*
X7368452Y-19463643D01*
X7397024Y-19463643D01*
X7416071Y-19473167D01*
X7425595Y-19482690D01*
X7435119Y-19501738D01*
X7435119Y-19558881D01*
X7425595Y-19577929D01*
X7416071Y-19587452D01*
X7397024Y-19596976D01*
X7368452Y-19596976D01*
X7549405Y-19596976D02*
X7530357Y-19587452D01*
X7520833Y-19568405D01*
X7520833Y-19396976D01*
X7701786Y-19587452D02*
X7682738Y-19596976D01*
X7644643Y-19596976D01*
X7625595Y-19587452D01*
X7616071Y-19568405D01*
X7616071Y-19492214D01*
X7625595Y-19473167D01*
X7644643Y-19463643D01*
X7682738Y-19463643D01*
X7701786Y-19473167D01*
X7711309Y-19492214D01*
X7711309Y-19511262D01*
X7616071Y-19530310D01*
X7787500Y-19587452D02*
X7806548Y-19596976D01*
X7844643Y-19596976D01*
X7863690Y-19587452D01*
X7873214Y-19568405D01*
X7873214Y-19558881D01*
X7863690Y-19539833D01*
X7844643Y-19530310D01*
X7816071Y-19530310D01*
X7797024Y-19520786D01*
X7787500Y-19501738D01*
X7787500Y-19492214D01*
X7797024Y-19473167D01*
X7816071Y-19463643D01*
X7844643Y-19463643D01*
X7863690Y-19473167D01*
X7939881Y-19673167D02*
X7949405Y-19663643D01*
X7968452Y-19635071D01*
X7977976Y-19616024D01*
X7987500Y-19587452D01*
X7997024Y-19539833D01*
X7997024Y-19501738D01*
X7987500Y-19454119D01*
X7977976Y-19425548D01*
X7968452Y-19406500D01*
X7949405Y-19377929D01*
X7939881Y-19368405D01*
D14*
X2957500Y-19750500D02*
X2957500Y-19790500D01*
X2937500Y-19770500D02*
X2977500Y-19770500D01*
D11*
X3273214Y-19660976D02*
X3292262Y-19660976D01*
X3311309Y-19670500D01*
X3320833Y-19680024D01*
X3330357Y-19699071D01*
X3339881Y-19737167D01*
X3339881Y-19784786D01*
X3330357Y-19822881D01*
X3320833Y-19841929D01*
X3311309Y-19851452D01*
X3292262Y-19860976D01*
X3273214Y-19860976D01*
X3254167Y-19851452D01*
X3244643Y-19841929D01*
X3235119Y-19822881D01*
X3225595Y-19784786D01*
X3225595Y-19737167D01*
X3235119Y-19699071D01*
X3244643Y-19680024D01*
X3254167Y-19670500D01*
X3273214Y-19660976D01*
X3425595Y-19841929D02*
X3435119Y-19851452D01*
X3425595Y-19860976D01*
X3416071Y-19851452D01*
X3425595Y-19841929D01*
X3425595Y-19860976D01*
X3606548Y-19727643D02*
X3606548Y-19860976D01*
X3558928Y-19651452D02*
X3511309Y-19794310D01*
X3635119Y-19794310D01*
X3749405Y-19660976D02*
X3768452Y-19660976D01*
X3787500Y-19670500D01*
X3797024Y-19680024D01*
X3806548Y-19699071D01*
X3816071Y-19737167D01*
X3816071Y-19784786D01*
X3806548Y-19822881D01*
X3797024Y-19841929D01*
X3787500Y-19851452D01*
X3768452Y-19860976D01*
X3749405Y-19860976D01*
X3730357Y-19851452D01*
X3720833Y-19841929D01*
X3711309Y-19822881D01*
X3701786Y-19784786D01*
X3701786Y-19737167D01*
X3711309Y-19699071D01*
X3720833Y-19680024D01*
X3730357Y-19670500D01*
X3749405Y-19660976D01*
X3939881Y-19660976D02*
X3958928Y-19660976D01*
X3977976Y-19670500D01*
X3987500Y-19680024D01*
X3997024Y-19699071D01*
X4006548Y-19737167D01*
X4006548Y-19784786D01*
X3997024Y-19822881D01*
X3987500Y-19841929D01*
X3977976Y-19851452D01*
X3958928Y-19860976D01*
X3939881Y-19860976D01*
X3920833Y-19851452D01*
X3911309Y-19841929D01*
X3901786Y-19822881D01*
X3892262Y-19784786D01*
X3892262Y-19737167D01*
X3901786Y-19699071D01*
X3911309Y-19680024D01*
X3920833Y-19670500D01*
X3939881Y-19660976D01*
X4092262Y-19860976D02*
X4092262Y-19727643D01*
X4092262Y-19746690D02*
X4101786Y-19737167D01*
X4120833Y-19727643D01*
X4149405Y-19727643D01*
X4168452Y-19737167D01*
X4177976Y-19756214D01*
X4177976Y-19860976D01*
X4177976Y-19756214D02*
X4187500Y-19737167D01*
X4206548Y-19727643D01*
X4235119Y-19727643D01*
X4254167Y-19737167D01*
X4263690Y-19756214D01*
X4263690Y-19860976D01*
X4358929Y-19860976D02*
X4358929Y-19727643D01*
X4358929Y-19746690D02*
X4368452Y-19737167D01*
X4387500Y-19727643D01*
X4416071Y-19727643D01*
X4435119Y-19737167D01*
X4444643Y-19756214D01*
X4444643Y-19860976D01*
X4444643Y-19756214D02*
X4454167Y-19737167D01*
X4473214Y-19727643D01*
X4501786Y-19727643D01*
X4520833Y-19737167D01*
X4530357Y-19756214D01*
X4530357Y-19860976D01*
X4920833Y-19651452D02*
X4749405Y-19908595D01*
X5177976Y-19660976D02*
X5197024Y-19660976D01*
X5216071Y-19670500D01*
X5225595Y-19680024D01*
X5235119Y-19699071D01*
X5244643Y-19737167D01*
X5244643Y-19784786D01*
X5235119Y-19822881D01*
X5225595Y-19841929D01*
X5216071Y-19851452D01*
X5197024Y-19860976D01*
X5177976Y-19860976D01*
X5158929Y-19851452D01*
X5149405Y-19841929D01*
X5139881Y-19822881D01*
X5130357Y-19784786D01*
X5130357Y-19737167D01*
X5139881Y-19699071D01*
X5149405Y-19680024D01*
X5158929Y-19670500D01*
X5177976Y-19660976D01*
X5330357Y-19841929D02*
X5339881Y-19851452D01*
X5330357Y-19860976D01*
X5320833Y-19851452D01*
X5330357Y-19841929D01*
X5330357Y-19860976D01*
X5463690Y-19660976D02*
X5482738Y-19660976D01*
X5501786Y-19670500D01*
X5511310Y-19680024D01*
X5520833Y-19699071D01*
X5530357Y-19737167D01*
X5530357Y-19784786D01*
X5520833Y-19822881D01*
X5511310Y-19841929D01*
X5501786Y-19851452D01*
X5482738Y-19860976D01*
X5463690Y-19860976D01*
X5444643Y-19851452D01*
X5435119Y-19841929D01*
X5425595Y-19822881D01*
X5416071Y-19784786D01*
X5416071Y-19737167D01*
X5425595Y-19699071D01*
X5435119Y-19680024D01*
X5444643Y-19670500D01*
X5463690Y-19660976D01*
X5720833Y-19860976D02*
X5606548Y-19860976D01*
X5663690Y-19860976D02*
X5663690Y-19660976D01*
X5644643Y-19689548D01*
X5625595Y-19708595D01*
X5606548Y-19718119D01*
X5901786Y-19660976D02*
X5806548Y-19660976D01*
X5797024Y-19756214D01*
X5806548Y-19746690D01*
X5825595Y-19737167D01*
X5873214Y-19737167D01*
X5892262Y-19746690D01*
X5901786Y-19756214D01*
X5911309Y-19775262D01*
X5911309Y-19822881D01*
X5901786Y-19841929D01*
X5892262Y-19851452D01*
X5873214Y-19860976D01*
X5825595Y-19860976D01*
X5806548Y-19851452D01*
X5797024Y-19841929D01*
X5977976Y-19660976D02*
X6111309Y-19660976D01*
X6025595Y-19860976D01*
X6177976Y-19660976D02*
X6177976Y-19699071D01*
X6254167Y-19660976D02*
X6254167Y-19699071D01*
X6549405Y-19937167D02*
X6539881Y-19927643D01*
X6520833Y-19899071D01*
X6511309Y-19880024D01*
X6501786Y-19851452D01*
X6492262Y-19803833D01*
X6492262Y-19765738D01*
X6501786Y-19718119D01*
X6511309Y-19689548D01*
X6520833Y-19670500D01*
X6539881Y-19641929D01*
X6549405Y-19632405D01*
X6663690Y-19660976D02*
X6682738Y-19660976D01*
X6701786Y-19670500D01*
X6711309Y-19680024D01*
X6720833Y-19699071D01*
X6730357Y-19737167D01*
X6730357Y-19784786D01*
X6720833Y-19822881D01*
X6711309Y-19841929D01*
X6701786Y-19851452D01*
X6682738Y-19860976D01*
X6663690Y-19860976D01*
X6644643Y-19851452D01*
X6635119Y-19841929D01*
X6625595Y-19822881D01*
X6616071Y-19784786D01*
X6616071Y-19737167D01*
X6625595Y-19699071D01*
X6635119Y-19680024D01*
X6644643Y-19670500D01*
X6663690Y-19660976D01*
X6968452Y-19860976D02*
X6968452Y-19660976D01*
X7054167Y-19860976D02*
X7054167Y-19756214D01*
X7044643Y-19737167D01*
X7025595Y-19727643D01*
X6997024Y-19727643D01*
X6977976Y-19737167D01*
X6968452Y-19746690D01*
X7177976Y-19860976D02*
X7158928Y-19851452D01*
X7149405Y-19841929D01*
X7139881Y-19822881D01*
X7139881Y-19765738D01*
X7149405Y-19746690D01*
X7158928Y-19737167D01*
X7177976Y-19727643D01*
X7206548Y-19727643D01*
X7225595Y-19737167D01*
X7235119Y-19746690D01*
X7244643Y-19765738D01*
X7244643Y-19822881D01*
X7235119Y-19841929D01*
X7225595Y-19851452D01*
X7206548Y-19860976D01*
X7177976Y-19860976D01*
X7358928Y-19860976D02*
X7339881Y-19851452D01*
X7330357Y-19832405D01*
X7330357Y-19660976D01*
X7511309Y-19851452D02*
X7492262Y-19860976D01*
X7454167Y-19860976D01*
X7435119Y-19851452D01*
X7425595Y-19832405D01*
X7425595Y-19756214D01*
X7435119Y-19737167D01*
X7454167Y-19727643D01*
X7492262Y-19727643D01*
X7511309Y-19737167D01*
X7520833Y-19756214D01*
X7520833Y-19775262D01*
X7425595Y-19794310D01*
X7597024Y-19851452D02*
X7616071Y-19860976D01*
X7654167Y-19860976D01*
X7673214Y-19851452D01*
X7682738Y-19832405D01*
X7682738Y-19822881D01*
X7673214Y-19803833D01*
X7654167Y-19794310D01*
X7625595Y-19794310D01*
X7606548Y-19784786D01*
X7597024Y-19765738D01*
X7597024Y-19756214D01*
X7606548Y-19737167D01*
X7625595Y-19727643D01*
X7654167Y-19727643D01*
X7673214Y-19737167D01*
X7920833Y-19784786D02*
X8073214Y-19784786D01*
X7997024Y-19860976D02*
X7997024Y-19708595D01*
X8406548Y-19660976D02*
X8368452Y-19660976D01*
X8349405Y-19670500D01*
X8339881Y-19680024D01*
X8320833Y-19708595D01*
X8311309Y-19746690D01*
X8311309Y-19822881D01*
X8320833Y-19841929D01*
X8330357Y-19851452D01*
X8349405Y-19860976D01*
X8387500Y-19860976D01*
X8406548Y-19851452D01*
X8416071Y-19841929D01*
X8425595Y-19822881D01*
X8425595Y-19775262D01*
X8416071Y-19756214D01*
X8406548Y-19746690D01*
X8387500Y-19737167D01*
X8349405Y-19737167D01*
X8330357Y-19746690D01*
X8320833Y-19756214D01*
X8311309Y-19775262D01*
X8654167Y-19851452D02*
X8673214Y-19860976D01*
X8711310Y-19860976D01*
X8730357Y-19851452D01*
X8739881Y-19832405D01*
X8739881Y-19822881D01*
X8730357Y-19803833D01*
X8711310Y-19794310D01*
X8682738Y-19794310D01*
X8663690Y-19784786D01*
X8654167Y-19765738D01*
X8654167Y-19756214D01*
X8663690Y-19737167D01*
X8682738Y-19727643D01*
X8711310Y-19727643D01*
X8730357Y-19737167D01*
X8854167Y-19860976D02*
X8835119Y-19851452D01*
X8825595Y-19832405D01*
X8825595Y-19660976D01*
X8958929Y-19860976D02*
X8939881Y-19851452D01*
X8930357Y-19841929D01*
X8920833Y-19822881D01*
X8920833Y-19765738D01*
X8930357Y-19746690D01*
X8939881Y-19737167D01*
X8958929Y-19727643D01*
X8987500Y-19727643D01*
X9006548Y-19737167D01*
X9016071Y-19746690D01*
X9025595Y-19765738D01*
X9025595Y-19822881D01*
X9016071Y-19841929D01*
X9006548Y-19851452D01*
X8987500Y-19860976D01*
X8958929Y-19860976D01*
X9082738Y-19727643D02*
X9158929Y-19727643D01*
X9111310Y-19660976D02*
X9111310Y-19832405D01*
X9120833Y-19851452D01*
X9139881Y-19860976D01*
X9158929Y-19860976D01*
X9216071Y-19851452D02*
X9235119Y-19860976D01*
X9273214Y-19860976D01*
X9292262Y-19851452D01*
X9301786Y-19832405D01*
X9301786Y-19822881D01*
X9292262Y-19803833D01*
X9273214Y-19794310D01*
X9244643Y-19794310D01*
X9225595Y-19784786D01*
X9216071Y-19765738D01*
X9216071Y-19756214D01*
X9225595Y-19737167D01*
X9244643Y-19727643D01*
X9273214Y-19727643D01*
X9292262Y-19737167D01*
X9368452Y-19937167D02*
X9377976Y-19927643D01*
X9397024Y-19899071D01*
X9406548Y-19880024D01*
X9416071Y-19851452D01*
X9425595Y-19803833D01*
X9425595Y-19765738D01*
X9416071Y-19718119D01*
X9406548Y-19689548D01*
X9397024Y-19670500D01*
X9377976Y-19641929D01*
X9368452Y-19632405D01*
D10*
X2970178Y-20052178D02*
X2970178Y-20016822D01*
X2934822Y-20016822D01*
X2934822Y-20052178D01*
X2970178Y-20052178D01*
D11*
X3273214Y-19924976D02*
X3292262Y-19924976D01*
X3311309Y-19934500D01*
X3320833Y-19944024D01*
X3330357Y-19963071D01*
X3339881Y-20001167D01*
X3339881Y-20048786D01*
X3330357Y-20086881D01*
X3320833Y-20105929D01*
X3311309Y-20115452D01*
X3292262Y-20124976D01*
X3273214Y-20124976D01*
X3254167Y-20115452D01*
X3244643Y-20105929D01*
X3235119Y-20086881D01*
X3225595Y-20048786D01*
X3225595Y-20001167D01*
X3235119Y-19963071D01*
X3244643Y-19944024D01*
X3254167Y-19934500D01*
X3273214Y-19924976D01*
X3425595Y-20105929D02*
X3435119Y-20115452D01*
X3425595Y-20124976D01*
X3416071Y-20115452D01*
X3425595Y-20105929D01*
X3425595Y-20124976D01*
X3616071Y-19924976D02*
X3520833Y-19924976D01*
X3511309Y-20020214D01*
X3520833Y-20010690D01*
X3539881Y-20001167D01*
X3587500Y-20001167D01*
X3606548Y-20010690D01*
X3616071Y-20020214D01*
X3625595Y-20039262D01*
X3625595Y-20086881D01*
X3616071Y-20105929D01*
X3606548Y-20115452D01*
X3587500Y-20124976D01*
X3539881Y-20124976D01*
X3520833Y-20115452D01*
X3511309Y-20105929D01*
X3749405Y-19924976D02*
X3768452Y-19924976D01*
X3787500Y-19934500D01*
X3797024Y-19944024D01*
X3806548Y-19963071D01*
X3816071Y-20001167D01*
X3816071Y-20048786D01*
X3806548Y-20086881D01*
X3797024Y-20105929D01*
X3787500Y-20115452D01*
X3768452Y-20124976D01*
X3749405Y-20124976D01*
X3730357Y-20115452D01*
X3720833Y-20105929D01*
X3711309Y-20086881D01*
X3701786Y-20048786D01*
X3701786Y-20001167D01*
X3711309Y-19963071D01*
X3720833Y-19944024D01*
X3730357Y-19934500D01*
X3749405Y-19924976D01*
X3939881Y-19924976D02*
X3958928Y-19924976D01*
X3977976Y-19934500D01*
X3987500Y-19944024D01*
X3997024Y-19963071D01*
X4006548Y-20001167D01*
X4006548Y-20048786D01*
X3997024Y-20086881D01*
X3987500Y-20105929D01*
X3977976Y-20115452D01*
X3958928Y-20124976D01*
X3939881Y-20124976D01*
X3920833Y-20115452D01*
X3911309Y-20105929D01*
X3901786Y-20086881D01*
X3892262Y-20048786D01*
X3892262Y-20001167D01*
X3901786Y-19963071D01*
X3911309Y-19944024D01*
X3920833Y-19934500D01*
X3939881Y-19924976D01*
X4092262Y-20124976D02*
X4092262Y-19991643D01*
X4092262Y-20010690D02*
X4101786Y-20001167D01*
X4120833Y-19991643D01*
X4149405Y-19991643D01*
X4168452Y-20001167D01*
X4177976Y-20020214D01*
X4177976Y-20124976D01*
X4177976Y-20020214D02*
X4187500Y-20001167D01*
X4206548Y-19991643D01*
X4235119Y-19991643D01*
X4254167Y-20001167D01*
X4263690Y-20020214D01*
X4263690Y-20124976D01*
X4358929Y-20124976D02*
X4358929Y-19991643D01*
X4358929Y-20010690D02*
X4368452Y-20001167D01*
X4387500Y-19991643D01*
X4416071Y-19991643D01*
X4435119Y-20001167D01*
X4444643Y-20020214D01*
X4444643Y-20124976D01*
X4444643Y-20020214D02*
X4454167Y-20001167D01*
X4473214Y-19991643D01*
X4501786Y-19991643D01*
X4520833Y-20001167D01*
X4530357Y-20020214D01*
X4530357Y-20124976D01*
X4920833Y-19915452D02*
X4749405Y-20172595D01*
X5177976Y-19924976D02*
X5197024Y-19924976D01*
X5216071Y-19934500D01*
X5225595Y-19944024D01*
X5235119Y-19963071D01*
X5244643Y-20001167D01*
X5244643Y-20048786D01*
X5235119Y-20086881D01*
X5225595Y-20105929D01*
X5216071Y-20115452D01*
X5197024Y-20124976D01*
X5177976Y-20124976D01*
X5158929Y-20115452D01*
X5149405Y-20105929D01*
X5139881Y-20086881D01*
X5130357Y-20048786D01*
X5130357Y-20001167D01*
X5139881Y-19963071D01*
X5149405Y-19944024D01*
X5158929Y-19934500D01*
X5177976Y-19924976D01*
X5330357Y-20105929D02*
X5339881Y-20115452D01*
X5330357Y-20124976D01*
X5320833Y-20115452D01*
X5330357Y-20105929D01*
X5330357Y-20124976D01*
X5463690Y-19924976D02*
X5482738Y-19924976D01*
X5501786Y-19934500D01*
X5511310Y-19944024D01*
X5520833Y-19963071D01*
X5530357Y-20001167D01*
X5530357Y-20048786D01*
X5520833Y-20086881D01*
X5511310Y-20105929D01*
X5501786Y-20115452D01*
X5482738Y-20124976D01*
X5463690Y-20124976D01*
X5444643Y-20115452D01*
X5435119Y-20105929D01*
X5425595Y-20086881D01*
X5416071Y-20048786D01*
X5416071Y-20001167D01*
X5425595Y-19963071D01*
X5435119Y-19944024D01*
X5444643Y-19934500D01*
X5463690Y-19924976D01*
X5720833Y-20124976D02*
X5606548Y-20124976D01*
X5663690Y-20124976D02*
X5663690Y-19924976D01*
X5644643Y-19953548D01*
X5625595Y-19972595D01*
X5606548Y-19982119D01*
X5816071Y-20124976D02*
X5854167Y-20124976D01*
X5873214Y-20115452D01*
X5882738Y-20105929D01*
X5901786Y-20077357D01*
X5911309Y-20039262D01*
X5911309Y-19963071D01*
X5901786Y-19944024D01*
X5892262Y-19934500D01*
X5873214Y-19924976D01*
X5835119Y-19924976D01*
X5816071Y-19934500D01*
X5806548Y-19944024D01*
X5797024Y-19963071D01*
X5797024Y-20010690D01*
X5806548Y-20029738D01*
X5816071Y-20039262D01*
X5835119Y-20048786D01*
X5873214Y-20048786D01*
X5892262Y-20039262D01*
X5901786Y-20029738D01*
X5911309Y-20010690D01*
X5977976Y-19924976D02*
X6111309Y-19924976D01*
X6025595Y-20124976D01*
X6177976Y-19924976D02*
X6177976Y-19963071D01*
X6254167Y-19924976D02*
X6254167Y-19963071D01*
X6549405Y-20201167D02*
X6539881Y-20191643D01*
X6520833Y-20163071D01*
X6511309Y-20144024D01*
X6501786Y-20115452D01*
X6492262Y-20067833D01*
X6492262Y-20029738D01*
X6501786Y-19982119D01*
X6511309Y-19953548D01*
X6520833Y-19934500D01*
X6539881Y-19905929D01*
X6549405Y-19896405D01*
X6711309Y-19991643D02*
X6711309Y-20124976D01*
X6663690Y-19915452D02*
X6616071Y-20058310D01*
X6739881Y-20058310D01*
X6844643Y-20010690D02*
X6825595Y-20001167D01*
X6816071Y-19991643D01*
X6806548Y-19972595D01*
X6806548Y-19963071D01*
X6816071Y-19944024D01*
X6825595Y-19934500D01*
X6844643Y-19924976D01*
X6882738Y-19924976D01*
X6901786Y-19934500D01*
X6911309Y-19944024D01*
X6920833Y-19963071D01*
X6920833Y-19972595D01*
X6911309Y-19991643D01*
X6901786Y-20001167D01*
X6882738Y-20010690D01*
X6844643Y-20010690D01*
X6825595Y-20020214D01*
X6816071Y-20029738D01*
X6806548Y-20048786D01*
X6806548Y-20086881D01*
X6816071Y-20105929D01*
X6825595Y-20115452D01*
X6844643Y-20124976D01*
X6882738Y-20124976D01*
X6901786Y-20115452D01*
X6911309Y-20105929D01*
X6920833Y-20086881D01*
X6920833Y-20048786D01*
X6911309Y-20029738D01*
X6901786Y-20020214D01*
X6882738Y-20010690D01*
X7158928Y-20124976D02*
X7158928Y-19924976D01*
X7244643Y-20124976D02*
X7244643Y-20020214D01*
X7235119Y-20001167D01*
X7216071Y-19991643D01*
X7187500Y-19991643D01*
X7168452Y-20001167D01*
X7158928Y-20010690D01*
X7368452Y-20124976D02*
X7349405Y-20115452D01*
X7339881Y-20105929D01*
X7330357Y-20086881D01*
X7330357Y-20029738D01*
X7339881Y-20010690D01*
X7349405Y-20001167D01*
X7368452Y-19991643D01*
X7397024Y-19991643D01*
X7416071Y-20001167D01*
X7425595Y-20010690D01*
X7435119Y-20029738D01*
X7435119Y-20086881D01*
X7425595Y-20105929D01*
X7416071Y-20115452D01*
X7397024Y-20124976D01*
X7368452Y-20124976D01*
X7549405Y-20124976D02*
X7530357Y-20115452D01*
X7520833Y-20096405D01*
X7520833Y-19924976D01*
X7701786Y-20115452D02*
X7682738Y-20124976D01*
X7644643Y-20124976D01*
X7625595Y-20115452D01*
X7616071Y-20096405D01*
X7616071Y-20020214D01*
X7625595Y-20001167D01*
X7644643Y-19991643D01*
X7682738Y-19991643D01*
X7701786Y-20001167D01*
X7711309Y-20020214D01*
X7711309Y-20039262D01*
X7616071Y-20058310D01*
X7787500Y-20115452D02*
X7806548Y-20124976D01*
X7844643Y-20124976D01*
X7863690Y-20115452D01*
X7873214Y-20096405D01*
X7873214Y-20086881D01*
X7863690Y-20067833D01*
X7844643Y-20058310D01*
X7816071Y-20058310D01*
X7797024Y-20048786D01*
X7787500Y-20029738D01*
X7787500Y-20020214D01*
X7797024Y-20001167D01*
X7816071Y-19991643D01*
X7844643Y-19991643D01*
X7863690Y-20001167D01*
X7939881Y-20201167D02*
X7949405Y-20191643D01*
X7968452Y-20163071D01*
X7977976Y-20144024D01*
X7987500Y-20115452D01*
X7997024Y-20067833D01*
X7997024Y-20029738D01*
X7987500Y-19982119D01*
X7977976Y-19953548D01*
X7968452Y-19934500D01*
X7949405Y-19905929D01*
X7939881Y-19896405D01*
D15*
X2937500Y-20338500D02*
X2977500Y-20298500D01*
X2937500Y-20258500D01*
X2897500Y-20298500D01*
X2937500Y-20338500D01*
D11*
X3273214Y-20188976D02*
X3292262Y-20188976D01*
X3311309Y-20198500D01*
X3320833Y-20208024D01*
X3330357Y-20227071D01*
X3339881Y-20265167D01*
X3339881Y-20312786D01*
X3330357Y-20350881D01*
X3320833Y-20369929D01*
X3311309Y-20379452D01*
X3292262Y-20388976D01*
X3273214Y-20388976D01*
X3254167Y-20379452D01*
X3244643Y-20369929D01*
X3235119Y-20350881D01*
X3225595Y-20312786D01*
X3225595Y-20265167D01*
X3235119Y-20227071D01*
X3244643Y-20208024D01*
X3254167Y-20198500D01*
X3273214Y-20188976D01*
X3425595Y-20369929D02*
X3435119Y-20379452D01*
X3425595Y-20388976D01*
X3416071Y-20379452D01*
X3425595Y-20369929D01*
X3425595Y-20388976D01*
X3549405Y-20274690D02*
X3530357Y-20265167D01*
X3520833Y-20255643D01*
X3511309Y-20236595D01*
X3511309Y-20227071D01*
X3520833Y-20208024D01*
X3530357Y-20198500D01*
X3549405Y-20188976D01*
X3587500Y-20188976D01*
X3606548Y-20198500D01*
X3616071Y-20208024D01*
X3625595Y-20227071D01*
X3625595Y-20236595D01*
X3616071Y-20255643D01*
X3606548Y-20265167D01*
X3587500Y-20274690D01*
X3549405Y-20274690D01*
X3530357Y-20284214D01*
X3520833Y-20293738D01*
X3511309Y-20312786D01*
X3511309Y-20350881D01*
X3520833Y-20369929D01*
X3530357Y-20379452D01*
X3549405Y-20388976D01*
X3587500Y-20388976D01*
X3606548Y-20379452D01*
X3616071Y-20369929D01*
X3625595Y-20350881D01*
X3625595Y-20312786D01*
X3616071Y-20293738D01*
X3606548Y-20284214D01*
X3587500Y-20274690D01*
X3749405Y-20188976D02*
X3768452Y-20188976D01*
X3787500Y-20198500D01*
X3797024Y-20208024D01*
X3806548Y-20227071D01*
X3816071Y-20265167D01*
X3816071Y-20312786D01*
X3806548Y-20350881D01*
X3797024Y-20369929D01*
X3787500Y-20379452D01*
X3768452Y-20388976D01*
X3749405Y-20388976D01*
X3730357Y-20379452D01*
X3720833Y-20369929D01*
X3711309Y-20350881D01*
X3701786Y-20312786D01*
X3701786Y-20265167D01*
X3711309Y-20227071D01*
X3720833Y-20208024D01*
X3730357Y-20198500D01*
X3749405Y-20188976D01*
X3939881Y-20188976D02*
X3958928Y-20188976D01*
X3977976Y-20198500D01*
X3987500Y-20208024D01*
X3997024Y-20227071D01*
X4006548Y-20265167D01*
X4006548Y-20312786D01*
X3997024Y-20350881D01*
X3987500Y-20369929D01*
X3977976Y-20379452D01*
X3958928Y-20388976D01*
X3939881Y-20388976D01*
X3920833Y-20379452D01*
X3911309Y-20369929D01*
X3901786Y-20350881D01*
X3892262Y-20312786D01*
X3892262Y-20265167D01*
X3901786Y-20227071D01*
X3911309Y-20208024D01*
X3920833Y-20198500D01*
X3939881Y-20188976D01*
X4092262Y-20388976D02*
X4092262Y-20255643D01*
X4092262Y-20274690D02*
X4101786Y-20265167D01*
X4120833Y-20255643D01*
X4149405Y-20255643D01*
X4168452Y-20265167D01*
X4177976Y-20284214D01*
X4177976Y-20388976D01*
X4177976Y-20284214D02*
X4187500Y-20265167D01*
X4206548Y-20255643D01*
X4235119Y-20255643D01*
X4254167Y-20265167D01*
X4263690Y-20284214D01*
X4263690Y-20388976D01*
X4358929Y-20388976D02*
X4358929Y-20255643D01*
X4358929Y-20274690D02*
X4368452Y-20265167D01*
X4387500Y-20255643D01*
X4416071Y-20255643D01*
X4435119Y-20265167D01*
X4444643Y-20284214D01*
X4444643Y-20388976D01*
X4444643Y-20284214D02*
X4454167Y-20265167D01*
X4473214Y-20255643D01*
X4501786Y-20255643D01*
X4520833Y-20265167D01*
X4530357Y-20284214D01*
X4530357Y-20388976D01*
X4920833Y-20179452D02*
X4749405Y-20436595D01*
X5177976Y-20188976D02*
X5197024Y-20188976D01*
X5216071Y-20198500D01*
X5225595Y-20208024D01*
X5235119Y-20227071D01*
X5244643Y-20265167D01*
X5244643Y-20312786D01*
X5235119Y-20350881D01*
X5225595Y-20369929D01*
X5216071Y-20379452D01*
X5197024Y-20388976D01*
X5177976Y-20388976D01*
X5158929Y-20379452D01*
X5149405Y-20369929D01*
X5139881Y-20350881D01*
X5130357Y-20312786D01*
X5130357Y-20265167D01*
X5139881Y-20227071D01*
X5149405Y-20208024D01*
X5158929Y-20198500D01*
X5177976Y-20188976D01*
X5330357Y-20369929D02*
X5339881Y-20379452D01*
X5330357Y-20388976D01*
X5320833Y-20379452D01*
X5330357Y-20369929D01*
X5330357Y-20388976D01*
X5463690Y-20188976D02*
X5482738Y-20188976D01*
X5501786Y-20198500D01*
X5511310Y-20208024D01*
X5520833Y-20227071D01*
X5530357Y-20265167D01*
X5530357Y-20312786D01*
X5520833Y-20350881D01*
X5511310Y-20369929D01*
X5501786Y-20379452D01*
X5482738Y-20388976D01*
X5463690Y-20388976D01*
X5444643Y-20379452D01*
X5435119Y-20369929D01*
X5425595Y-20350881D01*
X5416071Y-20312786D01*
X5416071Y-20265167D01*
X5425595Y-20227071D01*
X5435119Y-20208024D01*
X5444643Y-20198500D01*
X5463690Y-20188976D01*
X5597024Y-20188976D02*
X5720833Y-20188976D01*
X5654167Y-20265167D01*
X5682738Y-20265167D01*
X5701786Y-20274690D01*
X5711309Y-20284214D01*
X5720833Y-20303262D01*
X5720833Y-20350881D01*
X5711309Y-20369929D01*
X5701786Y-20379452D01*
X5682738Y-20388976D01*
X5625595Y-20388976D01*
X5606548Y-20379452D01*
X5597024Y-20369929D01*
X5911309Y-20388976D02*
X5797024Y-20388976D01*
X5854167Y-20388976D02*
X5854167Y-20188976D01*
X5835119Y-20217548D01*
X5816071Y-20236595D01*
X5797024Y-20246119D01*
X6092262Y-20188976D02*
X5997024Y-20188976D01*
X5987500Y-20284214D01*
X5997024Y-20274690D01*
X6016071Y-20265167D01*
X6063690Y-20265167D01*
X6082738Y-20274690D01*
X6092262Y-20284214D01*
X6101786Y-20303262D01*
X6101786Y-20350881D01*
X6092262Y-20369929D01*
X6082738Y-20379452D01*
X6063690Y-20388976D01*
X6016071Y-20388976D01*
X5997024Y-20379452D01*
X5987500Y-20369929D01*
X6177976Y-20188976D02*
X6177976Y-20227071D01*
X6254167Y-20188976D02*
X6254167Y-20227071D01*
X6549405Y-20465167D02*
X6539881Y-20455643D01*
X6520833Y-20427071D01*
X6511309Y-20408024D01*
X6501786Y-20379452D01*
X6492262Y-20331833D01*
X6492262Y-20293738D01*
X6501786Y-20246119D01*
X6511309Y-20217548D01*
X6520833Y-20198500D01*
X6539881Y-20169929D01*
X6549405Y-20160405D01*
X6711309Y-20188976D02*
X6673214Y-20188976D01*
X6654167Y-20198500D01*
X6644643Y-20208024D01*
X6625595Y-20236595D01*
X6616071Y-20274690D01*
X6616071Y-20350881D01*
X6625595Y-20369929D01*
X6635119Y-20379452D01*
X6654167Y-20388976D01*
X6692262Y-20388976D01*
X6711309Y-20379452D01*
X6720833Y-20369929D01*
X6730357Y-20350881D01*
X6730357Y-20303262D01*
X6720833Y-20284214D01*
X6711309Y-20274690D01*
X6692262Y-20265167D01*
X6654167Y-20265167D01*
X6635119Y-20274690D01*
X6625595Y-20284214D01*
X6616071Y-20303262D01*
X6920833Y-20388976D02*
X6806548Y-20388976D01*
X6863690Y-20388976D02*
X6863690Y-20188976D01*
X6844643Y-20217548D01*
X6825595Y-20236595D01*
X6806548Y-20246119D01*
X7158928Y-20388976D02*
X7158928Y-20188976D01*
X7244643Y-20388976D02*
X7244643Y-20284214D01*
X7235119Y-20265167D01*
X7216071Y-20255643D01*
X7187500Y-20255643D01*
X7168452Y-20265167D01*
X7158928Y-20274690D01*
X7368452Y-20388976D02*
X7349405Y-20379452D01*
X7339881Y-20369929D01*
X7330357Y-20350881D01*
X7330357Y-20293738D01*
X7339881Y-20274690D01*
X7349405Y-20265167D01*
X7368452Y-20255643D01*
X7397024Y-20255643D01*
X7416071Y-20265167D01*
X7425595Y-20274690D01*
X7435119Y-20293738D01*
X7435119Y-20350881D01*
X7425595Y-20369929D01*
X7416071Y-20379452D01*
X7397024Y-20388976D01*
X7368452Y-20388976D01*
X7549405Y-20388976D02*
X7530357Y-20379452D01*
X7520833Y-20360405D01*
X7520833Y-20188976D01*
X7701786Y-20379452D02*
X7682738Y-20388976D01*
X7644643Y-20388976D01*
X7625595Y-20379452D01*
X7616071Y-20360405D01*
X7616071Y-20284214D01*
X7625595Y-20265167D01*
X7644643Y-20255643D01*
X7682738Y-20255643D01*
X7701786Y-20265167D01*
X7711309Y-20284214D01*
X7711309Y-20303262D01*
X7616071Y-20322310D01*
X7787500Y-20379452D02*
X7806548Y-20388976D01*
X7844643Y-20388976D01*
X7863690Y-20379452D01*
X7873214Y-20360405D01*
X7873214Y-20350881D01*
X7863690Y-20331833D01*
X7844643Y-20322310D01*
X7816071Y-20322310D01*
X7797024Y-20312786D01*
X7787500Y-20293738D01*
X7787500Y-20284214D01*
X7797024Y-20265167D01*
X7816071Y-20255643D01*
X7844643Y-20255643D01*
X7863690Y-20265167D01*
X7939881Y-20465167D02*
X7949405Y-20455643D01*
X7968452Y-20427071D01*
X7977976Y-20408024D01*
X7987500Y-20379452D01*
X7997024Y-20331833D01*
X7997024Y-20293738D01*
X7987500Y-20246119D01*
X7977976Y-20217548D01*
X7968452Y-20198500D01*
X7949405Y-20169929D01*
X7939881Y-20160405D01*
D16*
X2890000Y-20518750D02*
X2977500Y-20606250D01*
X2977500Y-20518750D02*
X2890000Y-20606250D01*
X2977500Y-20562500D02*
G75*
G03*
X2977500Y-20562500I-43750J0D01*
G01*
D11*
X3273214Y-20452976D02*
X3292262Y-20452976D01*
X3311309Y-20462500D01*
X3320833Y-20472024D01*
X3330357Y-20491071D01*
X3339881Y-20529167D01*
X3339881Y-20576786D01*
X3330357Y-20614881D01*
X3320833Y-20633929D01*
X3311309Y-20643452D01*
X3292262Y-20652976D01*
X3273214Y-20652976D01*
X3254167Y-20643452D01*
X3244643Y-20633929D01*
X3235119Y-20614881D01*
X3225595Y-20576786D01*
X3225595Y-20529167D01*
X3235119Y-20491071D01*
X3244643Y-20472024D01*
X3254167Y-20462500D01*
X3273214Y-20452976D01*
X3425595Y-20633929D02*
X3435119Y-20643452D01*
X3425595Y-20652976D01*
X3416071Y-20643452D01*
X3425595Y-20633929D01*
X3425595Y-20652976D01*
X3549405Y-20538690D02*
X3530357Y-20529167D01*
X3520833Y-20519643D01*
X3511309Y-20500595D01*
X3511309Y-20491071D01*
X3520833Y-20472024D01*
X3530357Y-20462500D01*
X3549405Y-20452976D01*
X3587500Y-20452976D01*
X3606548Y-20462500D01*
X3616071Y-20472024D01*
X3625595Y-20491071D01*
X3625595Y-20500595D01*
X3616071Y-20519643D01*
X3606548Y-20529167D01*
X3587500Y-20538690D01*
X3549405Y-20538690D01*
X3530357Y-20548214D01*
X3520833Y-20557738D01*
X3511309Y-20576786D01*
X3511309Y-20614881D01*
X3520833Y-20633929D01*
X3530357Y-20643452D01*
X3549405Y-20652976D01*
X3587500Y-20652976D01*
X3606548Y-20643452D01*
X3616071Y-20633929D01*
X3625595Y-20614881D01*
X3625595Y-20576786D01*
X3616071Y-20557738D01*
X3606548Y-20548214D01*
X3587500Y-20538690D01*
X3692262Y-20452976D02*
X3825595Y-20452976D01*
X3739881Y-20652976D01*
X3997024Y-20452976D02*
X3901786Y-20452976D01*
X3892262Y-20548214D01*
X3901786Y-20538690D01*
X3920833Y-20529167D01*
X3968452Y-20529167D01*
X3987500Y-20538690D01*
X3997024Y-20548214D01*
X4006548Y-20567262D01*
X4006548Y-20614881D01*
X3997024Y-20633929D01*
X3987500Y-20643452D01*
X3968452Y-20652976D01*
X3920833Y-20652976D01*
X3901786Y-20643452D01*
X3892262Y-20633929D01*
X4092262Y-20652976D02*
X4092262Y-20519643D01*
X4092262Y-20538690D02*
X4101786Y-20529167D01*
X4120833Y-20519643D01*
X4149405Y-20519643D01*
X4168452Y-20529167D01*
X4177976Y-20548214D01*
X4177976Y-20652976D01*
X4177976Y-20548214D02*
X4187500Y-20529167D01*
X4206548Y-20519643D01*
X4235119Y-20519643D01*
X4254167Y-20529167D01*
X4263690Y-20548214D01*
X4263690Y-20652976D01*
X4358929Y-20652976D02*
X4358929Y-20519643D01*
X4358929Y-20538690D02*
X4368452Y-20529167D01*
X4387500Y-20519643D01*
X4416071Y-20519643D01*
X4435119Y-20529167D01*
X4444643Y-20548214D01*
X4444643Y-20652976D01*
X4444643Y-20548214D02*
X4454167Y-20529167D01*
X4473214Y-20519643D01*
X4501786Y-20519643D01*
X4520833Y-20529167D01*
X4530357Y-20548214D01*
X4530357Y-20652976D01*
X4920833Y-20443452D02*
X4749405Y-20700595D01*
X5177976Y-20452976D02*
X5197024Y-20452976D01*
X5216071Y-20462500D01*
X5225595Y-20472024D01*
X5235119Y-20491071D01*
X5244643Y-20529167D01*
X5244643Y-20576786D01*
X5235119Y-20614881D01*
X5225595Y-20633929D01*
X5216071Y-20643452D01*
X5197024Y-20652976D01*
X5177976Y-20652976D01*
X5158929Y-20643452D01*
X5149405Y-20633929D01*
X5139881Y-20614881D01*
X5130357Y-20576786D01*
X5130357Y-20529167D01*
X5139881Y-20491071D01*
X5149405Y-20472024D01*
X5158929Y-20462500D01*
X5177976Y-20452976D01*
X5330357Y-20633929D02*
X5339881Y-20643452D01*
X5330357Y-20652976D01*
X5320833Y-20643452D01*
X5330357Y-20633929D01*
X5330357Y-20652976D01*
X5463690Y-20452976D02*
X5482738Y-20452976D01*
X5501786Y-20462500D01*
X5511310Y-20472024D01*
X5520833Y-20491071D01*
X5530357Y-20529167D01*
X5530357Y-20576786D01*
X5520833Y-20614881D01*
X5511310Y-20633929D01*
X5501786Y-20643452D01*
X5482738Y-20652976D01*
X5463690Y-20652976D01*
X5444643Y-20643452D01*
X5435119Y-20633929D01*
X5425595Y-20614881D01*
X5416071Y-20576786D01*
X5416071Y-20529167D01*
X5425595Y-20491071D01*
X5435119Y-20472024D01*
X5444643Y-20462500D01*
X5463690Y-20452976D01*
X5597024Y-20452976D02*
X5720833Y-20452976D01*
X5654167Y-20529167D01*
X5682738Y-20529167D01*
X5701786Y-20538690D01*
X5711309Y-20548214D01*
X5720833Y-20567262D01*
X5720833Y-20614881D01*
X5711309Y-20633929D01*
X5701786Y-20643452D01*
X5682738Y-20652976D01*
X5625595Y-20652976D01*
X5606548Y-20643452D01*
X5597024Y-20633929D01*
X5892262Y-20519643D02*
X5892262Y-20652976D01*
X5844643Y-20443452D02*
X5797024Y-20586310D01*
X5920833Y-20586310D01*
X6082738Y-20519643D02*
X6082738Y-20652976D01*
X6035119Y-20443452D02*
X5987500Y-20586310D01*
X6111309Y-20586310D01*
X6177976Y-20452976D02*
X6177976Y-20491071D01*
X6254167Y-20452976D02*
X6254167Y-20491071D01*
X6549405Y-20729167D02*
X6539881Y-20719643D01*
X6520833Y-20691071D01*
X6511309Y-20672024D01*
X6501786Y-20643452D01*
X6492262Y-20595833D01*
X6492262Y-20557738D01*
X6501786Y-20510119D01*
X6511309Y-20481548D01*
X6520833Y-20462500D01*
X6539881Y-20433929D01*
X6549405Y-20424405D01*
X6711309Y-20452976D02*
X6673214Y-20452976D01*
X6654167Y-20462500D01*
X6644643Y-20472024D01*
X6625595Y-20500595D01*
X6616071Y-20538690D01*
X6616071Y-20614881D01*
X6625595Y-20633929D01*
X6635119Y-20643452D01*
X6654167Y-20652976D01*
X6692262Y-20652976D01*
X6711309Y-20643452D01*
X6720833Y-20633929D01*
X6730357Y-20614881D01*
X6730357Y-20567262D01*
X6720833Y-20548214D01*
X6711309Y-20538690D01*
X6692262Y-20529167D01*
X6654167Y-20529167D01*
X6635119Y-20538690D01*
X6625595Y-20548214D01*
X6616071Y-20567262D01*
X6968452Y-20652976D02*
X6968452Y-20452976D01*
X7054167Y-20652976D02*
X7054167Y-20548214D01*
X7044643Y-20529167D01*
X7025595Y-20519643D01*
X6997024Y-20519643D01*
X6977976Y-20529167D01*
X6968452Y-20538690D01*
X7177976Y-20652976D02*
X7158928Y-20643452D01*
X7149405Y-20633929D01*
X7139881Y-20614881D01*
X7139881Y-20557738D01*
X7149405Y-20538690D01*
X7158928Y-20529167D01*
X7177976Y-20519643D01*
X7206548Y-20519643D01*
X7225595Y-20529167D01*
X7235119Y-20538690D01*
X7244643Y-20557738D01*
X7244643Y-20614881D01*
X7235119Y-20633929D01*
X7225595Y-20643452D01*
X7206548Y-20652976D01*
X7177976Y-20652976D01*
X7358928Y-20652976D02*
X7339881Y-20643452D01*
X7330357Y-20624405D01*
X7330357Y-20452976D01*
X7511309Y-20643452D02*
X7492262Y-20652976D01*
X7454167Y-20652976D01*
X7435119Y-20643452D01*
X7425595Y-20624405D01*
X7425595Y-20548214D01*
X7435119Y-20529167D01*
X7454167Y-20519643D01*
X7492262Y-20519643D01*
X7511309Y-20529167D01*
X7520833Y-20548214D01*
X7520833Y-20567262D01*
X7425595Y-20586310D01*
X7597024Y-20643452D02*
X7616071Y-20652976D01*
X7654167Y-20652976D01*
X7673214Y-20643452D01*
X7682738Y-20624405D01*
X7682738Y-20614881D01*
X7673214Y-20595833D01*
X7654167Y-20586310D01*
X7625595Y-20586310D01*
X7606548Y-20576786D01*
X7597024Y-20557738D01*
X7597024Y-20548214D01*
X7606548Y-20529167D01*
X7625595Y-20519643D01*
X7654167Y-20519643D01*
X7673214Y-20529167D01*
X7749405Y-20729167D02*
X7758928Y-20719643D01*
X7777976Y-20691071D01*
X7787500Y-20672024D01*
X7797024Y-20643452D01*
X7806548Y-20595833D01*
X7806548Y-20557738D01*
X7797024Y-20510119D01*
X7787500Y-20481548D01*
X7777976Y-20462500D01*
X7758928Y-20433929D01*
X7749405Y-20424405D01*
D17*
X2887500Y-20781500D02*
X2977500Y-20871500D01*
X2977500Y-20781500D02*
X2887500Y-20871500D01*
X2932500Y-20781500D02*
X2932500Y-20871500D01*
X2887500Y-20826500D02*
X2977500Y-20826500D01*
D11*
X3273214Y-20716976D02*
X3292262Y-20716976D01*
X3311309Y-20726500D01*
X3320833Y-20736024D01*
X3330357Y-20755071D01*
X3339881Y-20793167D01*
X3339881Y-20840786D01*
X3330357Y-20878881D01*
X3320833Y-20897929D01*
X3311309Y-20907452D01*
X3292262Y-20916976D01*
X3273214Y-20916976D01*
X3254167Y-20907452D01*
X3244643Y-20897929D01*
X3235119Y-20878881D01*
X3225595Y-20840786D01*
X3225595Y-20793167D01*
X3235119Y-20755071D01*
X3244643Y-20736024D01*
X3254167Y-20726500D01*
X3273214Y-20716976D01*
X3425595Y-20897929D02*
X3435119Y-20907452D01*
X3425595Y-20916976D01*
X3416071Y-20907452D01*
X3425595Y-20897929D01*
X3425595Y-20916976D01*
X3530357Y-20916976D02*
X3568452Y-20916976D01*
X3587500Y-20907452D01*
X3597024Y-20897929D01*
X3616071Y-20869357D01*
X3625595Y-20831262D01*
X3625595Y-20755071D01*
X3616071Y-20736024D01*
X3606548Y-20726500D01*
X3587500Y-20716976D01*
X3549405Y-20716976D01*
X3530357Y-20726500D01*
X3520833Y-20736024D01*
X3511309Y-20755071D01*
X3511309Y-20802690D01*
X3520833Y-20821738D01*
X3530357Y-20831262D01*
X3549405Y-20840786D01*
X3587500Y-20840786D01*
X3606548Y-20831262D01*
X3616071Y-20821738D01*
X3625595Y-20802690D01*
X3749405Y-20716976D02*
X3768452Y-20716976D01*
X3787500Y-20726500D01*
X3797024Y-20736024D01*
X3806548Y-20755071D01*
X3816071Y-20793167D01*
X3816071Y-20840786D01*
X3806548Y-20878881D01*
X3797024Y-20897929D01*
X3787500Y-20907452D01*
X3768452Y-20916976D01*
X3749405Y-20916976D01*
X3730357Y-20907452D01*
X3720833Y-20897929D01*
X3711309Y-20878881D01*
X3701786Y-20840786D01*
X3701786Y-20793167D01*
X3711309Y-20755071D01*
X3720833Y-20736024D01*
X3730357Y-20726500D01*
X3749405Y-20716976D01*
X3939881Y-20716976D02*
X3958928Y-20716976D01*
X3977976Y-20726500D01*
X3987500Y-20736024D01*
X3997024Y-20755071D01*
X4006548Y-20793167D01*
X4006548Y-20840786D01*
X3997024Y-20878881D01*
X3987500Y-20897929D01*
X3977976Y-20907452D01*
X3958928Y-20916976D01*
X3939881Y-20916976D01*
X3920833Y-20907452D01*
X3911309Y-20897929D01*
X3901786Y-20878881D01*
X3892262Y-20840786D01*
X3892262Y-20793167D01*
X3901786Y-20755071D01*
X3911309Y-20736024D01*
X3920833Y-20726500D01*
X3939881Y-20716976D01*
X4092262Y-20916976D02*
X4092262Y-20783643D01*
X4092262Y-20802690D02*
X4101786Y-20793167D01*
X4120833Y-20783643D01*
X4149405Y-20783643D01*
X4168452Y-20793167D01*
X4177976Y-20812214D01*
X4177976Y-20916976D01*
X4177976Y-20812214D02*
X4187500Y-20793167D01*
X4206548Y-20783643D01*
X4235119Y-20783643D01*
X4254167Y-20793167D01*
X4263690Y-20812214D01*
X4263690Y-20916976D01*
X4358929Y-20916976D02*
X4358929Y-20783643D01*
X4358929Y-20802690D02*
X4368452Y-20793167D01*
X4387500Y-20783643D01*
X4416071Y-20783643D01*
X4435119Y-20793167D01*
X4444643Y-20812214D01*
X4444643Y-20916976D01*
X4444643Y-20812214D02*
X4454167Y-20793167D01*
X4473214Y-20783643D01*
X4501786Y-20783643D01*
X4520833Y-20793167D01*
X4530357Y-20812214D01*
X4530357Y-20916976D01*
X4920833Y-20707452D02*
X4749405Y-20964595D01*
X5177976Y-20716976D02*
X5197024Y-20716976D01*
X5216071Y-20726500D01*
X5225595Y-20736024D01*
X5235119Y-20755071D01*
X5244643Y-20793167D01*
X5244643Y-20840786D01*
X5235119Y-20878881D01*
X5225595Y-20897929D01*
X5216071Y-20907452D01*
X5197024Y-20916976D01*
X5177976Y-20916976D01*
X5158929Y-20907452D01*
X5149405Y-20897929D01*
X5139881Y-20878881D01*
X5130357Y-20840786D01*
X5130357Y-20793167D01*
X5139881Y-20755071D01*
X5149405Y-20736024D01*
X5158929Y-20726500D01*
X5177976Y-20716976D01*
X5330357Y-20897929D02*
X5339881Y-20907452D01*
X5330357Y-20916976D01*
X5320833Y-20907452D01*
X5330357Y-20897929D01*
X5330357Y-20916976D01*
X5463690Y-20716976D02*
X5482738Y-20716976D01*
X5501786Y-20726500D01*
X5511310Y-20736024D01*
X5520833Y-20755071D01*
X5530357Y-20793167D01*
X5530357Y-20840786D01*
X5520833Y-20878881D01*
X5511310Y-20897929D01*
X5501786Y-20907452D01*
X5482738Y-20916976D01*
X5463690Y-20916976D01*
X5444643Y-20907452D01*
X5435119Y-20897929D01*
X5425595Y-20878881D01*
X5416071Y-20840786D01*
X5416071Y-20793167D01*
X5425595Y-20755071D01*
X5435119Y-20736024D01*
X5444643Y-20726500D01*
X5463690Y-20716976D01*
X5597024Y-20716976D02*
X5720833Y-20716976D01*
X5654167Y-20793167D01*
X5682738Y-20793167D01*
X5701786Y-20802690D01*
X5711309Y-20812214D01*
X5720833Y-20831262D01*
X5720833Y-20878881D01*
X5711309Y-20897929D01*
X5701786Y-20907452D01*
X5682738Y-20916976D01*
X5625595Y-20916976D01*
X5606548Y-20907452D01*
X5597024Y-20897929D01*
X5901786Y-20716976D02*
X5806548Y-20716976D01*
X5797024Y-20812214D01*
X5806548Y-20802690D01*
X5825595Y-20793167D01*
X5873214Y-20793167D01*
X5892262Y-20802690D01*
X5901786Y-20812214D01*
X5911309Y-20831262D01*
X5911309Y-20878881D01*
X5901786Y-20897929D01*
X5892262Y-20907452D01*
X5873214Y-20916976D01*
X5825595Y-20916976D01*
X5806548Y-20907452D01*
X5797024Y-20897929D01*
X6082738Y-20783643D02*
X6082738Y-20916976D01*
X6035119Y-20707452D02*
X5987500Y-20850310D01*
X6111309Y-20850310D01*
X6177976Y-20716976D02*
X6177976Y-20755071D01*
X6254167Y-20716976D02*
X6254167Y-20755071D01*
X6549405Y-20993167D02*
X6539881Y-20983643D01*
X6520833Y-20955071D01*
X6511309Y-20936024D01*
X6501786Y-20907452D01*
X6492262Y-20859833D01*
X6492262Y-20821738D01*
X6501786Y-20774119D01*
X6511309Y-20745548D01*
X6520833Y-20726500D01*
X6539881Y-20697929D01*
X6549405Y-20688405D01*
X6730357Y-20916976D02*
X6616071Y-20916976D01*
X6673214Y-20916976D02*
X6673214Y-20716976D01*
X6654167Y-20745548D01*
X6635119Y-20764595D01*
X6616071Y-20774119D01*
X6901786Y-20783643D02*
X6901786Y-20916976D01*
X6854167Y-20707452D02*
X6806548Y-20850310D01*
X6930357Y-20850310D01*
X7158928Y-20916976D02*
X7158928Y-20716976D01*
X7244643Y-20916976D02*
X7244643Y-20812214D01*
X7235119Y-20793167D01*
X7216071Y-20783643D01*
X7187500Y-20783643D01*
X7168452Y-20793167D01*
X7158928Y-20802690D01*
X7368452Y-20916976D02*
X7349405Y-20907452D01*
X7339881Y-20897929D01*
X7330357Y-20878881D01*
X7330357Y-20821738D01*
X7339881Y-20802690D01*
X7349405Y-20793167D01*
X7368452Y-20783643D01*
X7397024Y-20783643D01*
X7416071Y-20793167D01*
X7425595Y-20802690D01*
X7435119Y-20821738D01*
X7435119Y-20878881D01*
X7425595Y-20897929D01*
X7416071Y-20907452D01*
X7397024Y-20916976D01*
X7368452Y-20916976D01*
X7549405Y-20916976D02*
X7530357Y-20907452D01*
X7520833Y-20888405D01*
X7520833Y-20716976D01*
X7701786Y-20907452D02*
X7682738Y-20916976D01*
X7644643Y-20916976D01*
X7625595Y-20907452D01*
X7616071Y-20888405D01*
X7616071Y-20812214D01*
X7625595Y-20793167D01*
X7644643Y-20783643D01*
X7682738Y-20783643D01*
X7701786Y-20793167D01*
X7711309Y-20812214D01*
X7711309Y-20831262D01*
X7616071Y-20850310D01*
X7787500Y-20907452D02*
X7806548Y-20916976D01*
X7844643Y-20916976D01*
X7863690Y-20907452D01*
X7873214Y-20888405D01*
X7873214Y-20878881D01*
X7863690Y-20859833D01*
X7844643Y-20850310D01*
X7816071Y-20850310D01*
X7797024Y-20840786D01*
X7787500Y-20821738D01*
X7787500Y-20812214D01*
X7797024Y-20793167D01*
X7816071Y-20783643D01*
X7844643Y-20783643D01*
X7863690Y-20793167D01*
X7939881Y-20993167D02*
X7949405Y-20983643D01*
X7968452Y-20955071D01*
X7977976Y-20936024D01*
X7987500Y-20907452D01*
X7997024Y-20859833D01*
X7997024Y-20821738D01*
X7987500Y-20774119D01*
X7977976Y-20745548D01*
X7968452Y-20726500D01*
X7949405Y-20697929D01*
X7939881Y-20688405D01*
D18*
X2877500Y-21040500D02*
X2977500Y-21140500D01*
X2977500Y-21040500D02*
X2877500Y-21140500D01*
X2962856Y-21125856D02*
X2962856Y-21055144D01*
X2892144Y-21055144D01*
X2892144Y-21125856D01*
X2962856Y-21125856D01*
D11*
X3339881Y-21180976D02*
X3225595Y-21180976D01*
X3282738Y-21180976D02*
X3282738Y-20980976D01*
X3263690Y-21009548D01*
X3244643Y-21028595D01*
X3225595Y-21038119D01*
X3425595Y-21161929D02*
X3435119Y-21171452D01*
X3425595Y-21180976D01*
X3416071Y-21171452D01*
X3425595Y-21161929D01*
X3425595Y-21180976D01*
X3558928Y-20980976D02*
X3577976Y-20980976D01*
X3597024Y-20990500D01*
X3606548Y-21000024D01*
X3616071Y-21019071D01*
X3625595Y-21057167D01*
X3625595Y-21104786D01*
X3616071Y-21142881D01*
X3606548Y-21161929D01*
X3597024Y-21171452D01*
X3577976Y-21180976D01*
X3558928Y-21180976D01*
X3539881Y-21171452D01*
X3530357Y-21161929D01*
X3520833Y-21142881D01*
X3511309Y-21104786D01*
X3511309Y-21057167D01*
X3520833Y-21019071D01*
X3530357Y-21000024D01*
X3539881Y-20990500D01*
X3558928Y-20980976D01*
X3749405Y-20980976D02*
X3768452Y-20980976D01*
X3787500Y-20990500D01*
X3797024Y-21000024D01*
X3806548Y-21019071D01*
X3816071Y-21057167D01*
X3816071Y-21104786D01*
X3806548Y-21142881D01*
X3797024Y-21161929D01*
X3787500Y-21171452D01*
X3768452Y-21180976D01*
X3749405Y-21180976D01*
X3730357Y-21171452D01*
X3720833Y-21161929D01*
X3711309Y-21142881D01*
X3701786Y-21104786D01*
X3701786Y-21057167D01*
X3711309Y-21019071D01*
X3720833Y-21000024D01*
X3730357Y-20990500D01*
X3749405Y-20980976D01*
X3939881Y-20980976D02*
X3958928Y-20980976D01*
X3977976Y-20990500D01*
X3987500Y-21000024D01*
X3997024Y-21019071D01*
X4006548Y-21057167D01*
X4006548Y-21104786D01*
X3997024Y-21142881D01*
X3987500Y-21161929D01*
X3977976Y-21171452D01*
X3958928Y-21180976D01*
X3939881Y-21180976D01*
X3920833Y-21171452D01*
X3911309Y-21161929D01*
X3901786Y-21142881D01*
X3892262Y-21104786D01*
X3892262Y-21057167D01*
X3901786Y-21019071D01*
X3911309Y-21000024D01*
X3920833Y-20990500D01*
X3939881Y-20980976D01*
X4092262Y-21180976D02*
X4092262Y-21047643D01*
X4092262Y-21066690D02*
X4101786Y-21057167D01*
X4120833Y-21047643D01*
X4149405Y-21047643D01*
X4168452Y-21057167D01*
X4177976Y-21076214D01*
X4177976Y-21180976D01*
X4177976Y-21076214D02*
X4187500Y-21057167D01*
X4206548Y-21047643D01*
X4235119Y-21047643D01*
X4254167Y-21057167D01*
X4263690Y-21076214D01*
X4263690Y-21180976D01*
X4358929Y-21180976D02*
X4358929Y-21047643D01*
X4358929Y-21066690D02*
X4368452Y-21057167D01*
X4387500Y-21047643D01*
X4416071Y-21047643D01*
X4435119Y-21057167D01*
X4444643Y-21076214D01*
X4444643Y-21180976D01*
X4444643Y-21076214D02*
X4454167Y-21057167D01*
X4473214Y-21047643D01*
X4501786Y-21047643D01*
X4520833Y-21057167D01*
X4530357Y-21076214D01*
X4530357Y-21180976D01*
X4920833Y-20971452D02*
X4749405Y-21228595D01*
X5177976Y-20980976D02*
X5197024Y-20980976D01*
X5216071Y-20990500D01*
X5225595Y-21000024D01*
X5235119Y-21019071D01*
X5244643Y-21057167D01*
X5244643Y-21104786D01*
X5235119Y-21142881D01*
X5225595Y-21161929D01*
X5216071Y-21171452D01*
X5197024Y-21180976D01*
X5177976Y-21180976D01*
X5158929Y-21171452D01*
X5149405Y-21161929D01*
X5139881Y-21142881D01*
X5130357Y-21104786D01*
X5130357Y-21057167D01*
X5139881Y-21019071D01*
X5149405Y-21000024D01*
X5158929Y-20990500D01*
X5177976Y-20980976D01*
X5330357Y-21161929D02*
X5339881Y-21171452D01*
X5330357Y-21180976D01*
X5320833Y-21171452D01*
X5330357Y-21161929D01*
X5330357Y-21180976D01*
X5463690Y-20980976D02*
X5482738Y-20980976D01*
X5501786Y-20990500D01*
X5511310Y-21000024D01*
X5520833Y-21019071D01*
X5530357Y-21057167D01*
X5530357Y-21104786D01*
X5520833Y-21142881D01*
X5511310Y-21161929D01*
X5501786Y-21171452D01*
X5482738Y-21180976D01*
X5463690Y-21180976D01*
X5444643Y-21171452D01*
X5435119Y-21161929D01*
X5425595Y-21142881D01*
X5416071Y-21104786D01*
X5416071Y-21057167D01*
X5425595Y-21019071D01*
X5435119Y-21000024D01*
X5444643Y-20990500D01*
X5463690Y-20980976D01*
X5597024Y-20980976D02*
X5720833Y-20980976D01*
X5654167Y-21057167D01*
X5682738Y-21057167D01*
X5701786Y-21066690D01*
X5711309Y-21076214D01*
X5720833Y-21095262D01*
X5720833Y-21142881D01*
X5711309Y-21161929D01*
X5701786Y-21171452D01*
X5682738Y-21180976D01*
X5625595Y-21180976D01*
X5606548Y-21171452D01*
X5597024Y-21161929D01*
X5816071Y-21180976D02*
X5854167Y-21180976D01*
X5873214Y-21171452D01*
X5882738Y-21161929D01*
X5901786Y-21133357D01*
X5911309Y-21095262D01*
X5911309Y-21019071D01*
X5901786Y-21000024D01*
X5892262Y-20990500D01*
X5873214Y-20980976D01*
X5835119Y-20980976D01*
X5816071Y-20990500D01*
X5806548Y-21000024D01*
X5797024Y-21019071D01*
X5797024Y-21066690D01*
X5806548Y-21085738D01*
X5816071Y-21095262D01*
X5835119Y-21104786D01*
X5873214Y-21104786D01*
X5892262Y-21095262D01*
X5901786Y-21085738D01*
X5911309Y-21066690D01*
X6082738Y-21047643D02*
X6082738Y-21180976D01*
X6035119Y-20971452D02*
X5987500Y-21114310D01*
X6111309Y-21114310D01*
X6177976Y-20980976D02*
X6177976Y-21019071D01*
X6254167Y-20980976D02*
X6254167Y-21019071D01*
X6549405Y-21257167D02*
X6539881Y-21247643D01*
X6520833Y-21219071D01*
X6511309Y-21200024D01*
X6501786Y-21171452D01*
X6492262Y-21123833D01*
X6492262Y-21085738D01*
X6501786Y-21038119D01*
X6511309Y-21009548D01*
X6520833Y-20990500D01*
X6539881Y-20961929D01*
X6549405Y-20952405D01*
X6606548Y-20980976D02*
X6730357Y-20980976D01*
X6663690Y-21057167D01*
X6692262Y-21057167D01*
X6711309Y-21066690D01*
X6720833Y-21076214D01*
X6730357Y-21095262D01*
X6730357Y-21142881D01*
X6720833Y-21161929D01*
X6711309Y-21171452D01*
X6692262Y-21180976D01*
X6635119Y-21180976D01*
X6616071Y-21171452D01*
X6606548Y-21161929D01*
X6797024Y-20980976D02*
X6930357Y-20980976D01*
X6844643Y-21180976D01*
X7158928Y-21180976D02*
X7158928Y-20980976D01*
X7244643Y-21180976D02*
X7244643Y-21076214D01*
X7235119Y-21057167D01*
X7216071Y-21047643D01*
X7187500Y-21047643D01*
X7168452Y-21057167D01*
X7158928Y-21066690D01*
X7368452Y-21180976D02*
X7349405Y-21171452D01*
X7339881Y-21161929D01*
X7330357Y-21142881D01*
X7330357Y-21085738D01*
X7339881Y-21066690D01*
X7349405Y-21057167D01*
X7368452Y-21047643D01*
X7397024Y-21047643D01*
X7416071Y-21057167D01*
X7425595Y-21066690D01*
X7435119Y-21085738D01*
X7435119Y-21142881D01*
X7425595Y-21161929D01*
X7416071Y-21171452D01*
X7397024Y-21180976D01*
X7368452Y-21180976D01*
X7549405Y-21180976D02*
X7530357Y-21171452D01*
X7520833Y-21152405D01*
X7520833Y-20980976D01*
X7701786Y-21171452D02*
X7682738Y-21180976D01*
X7644643Y-21180976D01*
X7625595Y-21171452D01*
X7616071Y-21152405D01*
X7616071Y-21076214D01*
X7625595Y-21057167D01*
X7644643Y-21047643D01*
X7682738Y-21047643D01*
X7701786Y-21057167D01*
X7711309Y-21076214D01*
X7711309Y-21095262D01*
X7616071Y-21114310D01*
X7787500Y-21171452D02*
X7806548Y-21180976D01*
X7844643Y-21180976D01*
X7863690Y-21171452D01*
X7873214Y-21152405D01*
X7873214Y-21142881D01*
X7863690Y-21123833D01*
X7844643Y-21114310D01*
X7816071Y-21114310D01*
X7797024Y-21104786D01*
X7787500Y-21085738D01*
X7787500Y-21076214D01*
X7797024Y-21057167D01*
X7816071Y-21047643D01*
X7844643Y-21047643D01*
X7863690Y-21057167D01*
X7939881Y-21257167D02*
X7949405Y-21247643D01*
X7968452Y-21219071D01*
X7977976Y-21200024D01*
X7987500Y-21171452D01*
X7997024Y-21123833D01*
X7997024Y-21085738D01*
X7987500Y-21038119D01*
X7977976Y-21009548D01*
X7968452Y-20990500D01*
X7949405Y-20961929D01*
X7939881Y-20952405D01*
D19*
X2867500Y-21299500D02*
X2977500Y-21409500D01*
X2977500Y-21299500D02*
X2867500Y-21409500D01*
X2922500Y-21409500D02*
X2977500Y-21354500D01*
X2922500Y-21299500D01*
X2867500Y-21354500D01*
X2922500Y-21409500D01*
D11*
X3339881Y-21444976D02*
X3225595Y-21444976D01*
X3282738Y-21444976D02*
X3282738Y-21244976D01*
X3263690Y-21273548D01*
X3244643Y-21292595D01*
X3225595Y-21302119D01*
X3425595Y-21425929D02*
X3435119Y-21435452D01*
X3425595Y-21444976D01*
X3416071Y-21435452D01*
X3425595Y-21425929D01*
X3425595Y-21444976D01*
X3625595Y-21444976D02*
X3511309Y-21444976D01*
X3568452Y-21444976D02*
X3568452Y-21244976D01*
X3549405Y-21273548D01*
X3530357Y-21292595D01*
X3511309Y-21302119D01*
X3749405Y-21244976D02*
X3768452Y-21244976D01*
X3787500Y-21254500D01*
X3797024Y-21264024D01*
X3806548Y-21283071D01*
X3816071Y-21321167D01*
X3816071Y-21368786D01*
X3806548Y-21406881D01*
X3797024Y-21425929D01*
X3787500Y-21435452D01*
X3768452Y-21444976D01*
X3749405Y-21444976D01*
X3730357Y-21435452D01*
X3720833Y-21425929D01*
X3711309Y-21406881D01*
X3701786Y-21368786D01*
X3701786Y-21321167D01*
X3711309Y-21283071D01*
X3720833Y-21264024D01*
X3730357Y-21254500D01*
X3749405Y-21244976D01*
X3939881Y-21244976D02*
X3958928Y-21244976D01*
X3977976Y-21254500D01*
X3987500Y-21264024D01*
X3997024Y-21283071D01*
X4006548Y-21321167D01*
X4006548Y-21368786D01*
X3997024Y-21406881D01*
X3987500Y-21425929D01*
X3977976Y-21435452D01*
X3958928Y-21444976D01*
X3939881Y-21444976D01*
X3920833Y-21435452D01*
X3911309Y-21425929D01*
X3901786Y-21406881D01*
X3892262Y-21368786D01*
X3892262Y-21321167D01*
X3901786Y-21283071D01*
X3911309Y-21264024D01*
X3920833Y-21254500D01*
X3939881Y-21244976D01*
X4092262Y-21444976D02*
X4092262Y-21311643D01*
X4092262Y-21330690D02*
X4101786Y-21321167D01*
X4120833Y-21311643D01*
X4149405Y-21311643D01*
X4168452Y-21321167D01*
X4177976Y-21340214D01*
X4177976Y-21444976D01*
X4177976Y-21340214D02*
X4187500Y-21321167D01*
X4206548Y-21311643D01*
X4235119Y-21311643D01*
X4254167Y-21321167D01*
X4263690Y-21340214D01*
X4263690Y-21444976D01*
X4358929Y-21444976D02*
X4358929Y-21311643D01*
X4358929Y-21330690D02*
X4368452Y-21321167D01*
X4387500Y-21311643D01*
X4416071Y-21311643D01*
X4435119Y-21321167D01*
X4444643Y-21340214D01*
X4444643Y-21444976D01*
X4444643Y-21340214D02*
X4454167Y-21321167D01*
X4473214Y-21311643D01*
X4501786Y-21311643D01*
X4520833Y-21321167D01*
X4530357Y-21340214D01*
X4530357Y-21444976D01*
X4920833Y-21235452D02*
X4749405Y-21492595D01*
X5177976Y-21244976D02*
X5197024Y-21244976D01*
X5216071Y-21254500D01*
X5225595Y-21264024D01*
X5235119Y-21283071D01*
X5244643Y-21321167D01*
X5244643Y-21368786D01*
X5235119Y-21406881D01*
X5225595Y-21425929D01*
X5216071Y-21435452D01*
X5197024Y-21444976D01*
X5177976Y-21444976D01*
X5158929Y-21435452D01*
X5149405Y-21425929D01*
X5139881Y-21406881D01*
X5130357Y-21368786D01*
X5130357Y-21321167D01*
X5139881Y-21283071D01*
X5149405Y-21264024D01*
X5158929Y-21254500D01*
X5177976Y-21244976D01*
X5330357Y-21425929D02*
X5339881Y-21435452D01*
X5330357Y-21444976D01*
X5320833Y-21435452D01*
X5330357Y-21425929D01*
X5330357Y-21444976D01*
X5463690Y-21244976D02*
X5482738Y-21244976D01*
X5501786Y-21254500D01*
X5511310Y-21264024D01*
X5520833Y-21283071D01*
X5530357Y-21321167D01*
X5530357Y-21368786D01*
X5520833Y-21406881D01*
X5511310Y-21425929D01*
X5501786Y-21435452D01*
X5482738Y-21444976D01*
X5463690Y-21444976D01*
X5444643Y-21435452D01*
X5435119Y-21425929D01*
X5425595Y-21406881D01*
X5416071Y-21368786D01*
X5416071Y-21321167D01*
X5425595Y-21283071D01*
X5435119Y-21264024D01*
X5444643Y-21254500D01*
X5463690Y-21244976D01*
X5701786Y-21311643D02*
X5701786Y-21444976D01*
X5654167Y-21235452D02*
X5606548Y-21378310D01*
X5730357Y-21378310D01*
X5787500Y-21244976D02*
X5911309Y-21244976D01*
X5844643Y-21321167D01*
X5873214Y-21321167D01*
X5892262Y-21330690D01*
X5901786Y-21340214D01*
X5911309Y-21359262D01*
X5911309Y-21406881D01*
X5901786Y-21425929D01*
X5892262Y-21435452D01*
X5873214Y-21444976D01*
X5816071Y-21444976D01*
X5797024Y-21435452D01*
X5787500Y-21425929D01*
X5977976Y-21244976D02*
X6101786Y-21244976D01*
X6035119Y-21321167D01*
X6063690Y-21321167D01*
X6082738Y-21330690D01*
X6092262Y-21340214D01*
X6101786Y-21359262D01*
X6101786Y-21406881D01*
X6092262Y-21425929D01*
X6082738Y-21435452D01*
X6063690Y-21444976D01*
X6006548Y-21444976D01*
X5987500Y-21435452D01*
X5977976Y-21425929D01*
X6177976Y-21244976D02*
X6177976Y-21283071D01*
X6254167Y-21244976D02*
X6254167Y-21283071D01*
X6549405Y-21521167D02*
X6539881Y-21511643D01*
X6520833Y-21483071D01*
X6511309Y-21464024D01*
X6501786Y-21435452D01*
X6492262Y-21387833D01*
X6492262Y-21349738D01*
X6501786Y-21302119D01*
X6511309Y-21273548D01*
X6520833Y-21254500D01*
X6539881Y-21225929D01*
X6549405Y-21216405D01*
X6730357Y-21444976D02*
X6616071Y-21444976D01*
X6673214Y-21444976D02*
X6673214Y-21244976D01*
X6654167Y-21273548D01*
X6635119Y-21292595D01*
X6616071Y-21302119D01*
X6911309Y-21244976D02*
X6816071Y-21244976D01*
X6806548Y-21340214D01*
X6816071Y-21330690D01*
X6835119Y-21321167D01*
X6882738Y-21321167D01*
X6901786Y-21330690D01*
X6911309Y-21340214D01*
X6920833Y-21359262D01*
X6920833Y-21406881D01*
X6911309Y-21425929D01*
X6901786Y-21435452D01*
X6882738Y-21444976D01*
X6835119Y-21444976D01*
X6816071Y-21435452D01*
X6806548Y-21425929D01*
X7158928Y-21444976D02*
X7158928Y-21244976D01*
X7244643Y-21444976D02*
X7244643Y-21340214D01*
X7235119Y-21321167D01*
X7216071Y-21311643D01*
X7187500Y-21311643D01*
X7168452Y-21321167D01*
X7158928Y-21330690D01*
X7368452Y-21444976D02*
X7349405Y-21435452D01*
X7339881Y-21425929D01*
X7330357Y-21406881D01*
X7330357Y-21349738D01*
X7339881Y-21330690D01*
X7349405Y-21321167D01*
X7368452Y-21311643D01*
X7397024Y-21311643D01*
X7416071Y-21321167D01*
X7425595Y-21330690D01*
X7435119Y-21349738D01*
X7435119Y-21406881D01*
X7425595Y-21425929D01*
X7416071Y-21435452D01*
X7397024Y-21444976D01*
X7368452Y-21444976D01*
X7549405Y-21444976D02*
X7530357Y-21435452D01*
X7520833Y-21416405D01*
X7520833Y-21244976D01*
X7701786Y-21435452D02*
X7682738Y-21444976D01*
X7644643Y-21444976D01*
X7625595Y-21435452D01*
X7616071Y-21416405D01*
X7616071Y-21340214D01*
X7625595Y-21321167D01*
X7644643Y-21311643D01*
X7682738Y-21311643D01*
X7701786Y-21321167D01*
X7711309Y-21340214D01*
X7711309Y-21359262D01*
X7616071Y-21378310D01*
X7787500Y-21435452D02*
X7806548Y-21444976D01*
X7844643Y-21444976D01*
X7863690Y-21435452D01*
X7873214Y-21416405D01*
X7873214Y-21406881D01*
X7863690Y-21387833D01*
X7844643Y-21378310D01*
X7816071Y-21378310D01*
X7797024Y-21368786D01*
X7787500Y-21349738D01*
X7787500Y-21340214D01*
X7797024Y-21321167D01*
X7816071Y-21311643D01*
X7844643Y-21311643D01*
X7863690Y-21321167D01*
X7939881Y-21521167D02*
X7949405Y-21511643D01*
X7968452Y-21483071D01*
X7977976Y-21464024D01*
X7987500Y-21435452D01*
X7997024Y-21387833D01*
X7997024Y-21349738D01*
X7987500Y-21302119D01*
X7977976Y-21273548D01*
X7968452Y-21254500D01*
X7949405Y-21225929D01*
X7939881Y-21216405D01*
D20*
X2917500Y-21558500D02*
X2917500Y-21678500D01*
X2857500Y-21618500D02*
X2977500Y-21618500D01*
X2977500Y-21618500D02*
G75*
G03*
X2977500Y-21618500I-60000J0D01*
G01*
D11*
X3339881Y-21708976D02*
X3225595Y-21708976D01*
X3282738Y-21708976D02*
X3282738Y-21508976D01*
X3263690Y-21537548D01*
X3244643Y-21556595D01*
X3225595Y-21566119D01*
X3425595Y-21689929D02*
X3435119Y-21699452D01*
X3425595Y-21708976D01*
X3416071Y-21699452D01*
X3425595Y-21689929D01*
X3425595Y-21708976D01*
X3511309Y-21528024D02*
X3520833Y-21518500D01*
X3539881Y-21508976D01*
X3587500Y-21508976D01*
X3606548Y-21518500D01*
X3616071Y-21528024D01*
X3625595Y-21547071D01*
X3625595Y-21566119D01*
X3616071Y-21594690D01*
X3501786Y-21708976D01*
X3625595Y-21708976D01*
X3749405Y-21508976D02*
X3768452Y-21508976D01*
X3787500Y-21518500D01*
X3797024Y-21528024D01*
X3806548Y-21547071D01*
X3816071Y-21585167D01*
X3816071Y-21632786D01*
X3806548Y-21670881D01*
X3797024Y-21689929D01*
X3787500Y-21699452D01*
X3768452Y-21708976D01*
X3749405Y-21708976D01*
X3730357Y-21699452D01*
X3720833Y-21689929D01*
X3711309Y-21670881D01*
X3701786Y-21632786D01*
X3701786Y-21585167D01*
X3711309Y-21547071D01*
X3720833Y-21528024D01*
X3730357Y-21518500D01*
X3749405Y-21508976D01*
X3939881Y-21508976D02*
X3958928Y-21508976D01*
X3977976Y-21518500D01*
X3987500Y-21528024D01*
X3997024Y-21547071D01*
X4006548Y-21585167D01*
X4006548Y-21632786D01*
X3997024Y-21670881D01*
X3987500Y-21689929D01*
X3977976Y-21699452D01*
X3958928Y-21708976D01*
X3939881Y-21708976D01*
X3920833Y-21699452D01*
X3911309Y-21689929D01*
X3901786Y-21670881D01*
X3892262Y-21632786D01*
X3892262Y-21585167D01*
X3901786Y-21547071D01*
X3911309Y-21528024D01*
X3920833Y-21518500D01*
X3939881Y-21508976D01*
X4092262Y-21708976D02*
X4092262Y-21575643D01*
X4092262Y-21594690D02*
X4101786Y-21585167D01*
X4120833Y-21575643D01*
X4149405Y-21575643D01*
X4168452Y-21585167D01*
X4177976Y-21604214D01*
X4177976Y-21708976D01*
X4177976Y-21604214D02*
X4187500Y-21585167D01*
X4206548Y-21575643D01*
X4235119Y-21575643D01*
X4254167Y-21585167D01*
X4263690Y-21604214D01*
X4263690Y-21708976D01*
X4358929Y-21708976D02*
X4358929Y-21575643D01*
X4358929Y-21594690D02*
X4368452Y-21585167D01*
X4387500Y-21575643D01*
X4416071Y-21575643D01*
X4435119Y-21585167D01*
X4444643Y-21604214D01*
X4444643Y-21708976D01*
X4444643Y-21604214D02*
X4454167Y-21585167D01*
X4473214Y-21575643D01*
X4501786Y-21575643D01*
X4520833Y-21585167D01*
X4530357Y-21604214D01*
X4530357Y-21708976D01*
X4920833Y-21499452D02*
X4749405Y-21756595D01*
X5177976Y-21508976D02*
X5197024Y-21508976D01*
X5216071Y-21518500D01*
X5225595Y-21528024D01*
X5235119Y-21547071D01*
X5244643Y-21585167D01*
X5244643Y-21632786D01*
X5235119Y-21670881D01*
X5225595Y-21689929D01*
X5216071Y-21699452D01*
X5197024Y-21708976D01*
X5177976Y-21708976D01*
X5158929Y-21699452D01*
X5149405Y-21689929D01*
X5139881Y-21670881D01*
X5130357Y-21632786D01*
X5130357Y-21585167D01*
X5139881Y-21547071D01*
X5149405Y-21528024D01*
X5158929Y-21518500D01*
X5177976Y-21508976D01*
X5330357Y-21689929D02*
X5339881Y-21699452D01*
X5330357Y-21708976D01*
X5320833Y-21699452D01*
X5330357Y-21689929D01*
X5330357Y-21708976D01*
X5463690Y-21508976D02*
X5482738Y-21508976D01*
X5501786Y-21518500D01*
X5511310Y-21528024D01*
X5520833Y-21547071D01*
X5530357Y-21585167D01*
X5530357Y-21632786D01*
X5520833Y-21670881D01*
X5511310Y-21689929D01*
X5501786Y-21699452D01*
X5482738Y-21708976D01*
X5463690Y-21708976D01*
X5444643Y-21699452D01*
X5435119Y-21689929D01*
X5425595Y-21670881D01*
X5416071Y-21632786D01*
X5416071Y-21585167D01*
X5425595Y-21547071D01*
X5435119Y-21528024D01*
X5444643Y-21518500D01*
X5463690Y-21508976D01*
X5701786Y-21575643D02*
X5701786Y-21708976D01*
X5654167Y-21499452D02*
X5606548Y-21642310D01*
X5730357Y-21642310D01*
X5787500Y-21508976D02*
X5920833Y-21508976D01*
X5835119Y-21708976D01*
X5987500Y-21528024D02*
X5997024Y-21518500D01*
X6016071Y-21508976D01*
X6063690Y-21508976D01*
X6082738Y-21518500D01*
X6092262Y-21528024D01*
X6101786Y-21547071D01*
X6101786Y-21566119D01*
X6092262Y-21594690D01*
X5977976Y-21708976D01*
X6101786Y-21708976D01*
X6177976Y-21508976D02*
X6177976Y-21547071D01*
X6254167Y-21508976D02*
X6254167Y-21547071D01*
X6549405Y-21785167D02*
X6539881Y-21775643D01*
X6520833Y-21747071D01*
X6511309Y-21728024D01*
X6501786Y-21699452D01*
X6492262Y-21651833D01*
X6492262Y-21613738D01*
X6501786Y-21566119D01*
X6511309Y-21537548D01*
X6520833Y-21518500D01*
X6539881Y-21489929D01*
X6549405Y-21480405D01*
X6616071Y-21528024D02*
X6625595Y-21518500D01*
X6644643Y-21508976D01*
X6692262Y-21508976D01*
X6711309Y-21518500D01*
X6720833Y-21528024D01*
X6730357Y-21547071D01*
X6730357Y-21566119D01*
X6720833Y-21594690D01*
X6606548Y-21708976D01*
X6730357Y-21708976D01*
X6968452Y-21708976D02*
X6968452Y-21508976D01*
X7054167Y-21708976D02*
X7054167Y-21604214D01*
X7044643Y-21585167D01*
X7025595Y-21575643D01*
X6997024Y-21575643D01*
X6977976Y-21585167D01*
X6968452Y-21594690D01*
X7177976Y-21708976D02*
X7158928Y-21699452D01*
X7149405Y-21689929D01*
X7139881Y-21670881D01*
X7139881Y-21613738D01*
X7149405Y-21594690D01*
X7158928Y-21585167D01*
X7177976Y-21575643D01*
X7206548Y-21575643D01*
X7225595Y-21585167D01*
X7235119Y-21594690D01*
X7244643Y-21613738D01*
X7244643Y-21670881D01*
X7235119Y-21689929D01*
X7225595Y-21699452D01*
X7206548Y-21708976D01*
X7177976Y-21708976D01*
X7358928Y-21708976D02*
X7339881Y-21699452D01*
X7330357Y-21680405D01*
X7330357Y-21508976D01*
X7511309Y-21699452D02*
X7492262Y-21708976D01*
X7454167Y-21708976D01*
X7435119Y-21699452D01*
X7425595Y-21680405D01*
X7425595Y-21604214D01*
X7435119Y-21585167D01*
X7454167Y-21575643D01*
X7492262Y-21575643D01*
X7511309Y-21585167D01*
X7520833Y-21604214D01*
X7520833Y-21623262D01*
X7425595Y-21642310D01*
X7597024Y-21699452D02*
X7616071Y-21708976D01*
X7654167Y-21708976D01*
X7673214Y-21699452D01*
X7682738Y-21680405D01*
X7682738Y-21670881D01*
X7673214Y-21651833D01*
X7654167Y-21642310D01*
X7625595Y-21642310D01*
X7606548Y-21632786D01*
X7597024Y-21613738D01*
X7597024Y-21604214D01*
X7606548Y-21585167D01*
X7625595Y-21575643D01*
X7654167Y-21575643D01*
X7673214Y-21585167D01*
X7749405Y-21785167D02*
X7758928Y-21775643D01*
X7777976Y-21747071D01*
X7787500Y-21728024D01*
X7797024Y-21699452D01*
X7806548Y-21651833D01*
X7806548Y-21613738D01*
X7797024Y-21566119D01*
X7787500Y-21537548D01*
X7777976Y-21518500D01*
X7758928Y-21489929D01*
X7749405Y-21480405D01*
D21*
X2955533Y-21935534D02*
X2955533Y-21829467D01*
X2849466Y-21829467D01*
X2849466Y-21935534D01*
X2955533Y-21935534D01*
X2977500Y-21882500D02*
G75*
G03*
X2977500Y-21882500I-75000J0D01*
G01*
D11*
X3339881Y-21972976D02*
X3225595Y-21972976D01*
X3282738Y-21972976D02*
X3282738Y-21772976D01*
X3263690Y-21801548D01*
X3244643Y-21820595D01*
X3225595Y-21830119D01*
X3425595Y-21953929D02*
X3435119Y-21963452D01*
X3425595Y-21972976D01*
X3416071Y-21963452D01*
X3425595Y-21953929D01*
X3425595Y-21972976D01*
X3616071Y-21772976D02*
X3520833Y-21772976D01*
X3511309Y-21868214D01*
X3520833Y-21858690D01*
X3539881Y-21849167D01*
X3587500Y-21849167D01*
X3606548Y-21858690D01*
X3616071Y-21868214D01*
X3625595Y-21887262D01*
X3625595Y-21934881D01*
X3616071Y-21953929D01*
X3606548Y-21963452D01*
X3587500Y-21972976D01*
X3539881Y-21972976D01*
X3520833Y-21963452D01*
X3511309Y-21953929D01*
X3749405Y-21772976D02*
X3768452Y-21772976D01*
X3787500Y-21782500D01*
X3797024Y-21792024D01*
X3806548Y-21811071D01*
X3816071Y-21849167D01*
X3816071Y-21896786D01*
X3806548Y-21934881D01*
X3797024Y-21953929D01*
X3787500Y-21963452D01*
X3768452Y-21972976D01*
X3749405Y-21972976D01*
X3730357Y-21963452D01*
X3720833Y-21953929D01*
X3711309Y-21934881D01*
X3701786Y-21896786D01*
X3701786Y-21849167D01*
X3711309Y-21811071D01*
X3720833Y-21792024D01*
X3730357Y-21782500D01*
X3749405Y-21772976D01*
X3939881Y-21772976D02*
X3958928Y-21772976D01*
X3977976Y-21782500D01*
X3987500Y-21792024D01*
X3997024Y-21811071D01*
X4006548Y-21849167D01*
X4006548Y-21896786D01*
X3997024Y-21934881D01*
X3987500Y-21953929D01*
X3977976Y-21963452D01*
X3958928Y-21972976D01*
X3939881Y-21972976D01*
X3920833Y-21963452D01*
X3911309Y-21953929D01*
X3901786Y-21934881D01*
X3892262Y-21896786D01*
X3892262Y-21849167D01*
X3901786Y-21811071D01*
X3911309Y-21792024D01*
X3920833Y-21782500D01*
X3939881Y-21772976D01*
X4092262Y-21972976D02*
X4092262Y-21839643D01*
X4092262Y-21858690D02*
X4101786Y-21849167D01*
X4120833Y-21839643D01*
X4149405Y-21839643D01*
X4168452Y-21849167D01*
X4177976Y-21868214D01*
X4177976Y-21972976D01*
X4177976Y-21868214D02*
X4187500Y-21849167D01*
X4206548Y-21839643D01*
X4235119Y-21839643D01*
X4254167Y-21849167D01*
X4263690Y-21868214D01*
X4263690Y-21972976D01*
X4358929Y-21972976D02*
X4358929Y-21839643D01*
X4358929Y-21858690D02*
X4368452Y-21849167D01*
X4387500Y-21839643D01*
X4416071Y-21839643D01*
X4435119Y-21849167D01*
X4444643Y-21868214D01*
X4444643Y-21972976D01*
X4444643Y-21868214D02*
X4454167Y-21849167D01*
X4473214Y-21839643D01*
X4501786Y-21839643D01*
X4520833Y-21849167D01*
X4530357Y-21868214D01*
X4530357Y-21972976D01*
X4920833Y-21763452D02*
X4749405Y-22020595D01*
X5177976Y-21772976D02*
X5197024Y-21772976D01*
X5216071Y-21782500D01*
X5225595Y-21792024D01*
X5235119Y-21811071D01*
X5244643Y-21849167D01*
X5244643Y-21896786D01*
X5235119Y-21934881D01*
X5225595Y-21953929D01*
X5216071Y-21963452D01*
X5197024Y-21972976D01*
X5177976Y-21972976D01*
X5158929Y-21963452D01*
X5149405Y-21953929D01*
X5139881Y-21934881D01*
X5130357Y-21896786D01*
X5130357Y-21849167D01*
X5139881Y-21811071D01*
X5149405Y-21792024D01*
X5158929Y-21782500D01*
X5177976Y-21772976D01*
X5330357Y-21953929D02*
X5339881Y-21963452D01*
X5330357Y-21972976D01*
X5320833Y-21963452D01*
X5330357Y-21953929D01*
X5330357Y-21972976D01*
X5463690Y-21772976D02*
X5482738Y-21772976D01*
X5501786Y-21782500D01*
X5511310Y-21792024D01*
X5520833Y-21811071D01*
X5530357Y-21849167D01*
X5530357Y-21896786D01*
X5520833Y-21934881D01*
X5511310Y-21953929D01*
X5501786Y-21963452D01*
X5482738Y-21972976D01*
X5463690Y-21972976D01*
X5444643Y-21963452D01*
X5435119Y-21953929D01*
X5425595Y-21934881D01*
X5416071Y-21896786D01*
X5416071Y-21849167D01*
X5425595Y-21811071D01*
X5435119Y-21792024D01*
X5444643Y-21782500D01*
X5463690Y-21772976D01*
X5711309Y-21772976D02*
X5616071Y-21772976D01*
X5606548Y-21868214D01*
X5616071Y-21858690D01*
X5635119Y-21849167D01*
X5682738Y-21849167D01*
X5701786Y-21858690D01*
X5711309Y-21868214D01*
X5720833Y-21887262D01*
X5720833Y-21934881D01*
X5711309Y-21953929D01*
X5701786Y-21963452D01*
X5682738Y-21972976D01*
X5635119Y-21972976D01*
X5616071Y-21963452D01*
X5606548Y-21953929D01*
X5816071Y-21972976D02*
X5854167Y-21972976D01*
X5873214Y-21963452D01*
X5882738Y-21953929D01*
X5901786Y-21925357D01*
X5911309Y-21887262D01*
X5911309Y-21811071D01*
X5901786Y-21792024D01*
X5892262Y-21782500D01*
X5873214Y-21772976D01*
X5835119Y-21772976D01*
X5816071Y-21782500D01*
X5806548Y-21792024D01*
X5797024Y-21811071D01*
X5797024Y-21858690D01*
X5806548Y-21877738D01*
X5816071Y-21887262D01*
X5835119Y-21896786D01*
X5873214Y-21896786D01*
X5892262Y-21887262D01*
X5901786Y-21877738D01*
X5911309Y-21858690D01*
X6101786Y-21972976D02*
X5987500Y-21972976D01*
X6044643Y-21972976D02*
X6044643Y-21772976D01*
X6025595Y-21801548D01*
X6006548Y-21820595D01*
X5987500Y-21830119D01*
X6177976Y-21772976D02*
X6177976Y-21811071D01*
X6254167Y-21772976D02*
X6254167Y-21811071D01*
X6549405Y-22049167D02*
X6539881Y-22039643D01*
X6520833Y-22011071D01*
X6511309Y-21992024D01*
X6501786Y-21963452D01*
X6492262Y-21915833D01*
X6492262Y-21877738D01*
X6501786Y-21830119D01*
X6511309Y-21801548D01*
X6520833Y-21782500D01*
X6539881Y-21753929D01*
X6549405Y-21744405D01*
X6730357Y-21972976D02*
X6616071Y-21972976D01*
X6673214Y-21972976D02*
X6673214Y-21772976D01*
X6654167Y-21801548D01*
X6635119Y-21820595D01*
X6616071Y-21830119D01*
X6968452Y-21972976D02*
X6968452Y-21772976D01*
X7054167Y-21972976D02*
X7054167Y-21868214D01*
X7044643Y-21849167D01*
X7025595Y-21839643D01*
X6997024Y-21839643D01*
X6977976Y-21849167D01*
X6968452Y-21858690D01*
X7177976Y-21972976D02*
X7158928Y-21963452D01*
X7149405Y-21953929D01*
X7139881Y-21934881D01*
X7139881Y-21877738D01*
X7149405Y-21858690D01*
X7158928Y-21849167D01*
X7177976Y-21839643D01*
X7206548Y-21839643D01*
X7225595Y-21849167D01*
X7235119Y-21858690D01*
X7244643Y-21877738D01*
X7244643Y-21934881D01*
X7235119Y-21953929D01*
X7225595Y-21963452D01*
X7206548Y-21972976D01*
X7177976Y-21972976D01*
X7358928Y-21972976D02*
X7339881Y-21963452D01*
X7330357Y-21944405D01*
X7330357Y-21772976D01*
X7511309Y-21963452D02*
X7492262Y-21972976D01*
X7454167Y-21972976D01*
X7435119Y-21963452D01*
X7425595Y-21944405D01*
X7425595Y-21868214D01*
X7435119Y-21849167D01*
X7454167Y-21839643D01*
X7492262Y-21839643D01*
X7511309Y-21849167D01*
X7520833Y-21868214D01*
X7520833Y-21887262D01*
X7425595Y-21906310D01*
X7587500Y-22049167D02*
X7597024Y-22039643D01*
X7616071Y-22011071D01*
X7625595Y-21992024D01*
X7635119Y-21963452D01*
X7644643Y-21915833D01*
X7644643Y-21877738D01*
X7635119Y-21830119D01*
X7625595Y-21801548D01*
X7616071Y-21782500D01*
X7597024Y-21753929D01*
X7587500Y-21744405D01*
D22*
X2892500Y-22237500D02*
X2977500Y-22152500D01*
X2892500Y-22067500D01*
X2807500Y-22152500D01*
X2892500Y-22237500D01*
X2977500Y-22152500D02*
G75*
G03*
X2977500Y-22152500I-85000J0D01*
G01*
D11*
X3339881Y-22242976D02*
X3225595Y-22242976D01*
X3282738Y-22242976D02*
X3282738Y-22042976D01*
X3263690Y-22071548D01*
X3244643Y-22090595D01*
X3225595Y-22100119D01*
X3425595Y-22223929D02*
X3435119Y-22233452D01*
X3425595Y-22242976D01*
X3416071Y-22233452D01*
X3425595Y-22223929D01*
X3425595Y-22242976D01*
X3501786Y-22042976D02*
X3635119Y-22042976D01*
X3549405Y-22242976D01*
X3749405Y-22042976D02*
X3768452Y-22042976D01*
X3787500Y-22052500D01*
X3797024Y-22062024D01*
X3806548Y-22081071D01*
X3816071Y-22119167D01*
X3816071Y-22166786D01*
X3806548Y-22204881D01*
X3797024Y-22223929D01*
X3787500Y-22233452D01*
X3768452Y-22242976D01*
X3749405Y-22242976D01*
X3730357Y-22233452D01*
X3720833Y-22223929D01*
X3711309Y-22204881D01*
X3701786Y-22166786D01*
X3701786Y-22119167D01*
X3711309Y-22081071D01*
X3720833Y-22062024D01*
X3730357Y-22052500D01*
X3749405Y-22042976D01*
X3939881Y-22042976D02*
X3958928Y-22042976D01*
X3977976Y-22052500D01*
X3987500Y-22062024D01*
X3997024Y-22081071D01*
X4006548Y-22119167D01*
X4006548Y-22166786D01*
X3997024Y-22204881D01*
X3987500Y-22223929D01*
X3977976Y-22233452D01*
X3958928Y-22242976D01*
X3939881Y-22242976D01*
X3920833Y-22233452D01*
X3911309Y-22223929D01*
X3901786Y-22204881D01*
X3892262Y-22166786D01*
X3892262Y-22119167D01*
X3901786Y-22081071D01*
X3911309Y-22062024D01*
X3920833Y-22052500D01*
X3939881Y-22042976D01*
X4092262Y-22242976D02*
X4092262Y-22109643D01*
X4092262Y-22128690D02*
X4101786Y-22119167D01*
X4120833Y-22109643D01*
X4149405Y-22109643D01*
X4168452Y-22119167D01*
X4177976Y-22138214D01*
X4177976Y-22242976D01*
X4177976Y-22138214D02*
X4187500Y-22119167D01*
X4206548Y-22109643D01*
X4235119Y-22109643D01*
X4254167Y-22119167D01*
X4263690Y-22138214D01*
X4263690Y-22242976D01*
X4358929Y-22242976D02*
X4358929Y-22109643D01*
X4358929Y-22128690D02*
X4368452Y-22119167D01*
X4387500Y-22109643D01*
X4416071Y-22109643D01*
X4435119Y-22119167D01*
X4444643Y-22138214D01*
X4444643Y-22242976D01*
X4444643Y-22138214D02*
X4454167Y-22119167D01*
X4473214Y-22109643D01*
X4501786Y-22109643D01*
X4520833Y-22119167D01*
X4530357Y-22138214D01*
X4530357Y-22242976D01*
X4920833Y-22033452D02*
X4749405Y-22290595D01*
X5177976Y-22042976D02*
X5197024Y-22042976D01*
X5216071Y-22052500D01*
X5225595Y-22062024D01*
X5235119Y-22081071D01*
X5244643Y-22119167D01*
X5244643Y-22166786D01*
X5235119Y-22204881D01*
X5225595Y-22223929D01*
X5216071Y-22233452D01*
X5197024Y-22242976D01*
X5177976Y-22242976D01*
X5158929Y-22233452D01*
X5149405Y-22223929D01*
X5139881Y-22204881D01*
X5130357Y-22166786D01*
X5130357Y-22119167D01*
X5139881Y-22081071D01*
X5149405Y-22062024D01*
X5158929Y-22052500D01*
X5177976Y-22042976D01*
X5330357Y-22223929D02*
X5339881Y-22233452D01*
X5330357Y-22242976D01*
X5320833Y-22233452D01*
X5330357Y-22223929D01*
X5330357Y-22242976D01*
X5463690Y-22042976D02*
X5482738Y-22042976D01*
X5501786Y-22052500D01*
X5511310Y-22062024D01*
X5520833Y-22081071D01*
X5530357Y-22119167D01*
X5530357Y-22166786D01*
X5520833Y-22204881D01*
X5511310Y-22223929D01*
X5501786Y-22233452D01*
X5482738Y-22242976D01*
X5463690Y-22242976D01*
X5444643Y-22233452D01*
X5435119Y-22223929D01*
X5425595Y-22204881D01*
X5416071Y-22166786D01*
X5416071Y-22119167D01*
X5425595Y-22081071D01*
X5435119Y-22062024D01*
X5444643Y-22052500D01*
X5463690Y-22042976D01*
X5701786Y-22042976D02*
X5663690Y-22042976D01*
X5644643Y-22052500D01*
X5635119Y-22062024D01*
X5616071Y-22090595D01*
X5606548Y-22128690D01*
X5606548Y-22204881D01*
X5616071Y-22223929D01*
X5625595Y-22233452D01*
X5644643Y-22242976D01*
X5682738Y-22242976D01*
X5701786Y-22233452D01*
X5711309Y-22223929D01*
X5720833Y-22204881D01*
X5720833Y-22157262D01*
X5711309Y-22138214D01*
X5701786Y-22128690D01*
X5682738Y-22119167D01*
X5644643Y-22119167D01*
X5625595Y-22128690D01*
X5616071Y-22138214D01*
X5606548Y-22157262D01*
X5892262Y-22042976D02*
X5854167Y-22042976D01*
X5835119Y-22052500D01*
X5825595Y-22062024D01*
X5806548Y-22090595D01*
X5797024Y-22128690D01*
X5797024Y-22204881D01*
X5806548Y-22223929D01*
X5816071Y-22233452D01*
X5835119Y-22242976D01*
X5873214Y-22242976D01*
X5892262Y-22233452D01*
X5901786Y-22223929D01*
X5911309Y-22204881D01*
X5911309Y-22157262D01*
X5901786Y-22138214D01*
X5892262Y-22128690D01*
X5873214Y-22119167D01*
X5835119Y-22119167D01*
X5816071Y-22128690D01*
X5806548Y-22138214D01*
X5797024Y-22157262D01*
X6006548Y-22242976D02*
X6044643Y-22242976D01*
X6063690Y-22233452D01*
X6073214Y-22223929D01*
X6092262Y-22195357D01*
X6101786Y-22157262D01*
X6101786Y-22081071D01*
X6092262Y-22062024D01*
X6082738Y-22052500D01*
X6063690Y-22042976D01*
X6025595Y-22042976D01*
X6006548Y-22052500D01*
X5997024Y-22062024D01*
X5987500Y-22081071D01*
X5987500Y-22128690D01*
X5997024Y-22147738D01*
X6006548Y-22157262D01*
X6025595Y-22166786D01*
X6063690Y-22166786D01*
X6082738Y-22157262D01*
X6092262Y-22147738D01*
X6101786Y-22128690D01*
X6177976Y-22042976D02*
X6177976Y-22081071D01*
X6254167Y-22042976D02*
X6254167Y-22081071D01*
X6549405Y-22319167D02*
X6539881Y-22309643D01*
X6520833Y-22281071D01*
X6511309Y-22262024D01*
X6501786Y-22233452D01*
X6492262Y-22185833D01*
X6492262Y-22147738D01*
X6501786Y-22100119D01*
X6511309Y-22071548D01*
X6520833Y-22052500D01*
X6539881Y-22023929D01*
X6549405Y-22014405D01*
X6711309Y-22109643D02*
X6711309Y-22242976D01*
X6663690Y-22033452D02*
X6616071Y-22176310D01*
X6739881Y-22176310D01*
X6968452Y-22242976D02*
X6968452Y-22042976D01*
X7054167Y-22242976D02*
X7054167Y-22138214D01*
X7044643Y-22119167D01*
X7025595Y-22109643D01*
X6997024Y-22109643D01*
X6977976Y-22119167D01*
X6968452Y-22128690D01*
X7177976Y-22242976D02*
X7158928Y-22233452D01*
X7149405Y-22223929D01*
X7139881Y-22204881D01*
X7139881Y-22147738D01*
X7149405Y-22128690D01*
X7158928Y-22119167D01*
X7177976Y-22109643D01*
X7206548Y-22109643D01*
X7225595Y-22119167D01*
X7235119Y-22128690D01*
X7244643Y-22147738D01*
X7244643Y-22204881D01*
X7235119Y-22223929D01*
X7225595Y-22233452D01*
X7206548Y-22242976D01*
X7177976Y-22242976D01*
X7358928Y-22242976D02*
X7339881Y-22233452D01*
X7330357Y-22214405D01*
X7330357Y-22042976D01*
X7511309Y-22233452D02*
X7492262Y-22242976D01*
X7454167Y-22242976D01*
X7435119Y-22233452D01*
X7425595Y-22214405D01*
X7425595Y-22138214D01*
X7435119Y-22119167D01*
X7454167Y-22109643D01*
X7492262Y-22109643D01*
X7511309Y-22119167D01*
X7520833Y-22138214D01*
X7520833Y-22157262D01*
X7425595Y-22176310D01*
X7597024Y-22233452D02*
X7616071Y-22242976D01*
X7654167Y-22242976D01*
X7673214Y-22233452D01*
X7682738Y-22214405D01*
X7682738Y-22204881D01*
X7673214Y-22185833D01*
X7654167Y-22176310D01*
X7625595Y-22176310D01*
X7606548Y-22166786D01*
X7597024Y-22147738D01*
X7597024Y-22138214D01*
X7606548Y-22119167D01*
X7625595Y-22109643D01*
X7654167Y-22109643D01*
X7673214Y-22119167D01*
X7749405Y-22319167D02*
X7758928Y-22309643D01*
X7777976Y-22281071D01*
X7787500Y-22262024D01*
X7797024Y-22233452D01*
X7806548Y-22185833D01*
X7806548Y-22147738D01*
X7797024Y-22100119D01*
X7787500Y-22071548D01*
X7777976Y-22052500D01*
X7758928Y-22023929D01*
X7749405Y-22014405D01*
M02*
