M48
; DRILL file {KiCad (6.0.9)} date Вс 04 дек 2022 18:18:52
; FORMAT={-:-/ absolute / metric / decimal}
; #@! TF.CreationDate,2022-12-04T18:18:52+03:00
; #@! TF.GenerationSoftware,Kicad,Pcbnew,(6.0.9)
; #@! TF.FileFunction,Plated,1,2,PTH
FMAT,2
METRIC
; #@! TA.AperFunction,Plated,PTH,ComponentDrill
T1C0.200
; #@! TA.AperFunction,Plated,PTH,ViaDrill
T2C0.250
; #@! TA.AperFunction,Plated,PTH,ComponentDrill
T3C0.400
; #@! TA.AperFunction,Plated,PTH,ViaDrill
T4C0.500
; #@! TA.AperFunction,Plated,PTH,ComponentDrill
T5C0.800
; #@! TA.AperFunction,Plated,PTH,ViaDrill
T6C0.875
; #@! TA.AperFunction,Plated,PTH,ComponentDrill
T7C0.900
; #@! TA.AperFunction,Plated,PTH,ComponentDrill
T8C1.000
; #@! TA.AperFunction,Plated,PTH,ComponentDrill
T9C1.100
; #@! TA.AperFunction,Plated,PTH,ComponentDrill
T10C1.200
; #@! TA.AperFunction,Plated,PTH,ComponentDrill
T11C1.500
; #@! TA.AperFunction,Plated,PTH,ComponentDrill
T12C1.700
%
G90
G05
T1
X37.31Y-120.317
X37.31Y-121.843
X38.072Y-119.555
X38.072Y-121.08
X38.072Y-122.605
X38.835Y-120.317
X38.835Y-121.843
X39.597Y-119.555
X39.597Y-121.08
X39.597Y-122.605
X40.36Y-120.317
X40.36Y-121.843
T2
X30.9Y-104.1
X32.1Y-147.0
X32.5Y-136.8
X36.1Y-108.3
X36.2Y-102.6
X36.6Y-135.2
X37.1Y-119.3
X37.1Y-122.8
X37.5Y-135.6
X37.9Y-136.3
X38.4Y-157.9
X39.1Y-94.4
X40.6Y-119.3
X40.6Y-122.8
X40.6Y-130.6
X41.0Y-131.7
X41.8Y-99.9
X42.0Y-159.0
X43.3Y-106.9
X44.2Y-108.8
X44.2Y-159.8
X44.8Y-127.9
X46.1Y-142.9
X47.6Y-141.7
X48.0Y-130.4
X48.0Y-158.7
X49.7Y-145.0
X50.3Y-144.1
X50.9Y-161.2
X51.9Y-149.7
X54.0Y-167.9
X54.1Y-152.0
X54.3Y-126.2
X54.4Y-112.7
X54.4Y-163.9
X56.2Y-145.9
X57.6Y-165.4
X59.7Y-165.8
X60.0Y-112.7
X62.7Y-157.0
X63.7Y-161.8
X64.2Y-141.6
X65.3Y-116.4
X66.3Y-121.5
X67.2Y-156.0
X76.0Y-120.1
X76.9Y-138.8
X77.8Y-147.0
X79.0Y-143.6
X80.8Y-133.2
X81.8Y-146.5
X82.8Y-133.1
X84.2Y-125.2
X84.5Y-142.4
X84.6Y-145.7
X88.7Y-133.1
X90.3Y-125.9
X90.5Y-133.1
X92.0Y-116.2
X102.95Y-116.45
T4
X31.495Y-127.605
X32.1Y-113.3
X38.0Y-105.1
X38.2Y-162.9
X45.0Y-134.9
X45.7Y-146.8
X47.0Y-126.1
X47.1Y-105.0
X54.3Y-105.3
X55.2Y-97.1
X55.9Y-119.6
X55.9Y-126.1
X55.9Y-128.4
X57.6Y-100.9
X57.6Y-103.8
X58.0Y-125.6
X59.5Y-152.9
X59.908Y-127.508
X60.3Y-105.3
X61.1Y-148.3
X61.9Y-136.6
X65.5Y-137.9
X69.4Y-138.4
X71.2Y-92.6
X73.6Y-144.3
X74.8Y-115.5
X74.9Y-152.6
X82.4Y-138.2
X85.5Y-128.137
X86.4Y-144.1
X88.6Y-146.2
X88.8Y-153.1
X88.9Y-151.5
X89.4Y-160.7
X91.6Y-119.6
X93.0Y-88.3
X95.2Y-167.7
X97.4Y-173.9
X101.3Y-173.8
X101.8Y-157.8
X105.2Y-160.1
X107.0Y-93.7
X112.237Y-173.037
X114.1Y-158.5
X114.7Y-94.2
X116.037Y-176.2
X123.537Y-123.337
X125.0Y-97.2
T5
X40.4Y-147.2
X40.4Y-149.74
X40.4Y-152.28
X46.9Y-166.3
X48.4Y-171.7
X48.4Y-174.24
X48.4Y-176.78
X48.9Y-166.3
X49.6Y-94.27
X49.6Y-99.15
X56.2Y-153.2
X56.2Y-155.74
X56.2Y-158.28
X58.0Y-89.245
X58.0Y-91.245
X61.0Y-119.745
X61.0Y-121.745
X62.8Y-113.655
X62.8Y-115.655
X65.745Y-150.2
X67.745Y-150.2
X70.2Y-127.697
X70.2Y-131.497
X89.22Y-104.9
X89.22Y-112.52
X91.76Y-104.9
X91.76Y-112.52
X94.3Y-104.9
X94.3Y-112.52
X96.84Y-104.9
X96.84Y-112.52
X97.8Y-140.655
X97.8Y-142.655
X99.38Y-104.9
X99.38Y-112.52
X101.92Y-104.9
X101.92Y-112.52
X104.46Y-104.9
X104.46Y-112.52
X106.575Y-118.38
X106.575Y-126.0
X107.0Y-104.9
X107.0Y-112.52
X109.115Y-118.38
X109.115Y-126.0
X111.655Y-118.38
X111.655Y-126.0
X113.945Y-145.7
X114.0Y-110.503
X114.0Y-114.303
X114.195Y-118.38
X114.195Y-126.0
X115.945Y-145.7
X116.735Y-118.38
X116.735Y-126.0
X119.275Y-118.38
X119.275Y-126.0
X119.4Y-97.9
X119.4Y-101.7
X121.815Y-118.38
X121.815Y-126.0
T6
X34.4Y-87.7
X34.4Y-97.6
X105.7Y-128.5
X120.9Y-111.8
X121.0Y-159.5
X123.042Y-128.5
T7
X32.5Y-138.835
X32.5Y-141.375
X35.0Y-163.925
X35.0Y-166.465
X35.0Y-169.0
X35.0Y-171.54
X35.0Y-174.025
X35.0Y-176.565
X63.025Y-92.1
X65.565Y-92.1
X98.925Y-88.6
X101.465Y-88.6
X127.1Y-101.525
X127.1Y-104.065
T8
X84.4Y-171.2
X84.4Y-183.3
X85.4Y-164.2
X85.4Y-176.3
X90.4Y-164.2
X90.4Y-176.3
X91.4Y-171.2
X91.4Y-183.3
X94.7Y-148.2
X95.7Y-155.2
X96.3Y-134.8
X96.9Y-178.7
X98.7Y-171.0
X99.7Y-164.0
X100.7Y-155.2
X101.7Y-148.2
X101.9Y-183.7
X103.0Y-143.1
X103.3Y-131.8
X104.7Y-164.0
X105.7Y-171.0
X106.5Y-183.3
X110.0Y-140.1
X110.3Y-171.1
X112.3Y-156.1
X116.6Y-135.7
X117.3Y-166.1
X118.5Y-178.3
X120.9Y-107.6
X122.0Y-164.7
X123.6Y-130.7
X123.9Y-114.6
X124.3Y-151.1
X127.0Y-171.7
X127.525Y-133.06
X127.525Y-135.6
X127.525Y-138.14
T9
X72.06Y-88.145
X74.6Y-88.145
X77.14Y-88.145
X99.055Y-118.76
X99.055Y-121.3
X99.055Y-123.84
X109.66Y-87.945
X112.2Y-87.945
X114.74Y-87.945
X128.055Y-116.76
X128.055Y-119.3
X128.055Y-121.84
X128.055Y-150.86
X128.055Y-153.4
X128.055Y-155.94
T10
X120.905Y-88.832
X125.985Y-88.832
T11
X125.35Y-181.1
T12
X122.81Y-178.56
X122.81Y-183.64
X127.89Y-178.56
X127.89Y-183.64
T3
G00X110.4Y-102.1
M15
G01X110.4Y-101.5
M16
G05
G00X110.4Y-104.6
M15
G01X110.4Y-104.0
M16
G05
G00X110.4Y-107.1
M15
G01X110.4Y-106.5
M16
G05
G00X113.6Y-102.1
M15
G01X113.6Y-101.5
M16
G05
G00X113.6Y-104.6
M15
G01X113.6Y-104.0
M16
G05
G00X113.6Y-107.1
M15
G01X113.6Y-106.5
M16
G05
T0
M30
