%TF.GenerationSoftware,KiCad,Pcbnew,(6.0.9)*%
%TF.CreationDate,2022-12-04T18:18:59+03:00*%
%TF.ProjectId,communicator_27mhz,636f6d6d-756e-4696-9361-746f725f3237,beta 2.3*%
%TF.SameCoordinates,Original*%
%TF.FileFunction,Soldermask,Top*%
%TF.FilePolarity,Negative*%
%FSLAX46Y46*%
G04 Gerber Fmt 4.6, Leading zero omitted, Abs format (unit mm)*
G04 Created by KiCad (PCBNEW (6.0.9)) date 2022-12-04 18:18:59*
%MOMM*%
%LPD*%
G01*
G04 APERTURE LIST*
G04 Aperture macros list*
%AMRoundRect*
0 Rectangle with rounded corners*
0 $1 Rounding radius*
0 $2 $3 $4 $5 $6 $7 $8 $9 X,Y pos of 4 corners*
0 Add a 4 corners polygon primitive as box body*
4,1,4,$2,$3,$4,$5,$6,$7,$8,$9,$2,$3,0*
0 Add four circle primitives for the rounded corners*
1,1,$1+$1,$2,$3*
1,1,$1+$1,$4,$5*
1,1,$1+$1,$6,$7*
1,1,$1+$1,$8,$9*
0 Add four rect primitives between the rounded corners*
20,1,$1+$1,$2,$3,$4,$5,0*
20,1,$1+$1,$4,$5,$6,$7,0*
20,1,$1+$1,$6,$7,$8,$9,0*
20,1,$1+$1,$8,$9,$2,$3,0*%
G04 Aperture macros list end*
%ADD10RoundRect,0.250000X-0.450000X0.350000X-0.450000X-0.350000X0.450000X-0.350000X0.450000X0.350000X0*%
%ADD11RoundRect,0.250000X-0.475000X0.337500X-0.475000X-0.337500X0.475000X-0.337500X0.475000X0.337500X0*%
%ADD12RoundRect,0.249999X-1.425001X0.450001X-1.425001X-0.450001X1.425001X-0.450001X1.425001X0.450001X0*%
%ADD13R,0.900000X1.200000*%
%ADD14RoundRect,0.250000X0.475000X-0.337500X0.475000X0.337500X-0.475000X0.337500X-0.475000X-0.337500X0*%
%ADD15C,2.100000*%
%ADD16RoundRect,0.250000X0.350000X0.450000X-0.350000X0.450000X-0.350000X-0.450000X0.350000X-0.450000X0*%
%ADD17RoundRect,0.250000X0.337500X0.475000X-0.337500X0.475000X-0.337500X-0.475000X0.337500X-0.475000X0*%
%ADD18RoundRect,0.250000X-0.450000X0.325000X-0.450000X-0.325000X0.450000X-0.325000X0.450000X0.325000X0*%
%ADD19RoundRect,0.250000X-0.350000X-0.450000X0.350000X-0.450000X0.350000X0.450000X-0.350000X0.450000X0*%
%ADD20RoundRect,0.250000X-0.337500X-0.475000X0.337500X-0.475000X0.337500X0.475000X-0.337500X0.475000X0*%
%ADD21R,2.000000X1.905000*%
%ADD22O,2.000000X1.905000*%
%ADD23RoundRect,0.250000X0.412500X0.650000X-0.412500X0.650000X-0.412500X-0.650000X0.412500X-0.650000X0*%
%ADD24RoundRect,0.250000X0.450000X-0.350000X0.450000X0.350000X-0.450000X0.350000X-0.450000X-0.350000X0*%
%ADD25R,1.905000X2.000000*%
%ADD26O,1.905000X2.000000*%
%ADD27R,1.600000X1.600000*%
%ADD28C,1.600000*%
%ADD29RoundRect,0.150000X0.150000X-0.587500X0.150000X0.587500X-0.150000X0.587500X-0.150000X-0.587500X0*%
%ADD30C,1.500000*%
%ADD31C,3.200000*%
%ADD32RoundRect,0.200100X-0.949900X0.949900X-0.949900X-0.949900X0.949900X-0.949900X0.949900X0.949900X0*%
%ADD33C,2.500000*%
%ADD34R,1.400000X0.300000*%
%ADD35RoundRect,0.250000X-0.325000X-0.450000X0.325000X-0.450000X0.325000X0.450000X-0.325000X0.450000X0*%
%ADD36RoundRect,0.150000X-0.150000X0.587500X-0.150000X-0.587500X0.150000X-0.587500X0.150000X0.587500X0*%
%ADD37C,2.000000*%
%ADD38C,1.000000*%
%ADD39R,2.000000X0.500000*%
%ADD40R,1.700000X2.000000*%
%ADD41R,0.800000X1.500000*%
%ADD42RoundRect,0.250000X0.650000X1.550000X-0.650000X1.550000X-0.650000X-1.550000X0.650000X-1.550000X0*%
%ADD43O,1.800000X3.600000*%
%ADD44RoundRect,0.250000X-0.650000X0.412500X-0.650000X-0.412500X0.650000X-0.412500X0.650000X0.412500X0*%
%ADD45R,1.800000X1.800000*%
%ADD46C,1.800000*%
%ADD47R,0.900000X1.750000*%
%ADD48RoundRect,0.150000X-0.587500X-0.150000X0.587500X-0.150000X0.587500X0.150000X-0.587500X0.150000X0*%
%ADD49C,1.440000*%
%ADD50RoundRect,0.150000X-0.150000X0.825000X-0.150000X-0.825000X0.150000X-0.825000X0.150000X0.825000X0*%
%ADD51O,1.800000X1.800000*%
%ADD52RoundRect,0.250000X0.450000X-0.325000X0.450000X0.325000X-0.450000X0.325000X-0.450000X-0.325000X0*%
%ADD53RoundRect,0.249999X1.425001X-0.450001X1.425001X0.450001X-1.425001X0.450001X-1.425001X-0.450001X0*%
%ADD54R,1.600000X2.400000*%
%ADD55O,1.600000X2.400000*%
%ADD56RoundRect,0.150000X-0.725000X-0.150000X0.725000X-0.150000X0.725000X0.150000X-0.725000X0.150000X0*%
%ADD57RoundRect,0.150000X0.825000X0.150000X-0.825000X0.150000X-0.825000X-0.150000X0.825000X-0.150000X0*%
%ADD58RoundRect,0.250000X0.325000X0.450000X-0.325000X0.450000X-0.325000X-0.450000X0.325000X-0.450000X0*%
%ADD59RoundRect,0.150000X0.587500X0.150000X-0.587500X0.150000X-0.587500X-0.150000X0.587500X-0.150000X0*%
%ADD60R,0.900000X1.500000*%
%ADD61R,1.500000X0.900000*%
%ADD62C,0.475000*%
%ADD63R,4.200000X4.200000*%
G04 APERTURE END LIST*
D10*
%TO.C,R27*%
X56100000Y-165500000D03*
X56100000Y-167500000D03*
%TD*%
D11*
%TO.C,C48*%
X114600000Y-139162500D03*
X114600000Y-141237500D03*
%TD*%
D12*
%TO.C,R59*%
X123600000Y-141350000D03*
X123600000Y-147450000D03*
%TD*%
D13*
%TO.C,D9*%
X114550000Y-160100000D03*
X111250000Y-160100000D03*
%TD*%
D14*
%TO.C,C38*%
X44500000Y-171637500D03*
X44500000Y-169562500D03*
%TD*%
%TO.C,C5*%
X67800000Y-89437500D03*
X67800000Y-87362500D03*
%TD*%
D15*
%TO.C,L7*%
X91400000Y-171200000D03*
X90400000Y-164200000D03*
X85400000Y-164200000D03*
X84400000Y-171200000D03*
%TD*%
D16*
%TO.C,R41*%
X94800000Y-102300000D03*
X92800000Y-102300000D03*
%TD*%
D15*
%TO.C,L15*%
X103000000Y-143100000D03*
X110000000Y-140100000D03*
%TD*%
D17*
%TO.C,C59*%
X120637500Y-141400000D03*
X118562500Y-141400000D03*
%TD*%
D18*
%TO.C,L21*%
X70700000Y-114175000D03*
X70700000Y-116225000D03*
%TD*%
D19*
%TO.C,R39*%
X102100000Y-102300000D03*
X104100000Y-102300000D03*
%TD*%
D11*
%TO.C,C46*%
X68800000Y-153962500D03*
X68800000Y-156037500D03*
%TD*%
D20*
%TO.C,C27*%
X80162500Y-120700000D03*
X82237500Y-120700000D03*
%TD*%
D17*
%TO.C,C89*%
X68537500Y-115800000D03*
X66462500Y-115800000D03*
%TD*%
D19*
%TO.C,R34*%
X94455000Y-121537500D03*
X96455000Y-121537500D03*
%TD*%
D21*
%TO.C,Q13*%
X128055000Y-116760000D03*
D22*
X128055000Y-119300000D03*
X128055000Y-121840000D03*
%TD*%
D14*
%TO.C,C28*%
X89600000Y-124637500D03*
X89600000Y-122562500D03*
%TD*%
D17*
%TO.C,C20*%
X74837500Y-117100000D03*
X72762500Y-117100000D03*
%TD*%
%TO.C,C10*%
X47637500Y-146600000D03*
X45562500Y-146600000D03*
%TD*%
D23*
%TO.C,C56*%
X67262500Y-146300000D03*
X64137500Y-146300000D03*
%TD*%
D24*
%TO.C,R68*%
X52200000Y-161400000D03*
X52200000Y-159400000D03*
%TD*%
D17*
%TO.C,C9*%
X33037500Y-131500000D03*
X30962500Y-131500000D03*
%TD*%
D25*
%TO.C,Q2*%
X109660000Y-87945000D03*
D26*
X112200000Y-87945000D03*
X114740000Y-87945000D03*
%TD*%
D14*
%TO.C,C33*%
X58100000Y-167537500D03*
X58100000Y-165462500D03*
%TD*%
D27*
%TO.C,C7*%
X65744888Y-150200000D03*
D28*
X67744888Y-150200000D03*
%TD*%
D29*
%TO.C,Q11*%
X65500000Y-144000000D03*
X67400000Y-144000000D03*
X66450000Y-142125000D03*
%TD*%
D24*
%TO.C,R13*%
X32100000Y-102800000D03*
X32100000Y-100800000D03*
%TD*%
D30*
%TO.C,Y1*%
X49600000Y-99150000D03*
X49600000Y-94270000D03*
%TD*%
D20*
%TO.C,C16*%
X37962500Y-106700000D03*
X40037500Y-106700000D03*
%TD*%
D27*
%TO.C,C65*%
X114000000Y-114302651D03*
D28*
X114000000Y-110502651D03*
%TD*%
D31*
%TO.C,H2*%
X90600000Y-95600000D03*
%TD*%
D32*
%TO.C,J4*%
X125350000Y-181100000D03*
D33*
X122810000Y-183640000D03*
X127890000Y-183640000D03*
X127890000Y-178560000D03*
X122810000Y-178560000D03*
%TD*%
D34*
%TO.C,U8*%
X72800000Y-119100000D03*
X72800000Y-119600000D03*
X72800000Y-120100000D03*
X72800000Y-120600000D03*
X72800000Y-121100000D03*
X77200000Y-121100000D03*
X77200000Y-120600000D03*
X77200000Y-120100000D03*
X77200000Y-119600000D03*
X77200000Y-119100000D03*
%TD*%
D11*
%TO.C,C41*%
X116700000Y-139162500D03*
X116700000Y-141237500D03*
%TD*%
D17*
%TO.C,C84*%
X88637500Y-150000000D03*
X86562500Y-150000000D03*
%TD*%
D35*
%TO.C,L2*%
X48075000Y-89300000D03*
X50125000Y-89300000D03*
%TD*%
D16*
%TO.C,R37*%
X128800000Y-130100000D03*
X126800000Y-130100000D03*
%TD*%
D14*
%TO.C,C79*%
X88700000Y-142537500D03*
X88700000Y-140462500D03*
%TD*%
D11*
%TO.C,C66*%
X124400000Y-159662500D03*
X124400000Y-161737500D03*
%TD*%
D27*
%TO.C,C2*%
X58000000Y-89244888D03*
D28*
X58000000Y-91244888D03*
%TD*%
D36*
%TO.C,Q6*%
X33850000Y-105162500D03*
X31950000Y-105162500D03*
X32900000Y-107037500D03*
%TD*%
D11*
%TO.C,C29*%
X87400000Y-122625000D03*
X87400000Y-124700000D03*
%TD*%
D24*
%TO.C,R17*%
X126600000Y-99400000D03*
X126600000Y-97400000D03*
%TD*%
D10*
%TO.C,R12*%
X35800000Y-104600000D03*
X35800000Y-106600000D03*
%TD*%
D24*
%TO.C,R10*%
X97900000Y-100262500D03*
X97900000Y-98262500D03*
%TD*%
D37*
%TO.C,L5*%
X116600000Y-135700000D03*
X123600000Y-130700000D03*
%TD*%
D20*
%TO.C,C40*%
X126762500Y-128000000D03*
X128837500Y-128000000D03*
%TD*%
D38*
%TO.C,J2*%
X34575000Y-95000000D03*
X34575000Y-90600000D03*
D39*
X37275000Y-91200000D03*
X37275000Y-92000000D03*
X37275000Y-92800000D03*
X37275000Y-93600000D03*
X37275000Y-94400000D03*
D40*
X37175000Y-88350000D03*
X37175000Y-97250000D03*
X31725000Y-88350000D03*
X31725000Y-97250000D03*
%TD*%
D17*
%TO.C,C47*%
X98737500Y-102300000D03*
X96662500Y-102300000D03*
%TD*%
D16*
%TO.C,R9*%
X77900000Y-125900000D03*
X75900000Y-125900000D03*
%TD*%
D19*
%TO.C,R3*%
X104000000Y-88500000D03*
X106000000Y-88500000D03*
%TD*%
D41*
%TO.C,Q3*%
X113600000Y-106800000D03*
X113600000Y-104300000D03*
X113600000Y-101800000D03*
%TD*%
D19*
%TO.C,R30*%
X44000000Y-149700000D03*
X46000000Y-149700000D03*
%TD*%
D27*
%TO.C,C12*%
X119400000Y-101700000D03*
D28*
X119400000Y-97900000D03*
%TD*%
D42*
%TO.C,J1*%
X125985000Y-88832500D03*
D43*
X120905000Y-88832500D03*
%TD*%
D20*
%TO.C,C72*%
X120362500Y-161600000D03*
X122437500Y-161600000D03*
%TD*%
D16*
%TO.C,R14*%
X60900000Y-94200000D03*
X58900000Y-94200000D03*
%TD*%
D11*
%TO.C,C17*%
X53600000Y-94162500D03*
X53600000Y-96237500D03*
%TD*%
D19*
%TO.C,R70*%
X39700000Y-143600000D03*
X41700000Y-143600000D03*
%TD*%
D15*
%TO.C,L13*%
X105700000Y-171000000D03*
X104700000Y-164000000D03*
X99700000Y-164000000D03*
X98700000Y-171000000D03*
%TD*%
D16*
%TO.C,R20*%
X86500000Y-120700000D03*
X84500000Y-120700000D03*
%TD*%
D17*
%TO.C,C87*%
X124500000Y-175700000D03*
X122425000Y-175700000D03*
%TD*%
D16*
%TO.C,R29*%
X58100000Y-163600000D03*
X56100000Y-163600000D03*
%TD*%
D44*
%TO.C,C51*%
X57500000Y-140337500D03*
X57500000Y-143462500D03*
%TD*%
D45*
%TO.C,D7*%
X127100000Y-101525000D03*
D46*
X127100000Y-104065000D03*
%TD*%
D14*
%TO.C,C50*%
X75000000Y-156037500D03*
X75000000Y-153962500D03*
%TD*%
D11*
%TO.C,C69*%
X124900000Y-121262500D03*
X124900000Y-123337500D03*
%TD*%
D16*
%TO.C,R19*%
X90300000Y-118600000D03*
X88300000Y-118600000D03*
%TD*%
D10*
%TO.C,R60*%
X71400000Y-138925000D03*
X71400000Y-140925000D03*
%TD*%
D20*
%TO.C,C82*%
X110162500Y-174700000D03*
X112237500Y-174700000D03*
%TD*%
%TO.C,C83*%
X113962500Y-174700000D03*
X116037500Y-174700000D03*
%TD*%
D14*
%TO.C,C78*%
X77400000Y-142637500D03*
X77400000Y-140562500D03*
%TD*%
D47*
%TO.C,X1*%
X67325000Y-118450000D03*
X67325000Y-121350000D03*
X68875000Y-121350000D03*
X68875000Y-118450000D03*
%TD*%
D11*
%TO.C,C55*%
X95100000Y-162762500D03*
X95100000Y-164837500D03*
%TD*%
D25*
%TO.C,U1*%
X72060000Y-88145000D03*
D26*
X74600000Y-88145000D03*
X77140000Y-88145000D03*
%TD*%
D20*
%TO.C,C77*%
X106162500Y-174700000D03*
X108237500Y-174700000D03*
%TD*%
D16*
%TO.C,R5*%
X40600000Y-174800000D03*
X38600000Y-174800000D03*
%TD*%
D37*
%TO.C,L18*%
X106500000Y-183300000D03*
X118500000Y-178300000D03*
%TD*%
D48*
%TO.C,Q5*%
X75962500Y-127750000D03*
X75962500Y-129650000D03*
X77837500Y-128700000D03*
%TD*%
D17*
%TO.C,C75*%
X103437500Y-175500000D03*
X101362500Y-175500000D03*
%TD*%
D49*
%TO.C,RV4*%
X48400000Y-171700000D03*
X48400000Y-174240000D03*
X48400000Y-176780000D03*
%TD*%
D11*
%TO.C,C25*%
X100000000Y-98225000D03*
X100000000Y-100300000D03*
%TD*%
D35*
%TO.C,L12*%
X76175000Y-132000000D03*
X78225000Y-132000000D03*
%TD*%
D11*
%TO.C,C80*%
X71400000Y-135062500D03*
X71400000Y-137137500D03*
%TD*%
D16*
%TO.C,R33*%
X96455000Y-125737500D03*
X94455000Y-125737500D03*
%TD*%
D18*
%TO.C,L1*%
X65400000Y-132575000D03*
X65400000Y-134625000D03*
%TD*%
D15*
%TO.C,L8*%
X123900000Y-114600000D03*
X120900000Y-107600000D03*
%TD*%
D10*
%TO.C,R57*%
X128100000Y-107700000D03*
X128100000Y-109700000D03*
%TD*%
D14*
%TO.C,C88*%
X91100000Y-160737500D03*
X91100000Y-158662500D03*
%TD*%
D16*
%TO.C,R50*%
X65600000Y-139900000D03*
X63600000Y-139900000D03*
%TD*%
D11*
%TO.C,C81*%
X84100000Y-135062500D03*
X84100000Y-137137500D03*
%TD*%
D14*
%TO.C,C60*%
X95100000Y-171437500D03*
X95100000Y-169362500D03*
%TD*%
D19*
%TO.C,R36*%
X102100000Y-98200000D03*
X104100000Y-98200000D03*
%TD*%
D13*
%TO.C,D10*%
X109750000Y-160100000D03*
X106450000Y-160100000D03*
%TD*%
D16*
%TO.C,R40*%
X66800000Y-154000000D03*
X64800000Y-154000000D03*
%TD*%
D19*
%TO.C,R25*%
X60100000Y-167800000D03*
X62100000Y-167800000D03*
%TD*%
%TO.C,R23*%
X52200000Y-163600000D03*
X54200000Y-163600000D03*
%TD*%
D31*
%TO.C,H1*%
X54900000Y-177800000D03*
%TD*%
D10*
%TO.C,R8*%
X47200000Y-131500000D03*
X47200000Y-133500000D03*
%TD*%
D20*
%TO.C,C44*%
X64762500Y-156100000D03*
X66837500Y-156100000D03*
%TD*%
%TO.C,C42*%
X49562500Y-149600000D03*
X51637500Y-149600000D03*
%TD*%
D50*
%TO.C,U3*%
X51810000Y-152025000D03*
X50540000Y-152025000D03*
X49270000Y-152025000D03*
X48000000Y-152025000D03*
X46730000Y-152025000D03*
X45460000Y-152025000D03*
X44190000Y-152025000D03*
X44190000Y-156975000D03*
X45460000Y-156975000D03*
X46730000Y-156975000D03*
X48000000Y-156975000D03*
X49270000Y-156975000D03*
X50540000Y-156975000D03*
X51810000Y-156975000D03*
%TD*%
D15*
%TO.C,L11*%
X96300000Y-134800000D03*
X103300000Y-131800000D03*
%TD*%
D20*
%TO.C,C26*%
X80225000Y-118600000D03*
X82300000Y-118600000D03*
%TD*%
D11*
%TO.C,C45*%
X53600000Y-147362500D03*
X53600000Y-149437500D03*
%TD*%
D17*
%TO.C,C54*%
X124700000Y-139300000D03*
X122625000Y-139300000D03*
%TD*%
D10*
%TO.C,R53*%
X73800000Y-146800000D03*
X73800000Y-148800000D03*
%TD*%
D16*
%TO.C,R18*%
X86500000Y-118600000D03*
X84500000Y-118600000D03*
%TD*%
D10*
%TO.C,R35*%
X44500000Y-173500000D03*
X44500000Y-175500000D03*
%TD*%
D48*
%TO.C,Q1*%
X107562500Y-90350000D03*
X107562500Y-92250000D03*
X109437500Y-91300000D03*
%TD*%
D29*
%TO.C,Q10*%
X75750000Y-148737500D03*
X77650000Y-148737500D03*
X76700000Y-146862500D03*
%TD*%
D45*
%TO.C,D1*%
X35000000Y-163925000D03*
D46*
X35000000Y-166465000D03*
%TD*%
D17*
%TO.C,C22*%
X82875000Y-144700000D03*
X80800000Y-144700000D03*
%TD*%
D20*
%TO.C,C39*%
X126662500Y-125900000D03*
X128737500Y-125900000D03*
%TD*%
D16*
%TO.C,R54*%
X120600000Y-143500000D03*
X118600000Y-143500000D03*
%TD*%
D41*
%TO.C,Q4*%
X110400000Y-106800000D03*
X110400000Y-104300000D03*
X110400000Y-101800000D03*
%TD*%
D45*
%TO.C,Q8*%
X127525000Y-133060000D03*
D51*
X127525000Y-135600000D03*
X127525000Y-138140000D03*
%TD*%
D45*
%TO.C,D5*%
X32500000Y-141375000D03*
D46*
X32500000Y-138835000D03*
%TD*%
D24*
%TO.C,R11*%
X47900000Y-108800000D03*
X47900000Y-106800000D03*
%TD*%
D19*
%TO.C,R31*%
X59800000Y-156000000D03*
X61800000Y-156000000D03*
%TD*%
%TO.C,R72*%
X49500000Y-142000000D03*
X51500000Y-142000000D03*
%TD*%
D10*
%TO.C,R2*%
X105500000Y-90400000D03*
X105500000Y-92400000D03*
%TD*%
D27*
%TO.C,C19*%
X70200000Y-127697349D03*
D28*
X70200000Y-131497349D03*
%TD*%
D52*
%TO.C,L3*%
X65300000Y-120025000D03*
X65300000Y-117975000D03*
%TD*%
D19*
%TO.C,R4*%
X38700000Y-170000000D03*
X40700000Y-170000000D03*
%TD*%
D11*
%TO.C,C62*%
X73600000Y-140687500D03*
X73600000Y-142762500D03*
%TD*%
D27*
%TO.C,C61*%
X113944888Y-145700000D03*
D28*
X115944888Y-145700000D03*
%TD*%
D17*
%TO.C,C73*%
X114437500Y-162500000D03*
X112362500Y-162500000D03*
%TD*%
D10*
%TO.C,R65*%
X91000000Y-154500000D03*
X91000000Y-156500000D03*
%TD*%
D27*
%TO.C,C36*%
X48900000Y-166300000D03*
D28*
X46900000Y-166300000D03*
%TD*%
D14*
%TO.C,C24*%
X70700000Y-121737500D03*
X70700000Y-119662500D03*
%TD*%
%TO.C,C67*%
X85900000Y-131875000D03*
X85900000Y-129800000D03*
%TD*%
D19*
%TO.C,R1*%
X32600000Y-133500000D03*
X34600000Y-133500000D03*
%TD*%
D14*
%TO.C,C23*%
X103655000Y-121337500D03*
X103655000Y-119262500D03*
%TD*%
D24*
%TO.C,R55*%
X69200000Y-144100000D03*
X69200000Y-142100000D03*
%TD*%
D37*
%TO.C,L9*%
X112300000Y-156100000D03*
X124300000Y-151100000D03*
%TD*%
D45*
%TO.C,D4*%
X63025000Y-92100000D03*
D46*
X65565000Y-92100000D03*
%TD*%
D10*
%TO.C,R67*%
X36100000Y-153200000D03*
X36100000Y-155200000D03*
%TD*%
D16*
%TO.C,R51*%
X79000000Y-144700000D03*
X77000000Y-144700000D03*
%TD*%
D53*
%TO.C,R58*%
X127600000Y-147050000D03*
X127600000Y-140950000D03*
%TD*%
D17*
%TO.C,C4*%
X65437500Y-136500000D03*
X63362500Y-136500000D03*
%TD*%
D54*
%TO.C,U9*%
X107000000Y-104900000D03*
D55*
X104460000Y-104900000D03*
X101920000Y-104900000D03*
X99380000Y-104900000D03*
X96840000Y-104900000D03*
X94300000Y-104900000D03*
X91760000Y-104900000D03*
X89220000Y-104900000D03*
X89220000Y-112520000D03*
X91760000Y-112520000D03*
X94300000Y-112520000D03*
X96840000Y-112520000D03*
X99380000Y-112520000D03*
X101920000Y-112520000D03*
X104460000Y-112520000D03*
X107000000Y-112520000D03*
%TD*%
D10*
%TO.C,R52*%
X60000000Y-141400000D03*
X60000000Y-143400000D03*
%TD*%
D15*
%TO.C,L10*%
X91400000Y-183300000D03*
X90400000Y-176300000D03*
X85400000Y-176300000D03*
X84400000Y-183300000D03*
%TD*%
D56*
%TO.C,U11*%
X86525000Y-134895000D03*
X86525000Y-136165000D03*
X86525000Y-137435000D03*
X86525000Y-138705000D03*
X91675000Y-138705000D03*
X91675000Y-137435000D03*
X91675000Y-136165000D03*
X91675000Y-134895000D03*
%TD*%
D16*
%TO.C,R28*%
X42100000Y-157400000D03*
X40100000Y-157400000D03*
%TD*%
D17*
%TO.C,C76*%
X99537500Y-175500000D03*
X97462500Y-175500000D03*
%TD*%
D57*
%TO.C,U5*%
X45275000Y-104945000D03*
X45275000Y-103675000D03*
X45275000Y-102405000D03*
X45275000Y-101135000D03*
X45275000Y-99865000D03*
X45275000Y-98595000D03*
X45275000Y-97325000D03*
X45275000Y-96055000D03*
X40325000Y-96055000D03*
X40325000Y-97325000D03*
X40325000Y-98595000D03*
X40325000Y-99865000D03*
X40325000Y-101135000D03*
X40325000Y-102405000D03*
X40325000Y-103675000D03*
X40325000Y-104945000D03*
%TD*%
D17*
%TO.C,C30*%
X46537500Y-159400000D03*
X44462500Y-159400000D03*
%TD*%
D14*
%TO.C,C49*%
X59700000Y-149537500D03*
X59700000Y-147462500D03*
%TD*%
D16*
%TO.C,R21*%
X90300000Y-120700000D03*
X88300000Y-120700000D03*
%TD*%
D10*
%TO.C,R15*%
X32100000Y-143600000D03*
X32100000Y-145600000D03*
%TD*%
%TO.C,R26*%
X40200000Y-159400000D03*
X40200000Y-161400000D03*
%TD*%
D48*
%TO.C,Q15*%
X94262500Y-158650000D03*
X94262500Y-160550000D03*
X96137500Y-159600000D03*
%TD*%
D29*
%TO.C,Q9*%
X61850000Y-144037500D03*
X63750000Y-144037500D03*
X62800000Y-142162500D03*
%TD*%
D23*
%TO.C,C57*%
X81262500Y-150900000D03*
X78137500Y-150900000D03*
%TD*%
D21*
%TO.C,U6*%
X99055000Y-118760000D03*
D22*
X99055000Y-121300000D03*
X99055000Y-123840000D03*
%TD*%
D14*
%TO.C,C8*%
X40100000Y-90337500D03*
X40100000Y-88262500D03*
%TD*%
D45*
%TO.C,D6*%
X98925000Y-88600000D03*
D46*
X101465000Y-88600000D03*
%TD*%
D17*
%TO.C,C14*%
X74137500Y-90700000D03*
X72062500Y-90700000D03*
%TD*%
%TO.C,C37*%
X96492500Y-123637500D03*
X94417500Y-123637500D03*
%TD*%
D56*
%TO.C,U10*%
X73725000Y-134895000D03*
X73725000Y-136165000D03*
X73725000Y-137435000D03*
X73725000Y-138705000D03*
X78875000Y-138705000D03*
X78875000Y-137435000D03*
X78875000Y-136165000D03*
X78875000Y-134895000D03*
%TD*%
D53*
%TO.C,R44*%
X112500000Y-136550000D03*
X112500000Y-130450000D03*
%TD*%
D11*
%TO.C,C18*%
X96155000Y-115000000D03*
X96155000Y-117075000D03*
%TD*%
D14*
%TO.C,C13*%
X53600000Y-100137500D03*
X53600000Y-98062500D03*
%TD*%
D11*
%TO.C,C34*%
X38100000Y-159462500D03*
X38100000Y-161537500D03*
%TD*%
D27*
%TO.C,C68*%
X97800000Y-142655112D03*
D28*
X97800000Y-140655112D03*
%TD*%
D37*
%TO.C,L14*%
X127000000Y-171700000D03*
X122000000Y-164700000D03*
%TD*%
D58*
%TO.C,L6*%
X120625000Y-145500000D03*
X118575000Y-145500000D03*
%TD*%
D44*
%TO.C,C52*%
X71600000Y-146937500D03*
X71600000Y-150062500D03*
%TD*%
D20*
%TO.C,C74*%
X116462500Y-162100000D03*
X118537500Y-162100000D03*
%TD*%
D19*
%TO.C,R47*%
X57800000Y-145500000D03*
X59800000Y-145500000D03*
%TD*%
D27*
%TO.C,C21*%
X62800000Y-115655113D03*
D28*
X62800000Y-113655113D03*
%TD*%
D10*
%TO.C,R69*%
X44200000Y-142600000D03*
X44200000Y-144600000D03*
%TD*%
D19*
%TO.C,R7*%
X38600000Y-165100000D03*
X40600000Y-165100000D03*
%TD*%
D11*
%TO.C,C63*%
X86300000Y-140587500D03*
X86300000Y-142662500D03*
%TD*%
D20*
%TO.C,C86*%
X126362500Y-175700000D03*
X128437500Y-175700000D03*
%TD*%
D37*
%TO.C,L16*%
X117300000Y-166100000D03*
X110300000Y-171100000D03*
%TD*%
D14*
%TO.C,C70*%
X128600000Y-161737500D03*
X128600000Y-159662500D03*
%TD*%
D16*
%TO.C,R16*%
X96800000Y-88500000D03*
X94800000Y-88500000D03*
%TD*%
D24*
%TO.C,R56*%
X83000000Y-148700000D03*
X83000000Y-146700000D03*
%TD*%
D19*
%TO.C,R22*%
X36000000Y-157500000D03*
X38000000Y-157500000D03*
%TD*%
%TO.C,R62*%
X86600000Y-147900000D03*
X88600000Y-147900000D03*
%TD*%
D48*
%TO.C,Q7*%
X34462500Y-100850000D03*
X34462500Y-102750000D03*
X36337500Y-101800000D03*
%TD*%
D17*
%TO.C,C43*%
X104137500Y-100200000D03*
X102062500Y-100200000D03*
%TD*%
%TO.C,C31*%
X62137500Y-165800000D03*
X60062500Y-165800000D03*
%TD*%
D11*
%TO.C,C1*%
X63000000Y-132562500D03*
X63000000Y-134637500D03*
%TD*%
D10*
%TO.C,R45*%
X57600000Y-147400000D03*
X57600000Y-149400000D03*
%TD*%
%TO.C,R6*%
X45200000Y-131500000D03*
X45200000Y-133500000D03*
%TD*%
D19*
%TO.C,R64*%
X118300000Y-174700000D03*
X120300000Y-174700000D03*
%TD*%
D10*
%TO.C,R32*%
X124600000Y-125100000D03*
X124600000Y-127100000D03*
%TD*%
D19*
%TO.C,R24*%
X44500000Y-161500000D03*
X46500000Y-161500000D03*
%TD*%
D45*
%TO.C,D3*%
X35000000Y-174025000D03*
D46*
X35000000Y-176565000D03*
%TD*%
D16*
%TO.C,R49*%
X72400000Y-152100000D03*
X70400000Y-152100000D03*
%TD*%
D14*
%TO.C,C71*%
X126500000Y-161737500D03*
X126500000Y-159662500D03*
%TD*%
D24*
%TO.C,R43*%
X70900000Y-156000000D03*
X70900000Y-154000000D03*
%TD*%
D10*
%TO.C,R63*%
X91100000Y-146600000D03*
X91100000Y-148600000D03*
%TD*%
D49*
%TO.C,RV2*%
X40400000Y-147200000D03*
X40400000Y-149740000D03*
X40400000Y-152280000D03*
%TD*%
D24*
%TO.C,R42*%
X55600000Y-149400000D03*
X55600000Y-147400000D03*
%TD*%
D14*
%TO.C,C64*%
X95100000Y-173325000D03*
X95100000Y-175400000D03*
%TD*%
D20*
%TO.C,C58*%
X116462500Y-159800000D03*
X118537500Y-159800000D03*
%TD*%
D12*
%TO.C,R48*%
X108400000Y-130450000D03*
X108400000Y-136550000D03*
%TD*%
D54*
%TO.C,U7*%
X106575000Y-126000000D03*
D55*
X109115000Y-126000000D03*
X111655000Y-126000000D03*
X114195000Y-126000000D03*
X116735000Y-126000000D03*
X119275000Y-126000000D03*
X121815000Y-126000000D03*
X121815000Y-118380000D03*
X119275000Y-118380000D03*
X116735000Y-118380000D03*
X114195000Y-118380000D03*
X111655000Y-118380000D03*
X109115000Y-118380000D03*
X106575000Y-118380000D03*
%TD*%
D49*
%TO.C,RV3*%
X56200000Y-153200000D03*
X56200000Y-155740000D03*
X56200000Y-158280000D03*
%TD*%
D13*
%TO.C,D8*%
X100650000Y-127900000D03*
X103950000Y-127900000D03*
%TD*%
D17*
%TO.C,C3*%
X34675000Y-135500000D03*
X32600000Y-135500000D03*
%TD*%
D35*
%TO.C,L19*%
X90975000Y-144700000D03*
X93025000Y-144700000D03*
%TD*%
D19*
%TO.C,R71*%
X53400000Y-142000000D03*
X55400000Y-142000000D03*
%TD*%
D11*
%TO.C,C6*%
X114900000Y-90362500D03*
X114900000Y-92437500D03*
%TD*%
D29*
%TO.C,Q12*%
X79250000Y-148637500D03*
X81150000Y-148637500D03*
X80200000Y-146762500D03*
%TD*%
D10*
%TO.C,R46*%
X72900000Y-154000000D03*
X72900000Y-156000000D03*
%TD*%
D17*
%TO.C,C53*%
X120737500Y-139200000D03*
X118662500Y-139200000D03*
%TD*%
D52*
%TO.C,L4*%
X103655000Y-125225000D03*
X103655000Y-123175000D03*
%TD*%
D59*
%TO.C,Q16*%
X100937500Y-160550000D03*
X100937500Y-158650000D03*
X99062500Y-159600000D03*
%TD*%
D27*
%TO.C,C11*%
X61000000Y-119744888D03*
D28*
X61000000Y-121744888D03*
%TD*%
D15*
%TO.C,L20*%
X94700000Y-148200000D03*
X95700000Y-155200000D03*
X100700000Y-155200000D03*
X101700000Y-148200000D03*
%TD*%
D14*
%TO.C,C32*%
X42400000Y-161437500D03*
X42400000Y-159362500D03*
%TD*%
D21*
%TO.C,Q14*%
X128055000Y-150860000D03*
D22*
X128055000Y-153400000D03*
X128055000Y-155940000D03*
%TD*%
D10*
%TO.C,R61*%
X84200000Y-138925000D03*
X84200000Y-140925000D03*
%TD*%
%TO.C,R66*%
X103300000Y-158600000D03*
X103300000Y-160600000D03*
%TD*%
D50*
%TO.C,U4*%
X67510000Y-158525000D03*
X66240000Y-158525000D03*
X64970000Y-158525000D03*
X63700000Y-158525000D03*
X62430000Y-158525000D03*
X61160000Y-158525000D03*
X59890000Y-158525000D03*
X59890000Y-163475000D03*
X61160000Y-163475000D03*
X62430000Y-163475000D03*
X63700000Y-163475000D03*
X64970000Y-163475000D03*
X66240000Y-163475000D03*
X67510000Y-163475000D03*
%TD*%
D11*
%TO.C,C85*%
X91000000Y-150462500D03*
X91000000Y-152537500D03*
%TD*%
D45*
%TO.C,D2*%
X35000000Y-169000000D03*
D46*
X35000000Y-171540000D03*
%TD*%
D16*
%TO.C,R38*%
X51600000Y-147400000D03*
X49600000Y-147400000D03*
%TD*%
D60*
%TO.C,U2*%
X31495000Y-129150000D03*
X32765000Y-129150000D03*
X34035000Y-129150000D03*
X35305000Y-129150000D03*
X36575000Y-129150000D03*
X37845000Y-129150000D03*
X39115000Y-129150000D03*
X40385000Y-129150000D03*
X41655000Y-129150000D03*
X42925000Y-129150000D03*
X44195000Y-129150000D03*
X45465000Y-129150000D03*
X46735000Y-129150000D03*
X48005000Y-129150000D03*
D61*
X49255000Y-126110000D03*
X49255000Y-124840000D03*
X49255000Y-123570000D03*
X49255000Y-122300000D03*
X49255000Y-121030000D03*
X49255000Y-119760000D03*
X49255000Y-118490000D03*
X49255000Y-117220000D03*
X49255000Y-115950000D03*
X49255000Y-114680000D03*
D60*
X48005000Y-111650000D03*
X46735000Y-111650000D03*
X45465000Y-111650000D03*
X44195000Y-111650000D03*
X42925000Y-111650000D03*
X41655000Y-111650000D03*
X40385000Y-111650000D03*
X39115000Y-111650000D03*
X37845000Y-111650000D03*
X36575000Y-111650000D03*
X35305000Y-111650000D03*
X34035000Y-111650000D03*
X32765000Y-111650000D03*
X31495000Y-111650000D03*
D62*
X40360000Y-121842500D03*
X37310000Y-120317500D03*
X38072500Y-121080000D03*
X39597500Y-119555000D03*
X38835000Y-121842500D03*
D63*
X38835000Y-121080000D03*
D62*
X39597500Y-121080000D03*
X37310000Y-121842500D03*
X38072500Y-119555000D03*
X39597500Y-122605000D03*
X38835000Y-120317500D03*
X40360000Y-120317500D03*
X38072500Y-122605000D03*
%TD*%
D37*
%TO.C,L17*%
X101900000Y-183700000D03*
X96900000Y-178700000D03*
%TD*%
D17*
%TO.C,C15*%
X62937500Y-153100000D03*
X60862500Y-153100000D03*
%TD*%
D11*
%TO.C,C35*%
X54000000Y-165462500D03*
X54000000Y-167537500D03*
%TD*%
M02*
