%TF.GenerationSoftware,KiCad,Pcbnew,(6.0.9)*%
%TF.CreationDate,2022-12-04T18:18:59+03:00*%
%TF.ProjectId,communicator_27mhz,636f6d6d-756e-4696-9361-746f725f3237,beta 2.3*%
%TF.SameCoordinates,Original*%
%TF.FileFunction,Soldermask,Bot*%
%TF.FilePolarity,Negative*%
%FSLAX46Y46*%
G04 Gerber Fmt 4.6, Leading zero omitted, Abs format (unit mm)*
G04 Created by KiCad (PCBNEW (6.0.9)) date 2022-12-04 18:18:59*
%MOMM*%
%LPD*%
G01*
G04 APERTURE LIST*
G04 Aperture macros list*
%AMRoundRect*
0 Rectangle with rounded corners*
0 $1 Rounding radius*
0 $2 $3 $4 $5 $6 $7 $8 $9 X,Y pos of 4 corners*
0 Add a 4 corners polygon primitive as box body*
4,1,4,$2,$3,$4,$5,$6,$7,$8,$9,$2,$3,0*
0 Add four circle primitives for the rounded corners*
1,1,$1+$1,$2,$3*
1,1,$1+$1,$4,$5*
1,1,$1+$1,$6,$7*
1,1,$1+$1,$8,$9*
0 Add four rect primitives between the rounded corners*
20,1,$1+$1,$2,$3,$4,$5,0*
20,1,$1+$1,$4,$5,$6,$7,0*
20,1,$1+$1,$6,$7,$8,$9,0*
20,1,$1+$1,$8,$9,$2,$3,0*%
G04 Aperture macros list end*
%ADD10C,2.100000*%
%ADD11R,2.000000X1.905000*%
%ADD12O,2.000000X1.905000*%
%ADD13R,1.905000X2.000000*%
%ADD14O,1.905000X2.000000*%
%ADD15R,1.600000X1.600000*%
%ADD16C,1.600000*%
%ADD17C,1.500000*%
%ADD18C,3.200000*%
%ADD19RoundRect,0.200100X-0.949900X0.949900X-0.949900X-0.949900X0.949900X-0.949900X0.949900X0.949900X0*%
%ADD20C,2.500000*%
%ADD21C,2.000000*%
%ADD22C,1.000000*%
%ADD23R,0.800000X1.500000*%
%ADD24RoundRect,0.250000X0.650000X1.550000X-0.650000X1.550000X-0.650000X-1.550000X0.650000X-1.550000X0*%
%ADD25O,1.800000X3.600000*%
%ADD26R,1.800000X1.800000*%
%ADD27C,1.800000*%
%ADD28C,1.440000*%
%ADD29O,1.800000X1.800000*%
%ADD30R,1.600000X2.400000*%
%ADD31O,1.600000X2.400000*%
G04 APERTURE END LIST*
D10*
%TO.C,L7*%
X91400000Y-171200000D03*
X90400000Y-164200000D03*
X85400000Y-164200000D03*
X84400000Y-171200000D03*
%TD*%
%TO.C,L15*%
X103000000Y-143100000D03*
X110000000Y-140100000D03*
%TD*%
D11*
%TO.C,Q13*%
X128055000Y-116760000D03*
D12*
X128055000Y-119300000D03*
X128055000Y-121840000D03*
%TD*%
D13*
%TO.C,Q2*%
X109660000Y-87945000D03*
D14*
X112200000Y-87945000D03*
X114740000Y-87945000D03*
%TD*%
D15*
%TO.C,C7*%
X65744888Y-150200000D03*
D16*
X67744888Y-150200000D03*
%TD*%
D17*
%TO.C,Y1*%
X49600000Y-99150000D03*
X49600000Y-94270000D03*
%TD*%
D15*
%TO.C,C65*%
X114000000Y-114302651D03*
D16*
X114000000Y-110502651D03*
%TD*%
D18*
%TO.C,H2*%
X90600000Y-95600000D03*
%TD*%
D19*
%TO.C,J4*%
X125350000Y-181100000D03*
D20*
X122810000Y-183640000D03*
X127890000Y-183640000D03*
X127890000Y-178560000D03*
X122810000Y-178560000D03*
%TD*%
D15*
%TO.C,C2*%
X58000000Y-89244888D03*
D16*
X58000000Y-91244888D03*
%TD*%
D21*
%TO.C,L5*%
X116600000Y-135700000D03*
X123600000Y-130700000D03*
%TD*%
D22*
%TO.C,J2*%
X34575000Y-95000000D03*
X34575000Y-90600000D03*
%TD*%
D23*
%TO.C,Q3*%
X113600000Y-106800000D03*
X113600000Y-104300000D03*
X113600000Y-101800000D03*
%TD*%
D15*
%TO.C,C12*%
X119400000Y-101700000D03*
D16*
X119400000Y-97900000D03*
%TD*%
D24*
%TO.C,J1*%
X125985000Y-88832500D03*
D25*
X120905000Y-88832500D03*
%TD*%
D10*
%TO.C,L13*%
X105700000Y-171000000D03*
X104700000Y-164000000D03*
X99700000Y-164000000D03*
X98700000Y-171000000D03*
%TD*%
D26*
%TO.C,D7*%
X127100000Y-101525000D03*
D27*
X127100000Y-104065000D03*
%TD*%
D13*
%TO.C,U1*%
X72060000Y-88145000D03*
D14*
X74600000Y-88145000D03*
X77140000Y-88145000D03*
%TD*%
D21*
%TO.C,L18*%
X106500000Y-183300000D03*
X118500000Y-178300000D03*
%TD*%
D28*
%TO.C,RV4*%
X48400000Y-171700000D03*
X48400000Y-174240000D03*
X48400000Y-176780000D03*
%TD*%
D10*
%TO.C,L8*%
X123900000Y-114600000D03*
X120900000Y-107600000D03*
%TD*%
D18*
%TO.C,H1*%
X54900000Y-177800000D03*
%TD*%
D10*
%TO.C,L11*%
X96300000Y-134800000D03*
X103300000Y-131800000D03*
%TD*%
D26*
%TO.C,D1*%
X35000000Y-163925000D03*
D27*
X35000000Y-166465000D03*
%TD*%
D23*
%TO.C,Q4*%
X110400000Y-106800000D03*
X110400000Y-104300000D03*
X110400000Y-101800000D03*
%TD*%
D26*
%TO.C,Q8*%
X127525000Y-133060000D03*
D29*
X127525000Y-135600000D03*
X127525000Y-138140000D03*
%TD*%
D26*
%TO.C,D5*%
X32500000Y-141375000D03*
D27*
X32500000Y-138835000D03*
%TD*%
D15*
%TO.C,C19*%
X70200000Y-127697349D03*
D16*
X70200000Y-131497349D03*
%TD*%
D15*
%TO.C,C61*%
X113944888Y-145700000D03*
D16*
X115944888Y-145700000D03*
%TD*%
D15*
%TO.C,C36*%
X48900000Y-166300000D03*
D16*
X46900000Y-166300000D03*
%TD*%
D21*
%TO.C,L9*%
X112300000Y-156100000D03*
X124300000Y-151100000D03*
%TD*%
D26*
%TO.C,D4*%
X63025000Y-92100000D03*
D27*
X65565000Y-92100000D03*
%TD*%
D30*
%TO.C,U9*%
X107000000Y-104900000D03*
D31*
X104460000Y-104900000D03*
X101920000Y-104900000D03*
X99380000Y-104900000D03*
X96840000Y-104900000D03*
X94300000Y-104900000D03*
X91760000Y-104900000D03*
X89220000Y-104900000D03*
X89220000Y-112520000D03*
X91760000Y-112520000D03*
X94300000Y-112520000D03*
X96840000Y-112520000D03*
X99380000Y-112520000D03*
X101920000Y-112520000D03*
X104460000Y-112520000D03*
X107000000Y-112520000D03*
%TD*%
D10*
%TO.C,L10*%
X91400000Y-183300000D03*
X90400000Y-176300000D03*
X85400000Y-176300000D03*
X84400000Y-183300000D03*
%TD*%
D11*
%TO.C,U6*%
X99055000Y-118760000D03*
D12*
X99055000Y-121300000D03*
X99055000Y-123840000D03*
%TD*%
D26*
%TO.C,D6*%
X98925000Y-88600000D03*
D27*
X101465000Y-88600000D03*
%TD*%
D15*
%TO.C,C68*%
X97800000Y-142655112D03*
D16*
X97800000Y-140655112D03*
%TD*%
D21*
%TO.C,L14*%
X127000000Y-171700000D03*
X122000000Y-164700000D03*
%TD*%
D15*
%TO.C,C21*%
X62800000Y-115655113D03*
D16*
X62800000Y-113655113D03*
%TD*%
D21*
%TO.C,L16*%
X117300000Y-166100000D03*
X110300000Y-171100000D03*
%TD*%
D26*
%TO.C,D3*%
X35000000Y-174025000D03*
D27*
X35000000Y-176565000D03*
%TD*%
D28*
%TO.C,RV2*%
X40400000Y-147200000D03*
X40400000Y-149740000D03*
X40400000Y-152280000D03*
%TD*%
D30*
%TO.C,U7*%
X106575000Y-126000000D03*
D31*
X109115000Y-126000000D03*
X111655000Y-126000000D03*
X114195000Y-126000000D03*
X116735000Y-126000000D03*
X119275000Y-126000000D03*
X121815000Y-126000000D03*
X121815000Y-118380000D03*
X119275000Y-118380000D03*
X116735000Y-118380000D03*
X114195000Y-118380000D03*
X111655000Y-118380000D03*
X109115000Y-118380000D03*
X106575000Y-118380000D03*
%TD*%
D28*
%TO.C,RV3*%
X56200000Y-153200000D03*
X56200000Y-155740000D03*
X56200000Y-158280000D03*
%TD*%
D15*
%TO.C,C11*%
X61000000Y-119744888D03*
D16*
X61000000Y-121744888D03*
%TD*%
D10*
%TO.C,L20*%
X94700000Y-148200000D03*
X95700000Y-155200000D03*
X100700000Y-155200000D03*
X101700000Y-148200000D03*
%TD*%
D11*
%TO.C,Q14*%
X128055000Y-150860000D03*
D12*
X128055000Y-153400000D03*
X128055000Y-155940000D03*
%TD*%
D26*
%TO.C,D2*%
X35000000Y-169000000D03*
D27*
X35000000Y-171540000D03*
%TD*%
D21*
%TO.C,L17*%
X101900000Y-183700000D03*
X96900000Y-178700000D03*
%TD*%
M02*
